SplineFontDB: 1.0
FontName: DejaVuSerif-Oblique
FullName: DejaVu Serif Oblique
FamilyName: DejaVu Serif
Weight: Book
Copyright: Copyright (c) 2003 by Bitstream, Inc. All Rights Reserved.\nDejaVu changes are in public domain\n
Version: 2.1
ItalicAngle: -11
UnderlinePosition: -213
UnderlineWidth: 133
Ascent: 1556
Descent: 492
Order2: 1
NeedsXUIDChange: 1
FSType: 0
PfmFamily: 17
TTFWeight: 400
TTFWidth: 5
LineGap: 0
VLineGap: 0
Panose: 2 6 6 3 5 3 5 11 2 4
OS2TypoAscent: 1556
OS2TypoAOffset: 0
OS2TypoDescent: -492
OS2TypoDOffset: 0
OS2TypoLinegap: 410
OS2WinAscent: 1901
OS2WinAOffset: 0
OS2WinDescent: 483
OS2WinDOffset: 0
HheadAscent: 1901
HheadAOffset: 0
HheadDescent: -483
HheadDOffset: 0
OS2Vendor: 'PfEd'
ScriptLang: 2
 3 cyrl 1 dflt grek 1 dflt latn 1 dflt 
 1 DFLT 1 dflt 
ChainSub: class 0 0 'ccmp' 4 4 4 2
  Class: 3 i j
  Class: 181 gravecomb acutecomb uni0302 tildecomb uni0304 uni0305 uni0306 uni0307 uni0308 uni030A uni030B uni030C uni030D uni030E uni030F uni0310 uni0311 uni0312 uni0313 uni0314 uni033D uni033E

StartChar: .notdef
Encoding: 0 -1 0
AltUni: 0
Width: 1229
Flags: W
Fore
102 -362 m 1,0,-1
 102 1444 l 1,1,-1
 1126 1444 l 1,2,-1
 1126 -362 l 1,3,-1
 102 -362 l 1,0,-1
217 -248 m 1,4,-1
 1012 -248 l 1,5,-1
 1012 1329 l 1,6,-1
 217 1329 l 1,7,-1
 217 -248 l 1,4,-1
EndSplineSet
EndChar
StartChar: exclam
Encoding: 33 33 33
Width: 823
Flags: W
Fore
156.929 104 m 0,0,1
 167.814 160 167.814 160 213.396 199 c 128,-1,2
 258.977 238 258.977 238 315.977 238 c 0,3,4
 370.977 238 370.977 238 402.396 199 c 128,-1,5
 433.814 160 433.814 160 422.929 104 c 0,6,7
 412.238 49 412.238 49 365.657 10 c 128,-1,8
 319.076 -29 319.076 -29 264.076 -29 c 0,9,10
 207.076 -29 207.076 -29 176.561 9.5 c 128,-1,11
 146.044 48 146.044 48 156.929 104 c 0,0,1
430.924 1493 m 1,12,-1
 688.924 1493 l 1,13,-1
 461.337 672 l 1,14,-1
 412.354 420 l 1,15,-1
 289.354 420 l 1,16,-1
 338.337 672 l 1,17,-1
 430.924 1493 l 1,12,-1
EndSplineSet
EndChar
StartChar: quotedbl
Encoding: 34 34 34
Width: 942
Flags: W
Fore
360 1493 m 1,0,-1
 360 938 l 1,1,-1
 201 938 l 1,2,-1
 201 1493 l 1,3,-1
 360 1493 l 1,0,-1
741 1493 m 1,4,-1
 741 938 l 1,5,-1
 582 938 l 1,6,-1
 582 1493 l 1,7,-1
 741 1493 l 1,4,-1
EndSplineSet
EndChar
StartChar: numbersign
Encoding: 35 35 35
Width: 1716
Flags: W
Fore
1042 901 m 1,0,-1
 760 901 l 1,1,-1
 676 567 l 1,2,-1
 961 567 l 1,3,-1
 1042 901 l 1,0,-1
901 1470 m 1,4,-1
 799 1055 l 1,5,-1
 1081 1055 l 1,6,-1
 1184 1470 l 1,7,-1
 1356 1470 l 1,8,-1
 1251 1055 l 1,9,-1
 1559 1055 l 1,10,-1
 1559 901 l 1,11,-1
 1212 901 l 1,12,-1
 1130 567 l 1,13,-1
 1444 567 l 1,14,-1
 1444 414 l 1,15,-1
 1092 414 l 1,16,-1
 989 0 l 1,17,-1
 817 0 l 1,18,-1
 922 414 l 1,19,-1
 639 414 l 1,20,-1
 535 0 l 1,21,-1
 365 0 l 1,22,-1
 467 414 l 1,23,-1
 158 414 l 1,24,-1
 158 567 l 1,25,-1
 506 567 l 1,26,-1
 588 901 l 1,27,-1
 272 901 l 1,28,-1
 272 1055 l 1,29,-1
 627 1055 l 1,30,-1
 731 1470 l 1,31,-1
 901 1470 l 1,4,-1
EndSplineSet
EndChar
StartChar: dollar
Encoding: 36 36 36
Width: 1303
Flags: W
Fore
581.244 68 m 1,0,1
 696.188 78 696.188 78 766.379 133 c 128,-1,2
 836.57 188 836.57 188 855.036 283 c 0,3,4
 871.753 369 871.753 369 824.415 429 c 128,-1,5
 777.078 489 777.078 489 669.104 520 c 1,6,-1
 581.244 68 l 1,0,1
698.756 1187 m 1,7,8
 594.396 1180 594.396 1180 527.19 1127.5 c 128,-1,9
 459.985 1075 459.985 1075 442.88 987 c 0,10,11
 427.329 907 427.329 907 469.527 854 c 128,-1,12
 511.725 801 511.725 801 617.311 768 c 1,13,-1
 698.756 1187 l 1,7,8
68.0215 72 m 1,14,-1
 121.671 348 l 1,15,-1
 229.671 348 l 1,16,17
 207.041 211 207.041 211 269.434 141 c 128,-1,18
 331.827 71 331.827 71 481.244 68 c 1,19,-1
 575.519 553 l 1,20,21
 357.959 617 357.959 617 281.189 700.5 c 128,-1,22
 204.421 784 204.421 784 231.245 922 c 0,23,24
 262.346 1082 262.346 1082 391.201 1179 c 128,-1,25
 520.056 1276 520.056 1276 718.389 1288 c 1,26,-1
 770.482 1556 l 1,27,-1
 870.482 1556 l 1,28,-1
 818.389 1288 l 1,29,30
 917.833 1280 917.833 1280 1006.57 1255.5 c 128,-1,31
 1095.31 1231 1095.31 1231 1176.34 1190 c 1,32,-1
 1125.41 928 l 1,33,-1
 1016.41 928 l 1,34,35
 1026.96 1044 1026.96 1044 970.982 1111 c 128,-1,36
 915.006 1178 915.006 1178 798.756 1187 c 1,37,-1
 710.896 735 l 1,38,39
 943.872 668 943.872 668 1025.56 581.5 c 128,-1,40
 1107.24 495 1107.24 495 1079.06 350 c 0,41,42
 1046.79 184 1046.79 184 911.354 84 c 128,-1,43
 775.916 -16 775.916 -16 562.001 -31 c 1,44,-1
 509.518 -301 l 1,45,-1
 409.518 -301 l 1,46,-1
 462.001 -31 l 1,47,48
 366.39 -29 366.39 -29 268.346 -3.5 c 128,-1,49
 170.303 22 170.303 22 68.0215 72 c 1,14,-1
EndSplineSet
EndChar
StartChar: percent
Encoding: 37 37 37
Width: 1946
Flags: W
Fore
591.47 1427 m 0,0,1
 503.47 1427 503.47 1427 437.837 1344 c 128,-1,2
 372.203 1261 372.203 1261 343.24 1112 c 0,3,4
 314.666 965 314.666 965 348.839 881 c 128,-1,5
 383.011 797 383.011 797 469.011 797 c 0,6,7
 554.011 797 554.011 797 619.741 880.5 c 128,-1,8
 685.472 964 685.472 964 714.24 1112 c 0,9,10
 743.009 1260 743.009 1260 709.739 1343.5 c 128,-1,11
 676.47 1427 676.47 1427 591.47 1427 c 0,0,1
1478.99 694 m 0,12,13
 1391.99 694 1391.99 694 1326.16 610 c 128,-1,14
 1260.33 526 1260.33 526 1231.37 377 c 0,15,16
 1202.8 230 1202.8 230 1236.57 146.5 c 128,-1,17
 1270.34 63 1270.34 63 1356.33 63 c 0,18,19
 1442.34 63 1442.34 63 1507.57 146.5 c 128,-1,20
 1572.8 230 1572.8 230 1601.37 377 c 0,21,22
 1630.14 525 1630.14 525 1597.06 609.5 c 128,-1,23
 1563.99 694 1563.99 694 1478.99 694 c 0,12,13
1496.48 784 m 0,24,25
 1654.48 784 1654.48 784 1726.1 674 c 128,-1,26
 1797.72 564 1797.72 564 1761.37 377 c 0,27,28
 1725.02 190 1725.02 190 1610.24 80.5 c 128,-1,29
 1495.45 -29 1495.45 -29 1338.45 -29 c 0,30,31
 1178.45 -29 1178.45 -29 1106.74 80.5 c 128,-1,32
 1035.02 190 1035.02 190 1071.37 377 c 0,33,34
 1107.91 565 1107.91 565 1222.7 674.5 c 128,-1,35
 1337.48 784 1337.48 784 1496.48 784 c 0,24,25
1514.55 1520 m 1,36,-1
 1666.55 1520 l 1,37,-1
 431.452 -29 l 1,38,-1
 279.452 -29 l 1,39,-1
 1514.55 1520 l 1,36,-1
607.548 1520 m 0,40,41
 765.548 1520 765.548 1520 838.263 1410.5 c 128,-1,42
 910.979 1301 910.979 1301 874.629 1114 c 0,43,44
 837.892 925 837.892 925 723.204 816 c 128,-1,45
 608.517 707 608.517 707 449.517 707 c 0,46,47
 290.517 707 290.517 707 219.301 816.5 c 128,-1,48
 148.086 926 148.086 926 184.629 1114 c 0,49,50
 220.784 1300 220.784 1300 335.166 1410 c 128,-1,51
 449.548 1520 449.548 1520 607.548 1520 c 0,40,41
EndSplineSet
EndChar
StartChar: ampersand
Encoding: 38 38 38
Width: 1823
Flags: W
Fore
1005.99 231 m 1,0,-1
 543.15 844 l 1,1,2
 440.98 766 440.98 766 379.89 675.5 c 0,3,4
 318.8 585 318.8 585 298.98 483 c 0,5,6
 290.68 440.28 290.68 440.28 290.68 401.11 c 0,7,8
 290.68 288.05 290.68 288.05 359.84 204.5 c 0,9,10
 452.97 92 452.97 92 624.97 92 c 0,11,12
 726.97 92 726.97 92 824.37 127.5 c 128,-1,13
 921.77 163 921.77 163 1005.99 231 c 1,0,-1
1581.09 0 m 1,14,-1
 1180.09 0 l 1,15,-1
 1071.27 145 l 1,16,17
 949.17 57 949.17 57 821.81 14 c 128,-1,18
 694.45 -29 694.45 -29 556.45 -29 c 0,19,20
 298.45 -29 298.45 -29 173.11 103 c 0,21,22
 80.3 200.74 80.3 200.74 80.3 350.03 c 0,23,24
 80.3 402.35 80.3 402.35 91.7 461 c 0,25,26
 117.55 594 117.55 594 216.5 709.5 c 0,27,28
 315.45 825 315.45 825 490.09 926 c 1,29,30
 450.94 987 450.94 987 438.7 1047.5 c 0,31,32
 432.72 1077.04 432.72 1077.04 432.72 1107.89 c 0,33,34
 432.72 1140.22 432.72 1140.22 439.29 1174 c 0,35,36
 470.2 1333 470.2 1333 602.87 1426.5 c 0,37,38
 735.55 1520 735.55 1520 932.55 1520 c 0,39,40
 999.55 1520 999.55 1520 1085.74 1503 c 0,41,42
 1171.94 1486 1171.94 1486 1280.33 1452 c 1,43,-1
 1230.18 1194 l 1,44,-1
 1117.18 1194 l 1,45,46
 1117.95 1206.14 1117.95 1206.14 1117.95 1217.63 c 0,47,48
 1117.95 1307.36 1117.95 1307.36 1070.86 1357 c 0,49,50
 1017.75 1413 1017.75 1413 907.75 1413 c 0,51,52
 804.75 1413 804.75 1413 729.77 1356.5 c 0,53,54
 654.78 1300 654.78 1300 637.29 1210 c 0,55,56
 633.17 1188.78 633.17 1188.78 633.17 1167.63 c 0,57,58
 633.17 1127.96 633.17 1127.96 647.67 1088.5 c 0,59,60
 669.14 1030.11 669.14 1030.11 755.95 915 c 2,61,-1
 1166.2 371 l 1,62,63
 1250.75 451 1250.75 451 1308.24 543.5 c 0,64,65
 1365.72 636 1365.72 636 1396.12 741 c 1,66,-1
 1416.92 848 l 1,67,-1
 1709.92 848 l 1,68,-1
 1689.12 741 l 1,69,-1
 1517.12 741 l 1,70,71
 1474.86 611 1474.86 611 1403.39 498 c 0,72,73
 1331.93 385 1331.93 385 1230.27 289 c 1,74,-1
 1366.69 106 l 1,75,-1
 1601.69 106 l 1,76,-1
 1581.09 0 l 1,14,-1
EndSplineSet
EndChar
StartChar: quotesingle
Encoding: 39 39 39
Width: 563
Flags: W
Fore
360 1493 m 1,0,-1
 360 938 l 1,1,-1
 201 938 l 1,2,-1
 201 1493 l 1,3,-1
 360 1493 l 1,0,-1
EndSplineSet
EndChar
StartChar: parenleft
Encoding: 40 40 40
Width: 799
Flags: W
Fore
470.769 -319 m 1,0,1
 248.956 -210 248.956 -210 170.927 26.5 c 128,-1,2
 92.8975 263 92.8975 263 161.902 618 c 0,3,4
 231.103 974 231.103 974 401.073 1210.5 c 128,-1,5
 571.044 1447 571.044 1447 835.231 1556 c 1,6,-1
 816.183 1458 l 1,7,8
 641.578 1352 641.578 1352 537.16 1159.5 c 128,-1,9
 432.741 967 432.741 967 364.902 618 c 0,10,11
 297.259 270 297.259 270 326.84 77.5 c 128,-1,12
 356.422 -115 356.422 -115 489.817 -221 c 1,13,-1
 470.769 -319 l 1,0,1
EndSplineSet
EndChar
StartChar: parenright
Encoding: 41 41 41
Width: 799
Flags: W
Fore
-37.2314 -319 m 1,0,-1
 -18.1826 -221 l 1,1,2
 156.422 -115 156.422 -115 261.34 77.5 c 128,-1,3
 366.259 270 366.259 270 433.902 618 c 0,4,5
 501.741 967 501.741 967 471.66 1159.5 c 128,-1,6
 441.578 1352 441.578 1352 308.183 1458 c 1,7,-1
 327.231 1556 l 1,8,9
 550.044 1447 550.044 1447 628.073 1210.5 c 128,-1,10
 706.103 974 706.103 974 636.902 618 c 0,11,12
 567.897 263 567.897 263 397.927 26.5 c 128,-1,13
 227.956 -210 227.956 -210 -37.2314 -319 c 1,0,-1
EndSplineSet
EndChar
StartChar: asterisk
Encoding: 42 42 42
Width: 1024
Flags: W
Fore
991 1237 m 1,0,-1
 600 1055 l 1,1,-1
 991 870 l 1,2,-1
 915 752 l 1,3,-1
 567 969 l 1,4,-1
 580 588 l 1,5,-1
 444 588 l 1,6,-1
 457 969 l 1,7,-1
 109 752 l 1,8,-1
 33 870 l 1,9,-1
 424 1053 l 1,10,-1
 33 1237 l 1,11,-1
 109 1356 l 1,12,-1
 457 1139 l 1,13,-1
 444 1520 l 1,14,-1
 580 1520 l 1,15,-1
 567 1139 l 1,16,-1
 915 1356 l 1,17,-1
 991 1237 l 1,0,-1
EndSplineSet
EndChar
StartChar: plus
Encoding: 43 43 43
Width: 1716
Flags: W
Fore
938 1284 m 1,0,-1
 938 723 l 1,1,-1
 1499 723 l 1,2,-1
 1499 561 l 1,3,-1
 938 561 l 1,4,-1
 938 0 l 1,5,-1
 778 0 l 1,6,-1
 778 561 l 1,7,-1
 217 561 l 1,8,-1
 217 723 l 1,9,-1
 778 723 l 1,10,-1
 778 1284 l 1,11,-1
 938 1284 l 1,0,-1
EndSplineSet
EndChar
StartChar: comma
Encoding: 44 44 44
Width: 651
Flags: W
Fore
40.3721 -199 m 1,0,1
 147.784 -130 147.784 -130 209.959 -36.5 c 128,-1,2
 272.134 57 272.134 57 297.986 190 c 2,3,-1
 305.178 227 l 1,4,-1
 502.178 227 l 1,5,6
 460.939 56 460.939 56 364.628 -66.5 c 128,-1,7
 268.316 -189 268.316 -189 104.822 -279 c 1,8,-1
 40.3721 -199 l 1,0,1
EndSplineSet
EndChar
StartChar: hyphen
Encoding: 45 45 45
Width: 692
Flags: W
Fore
105.162 627 m 1,0,-1
 617.162 627 l 1,1,-1
 586.838 471 l 1,2,-1
 74.8379 471 l 1,3,-1
 105.162 627 l 1,0,-1
EndSplineSet
KernsSLIFO: 356 -73 0 0 221 -225 0 0 376 -225 0 0 89 -225 0 0 88 -73 0 0 87 -112 0 0 86 -149 0 0 84 -73 0 0
EndChar
StartChar: period
Encoding: 46 46 46
Width: 651
Flags: W
Fore
192.902 104 m 0,0,1
 203.788 160 203.788 160 249.369 199 c 128,-1,2
 294.95 238 294.95 238 351.95 238 c 0,3,4
 406.95 238 406.95 238 438.369 199 c 128,-1,5
 469.788 160 469.788 160 458.902 104 c 0,6,7
 448.212 49 448.212 49 401.631 10 c 128,-1,8
 355.05 -29 355.05 -29 300.05 -29 c 0,9,10
 243.05 -29 243.05 -29 212.534 9.5 c 128,-1,11
 182.018 48 182.018 48 192.902 104 c 0,0,1
EndSplineSet
EndChar
StartChar: slash
Encoding: 47 47 47
Width: 690
Flags: W
Fore
693.571 1493 m 1,0,-1
 853.571 1493 l 1,1,-1
 -3.57129 -190 l 1,2,-1
 -163.571 -190 l 1,3,-1
 693.571 1493 l 1,0,-1
EndSplineSet
EndChar
StartChar: zero
Encoding: 48 48 48
Width: 1303
Flags: W
Fore
519.696 70 m 0,0,1
 672.696 70 672.696 70 781.352 238 c 128,-1,2
 890.008 406 890.008 406 955.902 745 c 0,3,4
 1021.99 1085 1021.99 1085 978.648 1253 c 128,-1,5
 935.304 1421 935.304 1421 782.304 1421 c 0,6,7
 629.304 1421 629.304 1421 520.648 1253 c 128,-1,8
 411.992 1085 411.992 1085 345.902 745 c 0,9,10
 280.008 406 280.008 406 323.352 238 c 128,-1,11
 366.696 70 366.696 70 519.696 70 c 0,0,1
500.452 -29 m 0,12,13
 257.452 -29 257.452 -29 160.606 175 c 128,-1,14
 63.7598 379 63.7598 379 134.902 745 c 0,15,16
 206.24 1112 206.24 1112 382.394 1316 c 128,-1,17
 558.548 1520 558.548 1520 801.548 1520 c 0,18,19
 1045.55 1520 1045.55 1520 1141.89 1316 c 128,-1,20
 1238.24 1112 1238.24 1112 1166.9 745 c 0,21,22
 1095.76 379 1095.76 379 920.106 175 c 128,-1,23
 744.452 -29 744.452 -29 500.452 -29 c 0,12,13
EndSplineSet
EndChar
StartChar: one
Encoding: 49 49 49
Width: 1303
Flags: W
Fore
143.271 0 m 1,0,-1
 163.875 106 l 1,1,-1
 423.875 106 l 1,2,-1
 665.296 1348 l 1,3,-1
 326.392 1153 l 1,4,-1
 351.855 1284 l 1,5,-1
 761.729 1520 l 1,6,-1
 899.729 1520 l 1,7,-1
 624.875 106 l 1,8,-1
 884.875 106 l 1,9,-1
 864.271 0 l 1,10,-1
 143.271 0 l 1,0,-1
EndSplineSet
EndChar
StartChar: two
Encoding: 50 50 50
Width: 1303
Flags: W
Fore
335.281 1137 m 1,0,-1
 223.281 1137 l 1,1,-1
 274.986 1403 l 1,2,3
 393.066 1460 393.066 1460 507.397 1490 c 128,-1,4
 621.729 1520 621.729 1520 725.729 1520 c 0,5,6
 958.729 1520 958.729 1520 1071.76 1407 c 128,-1,7
 1184.8 1294 1184.8 1294 1147.09 1100 c 0,8,9
 1104.52 881 1104.52 881 739.234 576 c 0,10,11
 710.764 553 710.764 553 696.431 541 c 2,12,-1
 246.149 164 l 1,13,-1
 869.149 164 l 1,14,-1
 904.915 348 l 1,15,-1
 1021.92 348 l 1,16,-1
 954.271 0 l 1,17,-1
 -8.72949 0 l 1,18,-1
 12.458 109 l 1,19,-1
 553.318 561 l 2,20,21
 732.476 711 732.476 711 820.87 836.5 c 128,-1,22
 909.265 962 909.265 962 936.089 1100 c 0,23,24
 965.44 1251 965.44 1251 903.463 1336 c 128,-1,25
 841.485 1421 841.485 1421 703.485 1421 c 0,26,27
 560.485 1421 560.485 1421 468.685 1350 c 128,-1,28
 376.884 1279 376.884 1279 335.281 1137 c 1,0,-1
EndSplineSet
EndChar
StartChar: three
Encoding: 51 51 51
Width: 1303
Flags: W
Fore
332.054 1430 m 1,0,1
 457.606 1474 457.606 1474 569.577 1497 c 128,-1,2
 681.548 1520 681.548 1520 775.548 1520 c 0,3,4
 994.548 1520 994.548 1520 1099.18 1425.5 c 128,-1,5
 1203.81 1331 1203.81 1331 1171.15 1163 c 0,6,7
 1144.91 1028 1144.91 1028 1042.32 937.5 c 128,-1,8
 939.729 847 939.729 847 777.51 815 c 1,9,10
 956.455 789 956.455 789 1037.06 681.5 c 128,-1,11
 1117.66 574 1117.66 574 1084.42 403 c 0,12,13
 1043.8 194 1043.8 194 881.626 82.5 c 128,-1,14
 719.452 -29 719.452 -29 455.452 -29 c 0,15,16
 338.452 -29 338.452 -29 231.812 -4 c 128,-1,17
 125.172 21 125.172 21 25.085 72 c 1,18,-1
 81.4551 362 l 1,19,-1
 193.455 362 l 1,20,21
 175.465 218 175.465 218 248.08 144 c 128,-1,22
 320.696 70 320.696 70 478.696 70 c 0,23,24
 631.696 70 631.696 70 737.398 158.5 c 128,-1,25
 843.102 247 843.102 247 873.036 401 c 0,26,27
 907.247 577 907.247 577 833.838 667.5 c 128,-1,28
 760.43 758 760.43 758 584.43 758 c 2,29,-1
 489.43 758 l 1,30,-1
 509.257 860 l 1,31,-1
 559.257 860 l 2,32,33
 734.257 860 734.257 860 835.849 932.5 c 128,-1,34
 937.441 1005 937.441 1005 965.821 1151 c 0,35,36
 991.285 1282 991.285 1282 932.795 1351.5 c 128,-1,37
 874.304 1421 874.304 1421 739.304 1421 c 0,38,39
 604.304 1421 604.304 1421 517.363 1357 c 128,-1,40
 430.423 1293 430.423 1293 392.932 1167 c 1,41,-1
 280.932 1167 l 1,42,-1
 332.054 1430 l 1,0,1
EndSplineSet
EndChar
StartChar: four
Encoding: 52 52 52
Width: 1303
Flags: W
Fore
665.627 506 m 1,0,-1
 819.966 1300 l 1,1,-1
 155.627 506 l 1,2,-1
 665.627 506 l 1,0,-1
1007.27 0 m 1,3,-1
 327.271 0 l 1,4,-1
 347.875 106 l 1,5,-1
 587.875 106 l 1,6,-1
 644.829 399 l 1,7,-1
 -7.1709 399 l 1,8,-1
 14.0166 508 l 1,9,-1
 864.729 1520 l 1,10,-1
 1062.73 1520 l 1,11,-1
 865.627 506 l 1,12,-1
 1150.63 506 l 1,13,-1
 1129.83 399 l 1,14,-1
 844.829 399 l 1,15,-1
 787.875 106 l 1,16,-1
 1027.88 106 l 1,17,-1
 1007.27 0 l 1,3,-1
EndSplineSet
EndChar
StartChar: five
Encoding: 53 53 53
Width: 1303
Flags: W
Fore
1177.92 1493 m 1,0,-1
 1146.04 1329 l 1,1,-1
 462.045 1329 l 1,2,-1
 378.851 901 l 1,3,4
 437.848 937 437.848 937 510.847 955 c 128,-1,5
 583.846 973 583.846 973 669.846 973 c 0,6,7
 911.846 973 911.846 973 1025.8 839 c 128,-1,8
 1139.75 705 1139.75 705 1094.66 473 c 0,9,10
 1048.59 236 1048.59 236 881.332 103.5 c 128,-1,11
 714.076 -29 714.076 -29 458.076 -29 c 0,12,13
 355.076 -29 355.076 -29 251.937 -4 c 128,-1,14
 148.796 21 148.796 21 45.709 72 c 1,15,-1
 102.079 362 l 1,16,-1
 215.079 362 l 1,17,18
 196.478 220 196.478 220 263.398 145 c 128,-1,19
 330.32 70 330.32 70 477.32 70 c 0,20,21
 635.32 70 635.32 70 740.536 174 c 128,-1,22
 845.751 278 845.751 278 883.655 473 c 0,23,24
 921.365 667 921.365 667 856.983 770.5 c 128,-1,25
 792.602 874 792.602 874 633.602 874 c 0,26,27
 543.602 874 543.602 874 468.882 842 c 128,-1,28
 394.162 810 394.162 810 328.138 743 c 1,29,-1
 242.138 743 l 1,30,-1
 387.924 1493 l 1,31,-1
 1177.92 1493 l 1,0,-1
EndSplineSet
EndChar
StartChar: six
Encoding: 54 54 54
Width: 1303
Flags: W
Fore
538.696 70 m 0,0,1
 679.696 70 679.696 70 775.814 173.5 c 128,-1,2
 871.933 277 871.933 277 909.643 471 c 0,3,4
 947.353 665 947.353 665 891.471 768.5 c 128,-1,5
 835.589 872 835.589 872 694.589 872 c 0,6,7
 551.589 872 551.589 872 457.151 772 c 128,-1,8
 362.713 672 362.713 672 325.976 483 c 0,9,10
 287.294 284 287.294 284 342.495 177 c 128,-1,11
 397.696 70 397.696 70 538.696 70 c 0,0,1
358.87 822 m 1,12,13
 441.448 897 441.448 897 534.641 934 c 128,-1,14
 627.833 971 627.833 971 735.833 971 c 0,15,16
 958.833 971 958.833 971 1062.29 837 c 128,-1,17
 1165.74 703 1165.74 703 1120.64 471 c 0,18,19
 1076.52 244 1076.52 244 910.485 107.5 c 128,-1,20
 744.452 -29 744.452 -29 511.452 -29 c 0,21,22
 258.452 -29 258.452 -29 159.093 159.5 c 128,-1,23
 59.7334 348 59.7334 348 127.767 698 c 0,24,25
 203.964 1090 203.964 1090 406.756 1305 c 128,-1,26
 609.548 1520 609.548 1520 902.548 1520 c 0,27,28
 981.548 1520 981.548 1520 1065.63 1505 c 128,-1,29
 1149.72 1490 1149.72 1490 1234.88 1460 c 1,30,-1
 1187.07 1214 l 1,31,-1
 1074.07 1214 l 1,32,33
 1081.7 1315 1081.7 1315 1027 1368 c 128,-1,34
 972.304 1421 972.304 1421 862.304 1421 c 0,35,36
 668.304 1421 668.304 1421 544.73 1274 c 128,-1,37
 421.156 1127 421.156 1127 358.87 822 c 1,12,13
EndSplineSet
EndChar
StartChar: seven
Encoding: 55 55 55
Width: 1303
Flags: W
Fore
1280.28 1391 m 1,0,-1
 425.896 0 l 1,1,-1
 276.896 0 l 1,2,-1
 1092.23 1329 l 1,3,-1
 402.227 1329 l 1,4,-1
 366.461 1145 l 1,5,-1
 249.461 1145 l 1,6,-1
 317.104 1493 l 1,7,-1
 1300.1 1493 l 1,8,-1
 1280.28 1391 l 1,0,-1
EndSplineSet
EndChar
StartChar: eight
Encoding: 56 56 56
Width: 1303
Flags: W
Fore
888.396 408 m 0,0,1
 919.497 568 919.497 568 857.2 656.5 c 128,-1,2
 794.902 745 794.902 745 650.902 745 c 0,3,4
 506.902 745 506.902 745 410.2 656.5 c 128,-1,5
 313.497 568 313.497 568 282.396 408 c 0,6,7
 251.102 247 251.102 247 313.398 158.5 c 128,-1,8
 375.696 70 375.696 70 519.696 70 c 0,9,10
 663.696 70 663.696 70 760.398 158.5 c 128,-1,11
 857.102 247 857.102 247 888.396 408 c 0,0,1
988.322 1133 m 0,12,13
 1014.76 1269 1014.76 1269 960.531 1345 c 128,-1,14
 906.304 1421 906.304 1421 782.304 1421 c 0,15,16
 659.304 1421 659.304 1421 575.031 1345 c 128,-1,17
 490.758 1269 490.758 1269 464.322 1133 c 0,18,19
 437.692 996 437.692 996 492.419 920 c 128,-1,20
 547.146 844 547.146 844 670.146 844 c 0,21,22
 794.146 844 794.146 844 877.919 920 c 128,-1,23
 961.692 996 961.692 996 988.322 1133 c 0,12,13
814.622 795 m 1,24,25
 980.151 772 980.151 772 1055.23 669.5 c 128,-1,26
 1130.3 567 1130.3 567 1099.4 408 c 0,27,28
 1058.58 198 1058.58 198 903.515 84.5 c 128,-1,29
 748.452 -29 748.452 -29 500.452 -29 c 0,30,31
 253.452 -29 253.452 -29 142.015 84.5 c 128,-1,32
 30.5771 198 30.5771 198 71.3965 408 c 0,33,34
 102.303 567 102.303 567 217.228 669.5 c 128,-1,35
 332.151 772 332.151 772 507.622 795 c 1,36,37
 361.87 822 361.87 822 298.378 909.5 c 128,-1,38
 234.887 997 234.887 997 261.322 1133 c 0,39,40
 296.311 1313 296.311 1313 440.429 1416.5 c 128,-1,41
 584.548 1520 584.548 1520 801.548 1520 c 0,42,43
 1018.55 1520 1018.55 1520 1122.43 1416.5 c 128,-1,44
 1226.31 1313 1226.31 1313 1191.32 1133 c 0,45,46
 1164.89 997 1164.89 997 1067.38 909.5 c 128,-1,47
 969.87 822 969.87 822 814.622 795 c 1,24,25
EndSplineSet
EndChar
StartChar: nine
Encoding: 57 57 57
Width: 1303
Flags: W
Fore
943.13 669 m 1,0,1
 861.552 594 861.552 594 767.359 557 c 128,-1,2
 673.167 520 673.167 520 564.167 520 c 0,3,4
 342.167 520 342.167 520 239.714 654 c 128,-1,5
 137.261 788 137.261 788 182.357 1020 c 0,6,7
 226.481 1247 226.481 1247 392.515 1383.5 c 128,-1,8
 558.548 1520 558.548 1520 791.548 1520 c 0,9,10
 1044.55 1520 1044.55 1520 1143.41 1331.5 c 128,-1,11
 1242.27 1143 1242.27 1143 1174.23 793 c 0,12,13
 1098.04 401 1098.04 401 895.244 186 c 128,-1,14
 692.452 -29 692.452 -29 400.452 -29 c 0,15,16
 321.452 -29 321.452 -29 237.368 -14 c 128,-1,17
 153.284 1 153.284 1 68.1152 31 c 1,18,-1
 116.321 279 l 1,19,-1
 228.321 279 l 1,20,21
 221.689 178 221.689 178 276.192 124 c 128,-1,22
 330.696 70 330.696 70 439.696 70 c 0,23,24
 633.696 70 633.696 70 757.173 216.5 c 128,-1,25
 880.649 363 880.649 363 943.13 669 c 1,0,1
764.304 1421 m 0,26,27
 622.304 1421 622.304 1421 526.686 1317.5 c 128,-1,28
 431.067 1214 431.067 1214 393.357 1020 c 0,29,30
 355.647 826 355.647 826 410.932 722 c 128,-1,31
 466.217 618 466.217 618 608.217 618 c 0,32,33
 750.217 618 750.217 618 845.252 718.5 c 128,-1,34
 940.287 819 940.287 819 977.024 1008 c 0,35,36
 1015.71 1207 1015.71 1207 960.505 1314 c 128,-1,37
 905.304 1421 905.304 1421 764.304 1421 c 0,26,27
EndSplineSet
EndChar
StartChar: colon
Encoding: 58 58 58
Width: 690
Flags: W
Fore
149.632 104 m 0,0,1
 160.518 160 160.518 160 206.599 199 c 128,-1,2
 252.679 238 252.679 238 308.679 238 c 0,3,4
 364.679 238 364.679 238 395.599 199 c 128,-1,5
 426.518 160 426.518 160 415.632 104 c 0,6,7
 404.747 48 404.747 48 359.263 9.5 c 128,-1,8
 313.779 -29 313.779 -29 256.779 -29 c 0,9,10
 199.779 -29 199.779 -29 169.263 9.5 c 128,-1,11
 138.747 48 138.747 48 149.632 104 c 0,0,1
276.368 756 m 0,12,13
 287.253 812 287.253 812 333.237 850.5 c 128,-1,14
 379.221 889 379.221 889 435.221 889 c 0,15,16
 492.221 889 492.221 889 522.834 851 c 128,-1,17
 553.447 813 553.447 813 542.368 756 c 0,18,19
 531.288 699 531.288 699 485.901 661 c 128,-1,20
 440.516 623 440.516 623 383.516 623 c 0,21,22
 327.516 623 327.516 623 296.499 661.5 c 128,-1,23
 265.482 700 265.482 700 276.368 756 c 0,12,13
EndSplineSet
EndChar
StartChar: semicolon
Encoding: 59 59 59
Width: 690
Flags: W
Fore
-23.9678 -199 m 1,0,1
 83.4443 -130 83.4443 -130 145.619 -36.5 c 128,-1,2
 207.794 57 207.794 57 233.646 190 c 2,3,-1
 240.838 227 l 1,4,-1
 437.838 227 l 1,5,6
 396.6 56 396.6 56 300.288 -66.5 c 128,-1,7
 203.977 -189 203.977 -189 40.4814 -279 c 1,8,-1
 -23.9678 -199 l 1,0,1
304.665 756 m 0,9,10
 315.551 812 315.551 812 361.534 850.5 c 128,-1,11
 407.519 889 407.519 889 463.519 889 c 0,12,13
 519.519 889 519.519 889 550.438 850 c 128,-1,14
 581.356 811 581.356 811 570.665 756 c 0,15,16
 559.78 700 559.78 700 513.797 661.5 c 128,-1,17
 467.812 623 467.812 623 411.812 623 c 0,18,19
 355.812 623 355.812 623 324.797 661.5 c 128,-1,20
 293.78 700 293.78 700 304.665 756 c 0,9,10
EndSplineSet
EndChar
StartChar: less
Encoding: 60 60 60
Width: 1716
Flags: W
Fore
1499 1020 m 1,0,-1
 461 641 l 1,1,-1
 1499 264 l 1,2,-1
 1499 94 l 1,3,-1
 217 559 l 1,4,-1
 217 725 l 1,5,-1
 1499 1190 l 1,6,-1
 1499 1020 l 1,0,-1
EndSplineSet
EndChar
StartChar: equal
Encoding: 61 61 61
Width: 1716
Flags: W
Fore
217 926 m 1,0,-1
 1499 926 l 1,1,-1
 1499 766 l 1,2,-1
 217 766 l 1,3,-1
 217 926 l 1,0,-1
217 518 m 1,4,-1
 1499 518 l 1,5,-1
 1499 358 l 1,6,-1
 217 358 l 1,7,-1
 217 518 l 1,4,-1
EndSplineSet
EndChar
StartChar: greater
Encoding: 62 62 62
Width: 1716
Flags: W
Fore
217 1020 m 1,0,-1
 217 1190 l 1,1,-1
 1499 725 l 1,2,-1
 1499 559 l 1,3,-1
 217 94 l 1,4,-1
 217 264 l 1,5,-1
 1255 641 l 1,6,-1
 217 1020 l 1,0,-1
EndSplineSet
EndChar
StartChar: question
Encoding: 63 63 63
Width: 1098
Flags: W
Fore
235.305 104 m 0,0,1
 246.19 160 246.19 160 292.271 199 c 128,-1,2
 338.352 238 338.352 238 395.352 238 c 0,3,4
 450.352 238 450.352 238 481.771 199 c 128,-1,5
 513.19 160 513.19 160 502.305 104 c 0,6,7
 491.614 49 491.614 49 445.033 10 c 128,-1,8
 398.452 -29 398.452 -29 343.452 -29 c 0,9,10
 286.452 -29 286.452 -29 255.437 9.5 c 128,-1,11
 224.42 48 224.42 48 235.305 104 c 0,0,1
271.47 1427 m 1,12,13
 386.606 1474 386.606 1474 486.577 1497 c 128,-1,14
 586.548 1520 586.548 1520 670.548 1520 c 0,15,16
 892.548 1520 892.548 1520 1000.25 1413 c 128,-1,17
 1107.95 1306 1107.95 1306 1072.57 1124 c 0,18,19
 1036.42 938 1036.42 938 902.981 820 c 128,-1,20
 769.545 702 769.545 702 536.631 651 c 1,21,-1
 487.259 397 l 1,22,-1
 364.259 397 l 1,23,-1
 428.016 725 l 1,24,25
 613.374 768 613.374 768 722.506 869 c 128,-1,26
 831.639 970 831.639 970 861.962 1126 c 0,27,28
 888.592 1263 888.592 1263 830.948 1342 c 128,-1,29
 773.304 1421 773.304 1421 647.304 1421 c 0,30,31
 533.304 1421 533.304 1421 448.072 1355.5 c 128,-1,32
 362.84 1290 362.84 1290 317.932 1167 c 1,33,-1
 220.932 1167 l 1,34,-1
 271.47 1427 l 1,12,13
EndSplineSet
EndChar
StartChar: at
Encoding: 64 64 64
Width: 2048
Flags: W
Fore
1236.66 248 m 1,0,1
 1161.72 166 1161.72 166 1080.44 126 c 128,-1,2
 999.168 86 999.168 86 906.168 86 c 0,3,4
 731.168 86 731.168 86 646.466 211 c 128,-1,5
 561.764 336 561.764 336 600.834 537 c 0,6,7
 639.904 738 639.904 738 773.104 862.5 c 128,-1,8
 906.305 987 906.305 987 1081.3 987 c 0,9,10
 1174.3 987 1174.3 987 1240.03 947 c 128,-1,11
 1305.75 907 1305.75 907 1348.82 825 c 1,12,-1
 1376.42 967 l 1,13,-1
 1532.42 967 l 1,14,-1
 1382.36 195 l 1,15,16
 1559.55 232 1559.55 232 1677.85 357 c 128,-1,17
 1796.14 482 1796.14 482 1832.69 670 c 0,18,19
 1854.26 781 1854.26 781 1839.51 880 c 128,-1,20
 1824.75 979 1824.75 979 1774.08 1063 c 0,21,22
 1693.93 1196 1693.93 1196 1555.13 1266.5 c 128,-1,23
 1416.34 1337 1416.34 1337 1237.34 1337 c 0,24,25
 1147.34 1337 1147.34 1337 1055.64 1318 c 128,-1,26
 963.951 1299 963.951 1299 870.371 1260 c 0,27,28
 650.293 1167 650.293 1167 501.652 978.5 c 128,-1,29
 353.012 790 353.012 790 305 543 c 0,30,31
 272.538 376 272.538 376 295.229 235.5 c 128,-1,32
 317.918 95 317.918 95 392.896 -8 c 0,33,34
 478.766 -127 478.766 -127 616.116 -189.5 c 128,-1,35
 753.468 -252 753.468 -252 926.468 -252 c 0,36,37
 1055.47 -252 1055.47 -252 1174.85 -214 c 128,-1,38
 1294.24 -176 1294.24 -176 1405.01 -100 c 1,39,-1
 1444.41 -170 l 1,40,41
 1318.33 -263 1318.33 -263 1172.29 -309.5 c 128,-1,42
 1026.25 -356 1026.25 -356 863.252 -356 c 0,43,44
 680.252 -356 680.252 -356 526.679 -289.5 c 128,-1,45
 373.104 -223 373.104 -223 272.014 -100 c 0,46,47
 167.7 27 167.7 27 132.98 190.5 c 128,-1,48
 98.2617 354 98.2617 354 135 543 c 0,49,50
 170.766 727 170.766 727 269.45 890 c 128,-1,51
 368.134 1053 368.134 1053 520.82 1180 c 0,52,53
 672.312 1306 672.312 1306 858.03 1374 c 128,-1,54
 1043.75 1442 1043.75 1442 1237.75 1442 c 0,55,56
 1451.75 1442 1451.75 1442 1612.11 1359 c 128,-1,57
 1772.48 1276 1772.48 1276 1861.16 1120 c 0,58,59
 1918.11 1022 1918.11 1022 1934.75 907 c 128,-1,60
 1951.4 792 1951.4 792 1927.3 668 c 0,61,62
 1875.2 400 1875.2 400 1681.98 244.5 c 128,-1,63
 1488.75 89 1488.75 89 1206.17 86 c 1,64,-1
 1236.66 248 l 1,0,1
1282.73 485 m 2,65,-1
 1303.14 590 l 2,66,67
 1327.43 715 1327.43 715 1271 792.5 c 128,-1,68
 1214.56 870 1214.56 870 1099.56 870 c 0,69,70
 978.562 870 978.562 870 894.054 782.5 c 128,-1,71
 809.546 695 809.546 695 778.834 537 c 0,72,73
 747.928 378 747.928 378 798.919 290.5 c 128,-1,74
 849.911 203 849.911 203 971.911 203 c 0,75,76
 1085.91 203 1085.91 203 1172.17 281.5 c 128,-1,77
 1258.43 360 1258.43 360 1282.73 485 c 2,65,-1
EndSplineSet
EndChar
StartChar: A
Encoding: 65 65 65
Width: 1479
Flags: W
AnchorPoint: "above" 836.5 1465 basechar 0
Fore
370.055 541 m 1,0,-1
 918.055 541 l 1,1,-1
 782.064 1251 l 1,2,-1
 370.055 541 l 1,0,-1
-157.104 0 m 1,3,-1
 -136.501 106 l 1,4,-1
 -5.50098 106 l 1,5,-1
 796.104 1493 l 1,6,-1
 964.104 1493 l 1,7,-1
 1227.5 106 l 1,8,-1
 1374.5 106 l 1,9,-1
 1353.9 0 l 1,10,-1
 810.896 0 l 1,11,-1
 831.499 106 l 1,12,-1
 997.499 106 l 1,13,-1
 936.256 434 l 1,14,-1
 308.256 434 l 1,15,-1
 119.499 106 l 1,16,-1
 283.499 106 l 1,17,-1
 262.896 0 l 1,18,-1
 -157.104 0 l 1,3,-1
EndSplineSet
KernsSLIFO: 357 -36 0 0 356 -112 0 0 253 -83 0 0 221 -83 0 0 64258 -36 0 0 64257 -36 0 0 376 -83 0 0 255 -83 0 0 8217 -301 0 0 8221 -301 0 0 121 -83 0 0 119 -92 0 0 118 -83 0 0 116 -36 0 0 102 -36 0 0 89 -83 0 0 87 -83 0 0 86 -102 0 0 84 -112 0 0
EndChar
StartChar: B
Encoding: 66 66 66
Width: 1505
Flags: W
Fore
381.499 106 m 1,0,-1
 680.499 106 l 2,1,2
 860.499 106 860.499 106 958.661 184 c 128,-1,3
 1056.82 262 1056.82 262 1089.87 432 c 0,4,5
 1122.72 601 1122.72 601 1055.28 678.5 c 128,-1,6
 987.847 756 987.847 756 806.847 756 c 2,7,-1
 507.847 756 l 1,8,-1
 381.499 106 l 1,0,-1
528.451 862 m 1,9,-1
 782.451 862 l 2,10,11
 946.451 862 946.451 862 1034.2 925 c 128,-1,12
 1121.94 988 1121.94 988 1148.38 1124 c 0,13,14
 1175.01 1261 1175.01 1261 1111.66 1323.5 c 128,-1,15
 1048.31 1386 1048.31 1386 884.307 1386 c 2,16,-1
 630.307 1386 l 1,17,-1
 528.451 862 l 1,9,-1
-32.1045 0 m 1,18,-1
 -11.501 106 l 1,19,-1
 178.499 106 l 1,20,-1
 427.307 1386 l 1,21,-1
 237.307 1386 l 1,22,-1
 258.104 1493 l 1,23,-1
 995.104 1493 l 2,24,25
 1221.1 1493 1221.1 1493 1317.62 1400.5 c 128,-1,26
 1414.14 1308 1414.14 1308 1378.38 1124 c 0,27,28
 1352.53 991 1352.53 991 1257.67 912 c 128,-1,29
 1162.81 833 1162.81 833 1006.32 815 c 1,30,31
 1191.65 791 1191.65 791 1271.2 693.5 c 128,-1,32
 1350.75 596 1350.75 596 1318.87 432 c 0,33,34
 1275.71 210 1275.71 210 1115.3 105 c 128,-1,35
 954.896 0 954.896 0 657.896 0 c 2,36,-1
 -32.1045 0 l 1,18,-1
EndSplineSet
KernsSLIFO: 268 38 0 0 262 38 0 0 286 38 0 0 221 -36 0 0 210 38 0 0 212 38 0 0 211 38 0 0 376 -36 0 0 338 38 0 0 213 38 0 0 216 38 0 0 214 38 0 0 199 38 0 0 89 -36 0 0 79 38 0 0 71 38 0 0 67 38 0 0 45 38 0 0
EndChar
StartChar: C
Encoding: 67 67 67
Width: 1567
Flags: W
AnchorPoint: "above" 974.5 1465 basechar 0
Fore
1375.87 395 m 1,0,1
 1269.24 186 1269.24 186 1092.85 78.5 c 128,-1,2
 916.452 -29 916.452 -29 678.452 -29 c 0,3,4
 532.452 -29 532.452 -29 417.172 21 c 128,-1,5
 301.891 71 301.891 71 223.745 168 c 0,6,7
 133.516 280 133.516 280 106.715 422.5 c 128,-1,8
 79.9141 565 79.9141 565 114.902 745 c 0,9,10
 182.547 1093 182.547 1093 425.047 1306.5 c 128,-1,11
 667.548 1520 667.548 1520 996.548 1520 c 0,12,13
 1118.55 1520 1118.55 1520 1250.33 1488 c 128,-1,14
 1382.11 1456 1382.11 1456 1528.47 1391 c 1,15,-1
 1461.61 1047 l 1,16,-1
 1348.61 1047 l 1,17,18
 1348.15 1235 1348.15 1235 1253.95 1324 c 128,-1,19
 1159.75 1413 1159.75 1413 958.749 1413 c 0,20,21
 719.749 1413 719.749 1413 563.802 1243.5 c 128,-1,22
 407.854 1074 407.854 1074 343.902 745 c 0,23,24
 280.146 417 280.146 417 370.198 247.5 c 128,-1,25
 460.251 78 460.251 78 699.251 78 c 0,26,27
 866.251 78 866.251 78 989.704 157.5 c 128,-1,28
 1113.16 237 1113.16 237 1191.87 395 c 1,29,-1
 1375.87 395 l 1,0,1
EndSplineSet
KernsSLIFO: 46 -73 0 0 44 -73 0 0
EndChar
StartChar: D
Encoding: 68 68 68
Width: 1642
Flags: W
AnchorPoint: "above" 888.5 1465 basechar 0
Fore
381.499 106 m 1,0,-1
 567.499 106 l 2,1,2
 858.499 106 858.499 106 1046.27 272 c 128,-1,3
 1234.03 438 1234.03 438 1294.29 748 c 0,4,5
 1354.55 1058 1354.55 1058 1231.43 1222 c 128,-1,6
 1108.31 1386 1108.31 1386 816.307 1386 c 2,7,-1
 630.307 1386 l 1,8,-1
 381.499 106 l 1,0,-1
-32.1045 0 m 1,9,-1
 -11.501 106 l 1,10,-1
 178.499 106 l 1,11,-1
 427.307 1386 l 1,12,-1
 237.307 1386 l 1,13,-1
 258.104 1493 l 1,14,-1
 852.104 1493 l 2,15,16
 1238.1 1493 1238.1 1493 1415.31 1296 c 128,-1,17
 1592.52 1099 1592.52 1099 1524.29 748 c 0,18,19
 1455.87 396 1455.87 396 1201.38 198 c 128,-1,20
 946.896 0 946.896 0 561.896 0 c 2,21,-1
 -32.1045 0 l 1,9,-1
EndSplineSet
KernsSLIFO: 86 -36 0 0 46 -73 0 0 45 38 0 0 44 -73 0 0
EndChar
StartChar: E
Encoding: 69 69 69
Width: 1495
Flags: W
AnchorPoint: "above" 893.5 1465 basechar 0
Fore
-32.1045 0 m 1,0,-1
 -11.501 106 l 1,1,-1
 178.499 106 l 1,2,-1
 427.307 1386 l 1,3,-1
 237.307 1386 l 1,4,-1
 258.104 1493 l 1,5,-1
 1460.1 1493 l 1,6,-1
 1395.57 1161 l 1,7,-1
 1272.57 1161 l 1,8,-1
 1313.2 1370 l 1,9,-1
 627.196 1370 l 1,10,-1
 530.006 870 l 1,11,-1
 1019.01 870 l 1,12,-1
 1055.36 1057 l 1,13,-1
 1178.36 1057 l 1,14,-1
 1081.94 561 l 1,15,-1
 958.942 561 l 1,16,-1
 995.292 748 l 1,17,-1
 506.292 748 l 1,18,-1
 384.804 123 l 1,19,-1
 1086.8 123 l 1,20,-1
 1127.43 332 l 1,21,-1
 1250.43 332 l 1,22,-1
 1185.9 0 l 1,23,-1
 -32.1045 0 l 1,0,-1
EndSplineSet
KernsSLIFO: 45 38 0 0
EndChar
StartChar: F
Encoding: 70 70 70
Width: 1421
Flags: W
Fore
-32.1045 0 m 1,0,-1
 -11.501 106 l 1,1,-1
 178.499 106 l 1,2,-1
 427.307 1386 l 1,3,-1
 237.307 1386 l 1,4,-1
 258.104 1493 l 1,5,-1
 1480.1 1493 l 1,6,-1
 1415.57 1161 l 1,7,-1
 1292.57 1161 l 1,8,-1
 1333.2 1370 l 1,9,-1
 627.196 1370 l 1,10,-1
 530.006 870 l 1,11,-1
 1040.01 870 l 1,12,-1
 1076.36 1057 l 1,13,-1
 1199.36 1057 l 1,14,-1
 1102.94 561 l 1,15,-1
 979.942 561 l 1,16,-1
 1016.29 748 l 1,17,-1
 506.292 748 l 1,18,-1
 381.499 106 l 1,19,-1
 620.499 106 l 1,20,-1
 599.896 0 l 1,21,-1
 -32.1045 0 l 1,0,-1
EndSplineSet
KernsSLIFO: 283 -112 0 0 193 -178 0 0 194 -178 0 0 339 -112 0 0 195 -178 0 0 192 -178 0 0 248 -112 0 0 230 -139 0 0 245 -112 0 0 246 -112 0 0 244 -112 0 0 242 -112 0 0 243 -112 0 0 235 -112 0 0 234 -112 0 0 232 -112 0 0 233 -112 0 0 229 -139 0 0 227 -139 0 0 228 -139 0 0 226 -139 0 0 224 -139 0 0 225 -139 0 0 196 -178 0 0 111 -112 0 0 101 -112 0 0 97 -139 0 0 65 -178 0 0 59 -73 0 0 58 -73 0 0 46 -319 0 0 45 -92 0 0 44 -319 0 0
EndChar
StartChar: G
Encoding: 71 71 71
Width: 1636
Flags: W
AnchorPoint: "above" 1001.5 1465 basechar 0
Fore
1369.61 1047 m 1,0,1
 1370.96 1234 1370.96 1234 1277.35 1323.5 c 128,-1,2
 1183.75 1413 1183.75 1413 985.749 1413 c 0,3,4
 727.749 1413 727.749 1413 568.481 1247 c 128,-1,5
 409.215 1081 409.215 1081 343.902 745 c 0,6,7
 279.952 416 279.952 416 378.102 247 c 128,-1,8
 476.251 78 476.251 78 730.251 78 c 0,9,10
 843.251 78 843.251 78 951.693 106 c 128,-1,11
 1060.14 134 1060.14 134 1164.02 190 c 1,12,-1
 1238.86 575 l 1,13,-1
 957.858 575 l 1,14,-1
 978.657 682 l 1,15,-1
 1462.66 682 l 1,16,-1
 1354.39 125 l 1,17,18
 1206.42 48 1206.42 48 1045.44 9.5 c 128,-1,19
 884.452 -29 884.452 -29 709.452 -29 c 0,20,21
 371.452 -29 371.452 -29 209.063 182.5 c 128,-1,22
 46.6758 394 46.6758 394 114.902 745 c 0,23,24
 183.714 1099 183.714 1099 428.631 1309.5 c 128,-1,25
 673.548 1520 673.548 1520 1018.55 1520 c 0,26,27
 1146.55 1520 1146.55 1520 1277.31 1490.5 c 128,-1,28
 1408.08 1461 1408.08 1461 1550.42 1401 c 1,29,-1
 1481.61 1047 l 1,30,-1
 1369.61 1047 l 1,0,1
EndSplineSet
KernsSLIFO: 221 -36 0 0 376 -36 0 0 89 -36 0 0 46 -73 0 0 45 38 0 0 44 -73 0 0
EndChar
StartChar: H
Encoding: 72 72 72
Width: 1786
Flags: W
AnchorPoint: "above" 1038.5 1465 basechar 0
Fore
-32.1045 0 m 1,0,-1
 -11.501 106 l 1,1,-1
 178.499 106 l 1,2,-1
 427.307 1386 l 1,3,-1
 237.307 1386 l 1,4,-1
 258.104 1493 l 1,5,-1
 841.104 1493 l 1,6,-1
 820.307 1386 l 1,7,-1
 630.307 1386 l 1,8,-1
 530.006 870 l 1,9,-1
 1304.01 870 l 1,10,-1
 1404.31 1386 l 1,11,-1
 1214.31 1386 l 1,12,-1
 1235.1 1493 l 1,13,-1
 1818.1 1493 l 1,14,-1
 1797.31 1386 l 1,15,-1
 1607.31 1386 l 1,16,-1
 1358.5 106 l 1,17,-1
 1548.5 106 l 1,18,-1
 1527.9 0 l 1,19,-1
 944.896 0 l 1,20,-1
 965.499 106 l 1,21,-1
 1155.5 106 l 1,22,-1
 1280.29 748 l 1,23,-1
 506.292 748 l 1,24,-1
 381.499 106 l 1,25,-1
 571.499 106 l 1,26,-1
 550.896 0 l 1,27,-1
 -32.1045 0 l 1,0,-1
EndSplineSet
EndChar
StartChar: I
Encoding: 73 73 73
Width: 809
Flags: W
AnchorPoint: "above" 551.504 1465 basechar 0
Fore
381.499 106 m 1,0,-1
 571.499 106 l 1,1,-1
 550.896 0 l 1,2,-1
 -32.1045 0 l 1,3,-1
 -11.501 106 l 1,4,-1
 178.499 106 l 1,5,-1
 427.307 1386 l 1,6,-1
 237.307 1386 l 1,7,-1
 258.104 1493 l 1,8,-1
 841.104 1493 l 1,9,-1
 820.307 1386 l 1,10,-1
 630.307 1386 l 1,11,-1
 381.499 106 l 1,0,-1
EndSplineSet
EndChar
StartChar: J
Encoding: 74 74 74
Width: 821
Flags: W
AnchorPoint: "above" 559.504 1465 basechar 0
Fore
-345.29 -358 m 1,0,-1
 -299.61 -123 l 1,1,-1
 -185.61 -123 l 1,2,3
 -201.854 -222 -201.854 -222 -167.282 -270.5 c 128,-1,4
 -132.709 -319 -132.709 -319 -44.709 -319 c 0,5,6
 74.291 -319 74.291 -319 135.869 -244 c 128,-1,7
 197.448 -169 197.448 -169 239.822 49 c 2,8,-1
 499.709 1386 l 1,9,-1
 267.709 1386 l 1,10,-1
 288.508 1493 l 1,11,-1
 913.508 1493 l 1,12,-1
 892.709 1386 l 1,13,-1
 702.709 1386 l 1,14,-1
 441.268 41 l 2,15,16
 393.256 -206 393.256 -206 272.874 -316 c 128,-1,17
 152.492 -426 152.492 -426 -67.5078 -426 c 0,18,19
 -138.508 -426 -138.508 -426 -208.703 -409 c 128,-1,20
 -278.899 -392 -278.899 -392 -345.29 -358 c 1,0,-1
EndSplineSet
KernsSLIFO: 59 -83 0 0 58 -83 0 0 46 -159 0 0 44 -120 0 0
EndChar
StartChar: K
Encoding: 75 75 75
Width: 1530
Flags: W
Fore
-32.1045 0 m 1,0,-1
 -11.501 106 l 1,1,-1
 178.499 106 l 1,2,-1
 427.307 1386 l 1,3,-1
 237.307 1386 l 1,4,-1
 258.104 1493 l 1,5,-1
 841.104 1493 l 1,6,-1
 820.307 1386 l 1,7,-1
 630.307 1386 l 1,8,-1
 520.481 821 l 1,9,-1
 1273.31 1386 l 1,10,-1
 1111.31 1386 l 1,11,-1
 1132.1 1493 l 1,12,-1
 1628.1 1493 l 1,13,-1
 1607.31 1386 l 1,14,-1
 1439.31 1386 l 1,15,-1
 688.87 823 l 1,16,-1
 1266.5 106 l 1,17,-1
 1436.5 106 l 1,18,-1
 1415.9 0 l 1,19,-1
 1068.9 0 l 1,20,-1
 498.711 709 l 1,21,-1
 381.499 106 l 1,22,-1
 571.499 106 l 1,23,-1
 550.896 0 l 1,24,-1
 -32.1045 0 l 1,0,-1
EndSplineSet
KernsSLIFO: 367 -45 0 0 366 -73 0 0 283 -55 0 0 268 -55 0 0 262 -55 0 0 253 -131 0 0 221 -55 0 0 217 -73 0 0 219 -73 0 0 218 -73 0 0 210 -55 0 0 212 -55 0 0 211 -55 0 0 193 -83 0 0 194 -83 0 0 376 -55 0 0 255 -131 0 0 339 -55 0 0 338 -55 0 0 213 -55 0 0 195 -83 0 0 192 -83 0 0 248 -36 0 0 216 -55 0 0 252 -45 0 0 251 -45 0 0 249 -45 0 0 250 -45 0 0 245 -55 0 0 246 -55 0 0 244 -55 0 0 242 -55 0 0 243 -55 0 0 235 -55 0 0 234 -55 0 0 232 -55 0 0 233 -55 0 0 220 -73 0 0 214 -55 0 0 199 -55 0 0 196 -83 0 0 121 -131 0 0 117 -45 0 0 111 -55 0 0 101 -55 0 0 89 -55 0 0 87 -73 0 0 85 -73 0 0 79 -55 0 0 67 -55 0 0 65 -83 0 0 45 -149 0 0
EndChar
StartChar: L
Encoding: 76 76 76
Width: 1360
Flags: W
Fore
-32.1045 0 m 1,0,-1
 -11.501 106 l 1,1,-1
 178.499 106 l 1,2,-1
 427.307 1386 l 1,3,-1
 237.307 1386 l 1,4,-1
 258.104 1493 l 1,5,-1
 841.104 1493 l 1,6,-1
 820.307 1386 l 1,7,-1
 630.307 1386 l 1,8,-1
 384.804 123 l 1,9,-1
 1066.8 123 l 1,10,-1
 1115.4 373 l 1,11,-1
 1238.4 373 l 1,12,-1
 1165.9 0 l 1,13,-1
 -32.1045 0 l 1,0,-1
EndSplineSet
KernsSLIFO: 366 -112 0 0 356 -167 0 0 253 -36 0 0 221 -131 0 0 217 -112 0 0 219 -112 0 0 218 -112 0 0 376 -131 0 0 255 -36 0 0 8217 -491 0 0 8221 -491 0 0 220 -112 0 0 121 -36 0 0 89 -131 0 0 87 -178 0 0 86 -243 0 0 85 -112 0 0 84 -167 0 0
EndChar
StartChar: M
Encoding: 77 77 77
Width: 2097
Flags: W
Fore
-32.1045 0 m 1,0,-1
 -11.501 106 l 1,1,-1
 178.499 106 l 1,2,-1
 427.307 1386 l 1,3,-1
 226.307 1386 l 1,4,-1
 247.104 1493 l 1,5,-1
 682.104 1493 l 1,6,-1
 999.479 430 l 1,7,-1
 1730.1 1493 l 1,8,-1
 2138.1 1493 l 1,9,-1
 2117.31 1386 l 1,10,-1
 1918.31 1386 l 1,11,-1
 1669.5 106 l 1,12,-1
 1860.5 106 l 1,13,-1
 1839.9 0 l 1,14,-1
 1255.9 0 l 1,15,-1
 1276.5 106 l 1,16,-1
 1466.5 106 l 1,17,-1
 1690.81 1260 l 1,18,-1
 976.465 219 l 1,19,-1
 835.465 219 l 1,20,-1
 525.814 1260 l 1,21,-1
 301.499 106 l 1,22,-1
 491.499 106 l 1,23,-1
 470.896 0 l 1,24,-1
 -32.1045 0 l 1,0,-1
EndSplineSet
EndChar
StartChar: N
Encoding: 78 78 78
Width: 1792
Flags: W
AnchorPoint: "above" 1018.45 1475 basechar 0
Fore
-42.2861 0 m 1,0,-1
 -21.6816 106 l 1,1,-1
 179.318 106 l 1,2,-1
 428.125 1386 l 1,3,-1
 227.125 1386 l 1,4,-1
 247.924 1493 l 1,5,-1
 630.924 1493 l 1,6,-1
 1296.94 315 l 1,7,-1
 1505.12 1386 l 1,8,-1
 1305.12 1386 l 1,9,-1
 1325.92 1493 l 1,10,-1
 1849.92 1493 l 1,11,-1
 1829.12 1386 l 1,12,-1
 1628.12 1386 l 1,13,-1
 1353.08 -29 l 1,14,-1
 1232.08 -29 l 1,15,-1
 520.607 1229 l 1,16,-1
 302.318 106 l 1,17,-1
 503.318 106 l 1,18,-1
 482.714 0 l 1,19,-1
 -42.2861 0 l 1,0,-1
EndSplineSet
KernsSLIFO: 59 -73 0 0 58 -73 0 0 46 -131 0 0 44 -131 0 0
EndChar
StartChar: O
Encoding: 79 79 79
Width: 1679
Flags: W
AnchorPoint: "above" 985.5 1465 basechar 0
Fore
710.251 78 m 0,0,1
 955.251 78 955.251 78 1113 246.5 c 0,2,3
 1270.76 415 1270.76 415 1334.9 745 c 0,4,5
 1399.24 1076 1399.24 1076 1307 1244.5 c 0,6,7
 1214.75 1413 1214.75 1413 969.749 1413 c 0,8,9
 723.749 1413 723.749 1413 565.996 1244.5 c 0,10,11
 408.243 1076 408.243 1076 343.902 745 c 0,12,13
 279.757 415 279.757 415 372.004 246.5 c 128,-1,14
 464.251 78 464.251 78 710.251 78 c 0,0,1
689.452 -29 m 0,15,16
 537.452 -29 537.452 -29 419.672 21 c 0,17,18
 301.891 71 301.891 71 223.745 168 c 0,19,20
 133.516 280 133.516 280 106.618 422 c 0,21,22
 79.7197 564 79.7197 564 114.902 745 c 0,23,24
 150.086 926 150.086 926 232.285 1068.5 c 128,-1,25
 314.484 1211 314.484 1211 448.255 1323 c 0,26,27
 565.304 1421 565.304 1421 700.926 1470.5 c 0,28,29
 836.548 1520 836.548 1520 990.548 1520 c 0,30,31
 1315.55 1520 1315.55 1520 1474.14 1307 c 0,32,33
 1632.74 1094 1632.74 1094 1564.9 745 c 0,34,35
 1530.11 566 1530.11 566 1447.21 422.5 c 0,36,37
 1364.32 279 1364.32 279 1230.75 168 c 0,38,39
 1113.7 70 1113.7 70 978.074 20.5 c 0,40,41
 842.452 -29 842.452 -29 689.452 -29 c 0,15,16
EndSplineSet
KernsSLIFO: 88 -36 0 0 86 -36 0 0 46 -120 0 0 45 75 0 0 44 -120 0 0
EndChar
StartChar: P
Encoding: 80 80 80
Width: 1378
Flags: W
Fore
508.624 760 m 1,0,-1
 772.624 760 l 2,1,2
 921.624 760 921.624 760 1015.27 840.5 c 128,-1,3
 1108.92 921 1108.92 921 1138.46 1073 c 0,4,5
 1168.21 1226 1168.21 1226 1105.76 1306 c 128,-1,6
 1043.31 1386 1043.31 1386 894.307 1386 c 2,7,-1
 630.307 1386 l 1,8,-1
 508.624 760 l 1,0,-1
-32.1045 0 m 1,9,-1
 -11.501 106 l 1,10,-1
 178.499 106 l 1,11,-1
 427.307 1386 l 1,12,-1
 237.307 1386 l 1,13,-1
 258.104 1493 l 1,14,-1
 964.104 1493 l 2,15,16
 1188.1 1493 1188.1 1493 1297.04 1379.5 c 128,-1,17
 1405.98 1266 1405.98 1266 1368.46 1073 c 0,18,19
 1331.14 881 1331.14 881 1177.98 767 c 128,-1,20
 1024.83 653 1024.83 653 800.825 653 c 2,21,-1
 487.825 653 l 1,22,-1
 381.499 106 l 1,23,-1
 612.499 106 l 1,24,-1
 591.896 0 l 1,25,-1
 -32.1045 0 l 1,9,-1
EndSplineSet
KernsSLIFO: 366 -36 0 0 283 -92 0 0 351 -55 0 0 353 -55 0 0 217 -36 0 0 219 -36 0 0 218 -36 0 0 193 -188 0 0 194 -188 0 0 339 -83 0 0 195 -188 0 0 192 -188 0 0 248 -83 0 0 230 -92 0 0 245 -83 0 0 246 -83 0 0 244 -83 0 0 242 -83 0 0 243 -83 0 0 235 -92 0 0 234 -92 0 0 232 -92 0 0 233 -92 0 0 229 -92 0 0 227 -92 0 0 228 -92 0 0 226 -92 0 0 224 -92 0 0 225 -92 0 0 220 -36 0 0 196 -188 0 0 115 -55 0 0 111 -83 0 0 101 -92 0 0 97 -92 0 0 85 -36 0 0 65 -188 0 0 59 -73 0 0 58 -73 0 0 46 -415 0 0 45 -112 0 0 44 -415 0 0
EndChar
StartChar: Q
Encoding: 81 81 81
Width: 1679
Flags: W
Fore
742.51 -29 m 1,0,1
 399.51 -29 399.51 -29 237.43 181.5 c 0,2,3
 123.56 329.39 123.56 329.39 123.56 547.62 c 0,4,5
 123.56 640.01 123.56 640.01 143.96 745 c 0,6,7
 179.15 926 179.15 926 261.35 1068.5 c 128,-1,8
 343.54 1211 343.54 1211 477.31 1323 c 0,9,10
 594.36 1421 594.36 1421 729.98 1470.5 c 128,-1,11
 865.61 1520 865.61 1520 1019.61 1520 c 0,12,13
 1344.61 1520 1344.61 1520 1503.2 1307 c 0,14,15
 1614.29 1157.81 1614.29 1157.81 1614.29 941.91 c 0,16,17
 1614.29 849.56 1614.29 849.56 1593.96 745 c 0,18,19
 1536.43 449 1536.43 449 1347.26 247.5 c 0,20,21
 1158.09 46 1158.09 46 882.82 -12 c 1,22,23
 923.79 -79 923.79 -79 995.07 -111 c 0,24,25
 1066.35 -143 1066.35 -143 1175.35 -143 c 2,26,-1
 1425.35 -143 l 1,27,-1
 1389.39 -328 l 1,28,-1
 1272.39 -328 l 2,29,30
 1007.1 -328 1007.1 -328 896.93 -245.5 c 0,31,32
 788.67 -164.44 788.67 -164.44 742.51 -29 c 1,0,1
739.31 78 m 0,33,34
 984.31 78 984.31 78 1142.06 246.5 c 0,35,36
 1299.82 415 1299.82 415 1363.96 745 c 0,37,38
 1390.4 881 1390.4 881 1390.4 989.57 c 0,39,40
 1390.4 1145.23 1390.4 1145.23 1336.06 1244.5 c 0,41,42
 1243.81 1413 1243.81 1413 998.81 1413 c 0,43,44
 752.81 1413 752.81 1413 595.06 1244.5 c 128,-1,45
 437.3 1076 437.3 1076 372.96 745 c 0,46,47
 346.65 609.65 346.65 609.65 346.66 501.46 c 0,48,49
 346.66 345.89 346.66 345.89 401.06 246.5 c 0,50,51
 493.31 78 493.31 78 739.31 78 c 0,33,34
EndSplineSet
KernsSLIFO: 8217 38 0 0 8221 38 0 0 46 -102 0 0 45 75 0 0 44 -102 0 0
EndChar
StartChar: R
Encoding: 82 82 82
Width: 1542
Flags: W
AnchorPoint: "above" 876.5 1465 basechar 0
Fore
979.931 741 m 1,0,1
 1046.24 722 1046.24 722 1087.89 676.5 c 128,-1,2
 1129.55 631 1129.55 631 1153.61 549 c 2,3,-1
 1284.5 106 l 1,4,-1
 1466.5 106 l 1,5,-1
 1445.9 0 l 1,6,-1
 1093.9 0 l 1,7,-1
 953.226 475 l 1,8,9
 913.05 613 913.05 613 864.923 653.5 c 128,-1,10
 816.795 694 816.795 694 718.795 694 c 2,11,-1
 495.795 694 l 1,12,-1
 381.499 106 l 1,13,-1
 592.499 106 l 1,14,-1
 571.896 0 l 1,15,-1
 -32.1045 0 l 1,16,-1
 -11.501 106 l 1,17,-1
 178.499 106 l 1,18,-1
 427.307 1386 l 1,19,-1
 237.307 1386 l 1,20,-1
 258.104 1493 l 1,21,-1
 1015.1 1493 l 2,22,23
 1233.1 1493 1233.1 1493 1331.39 1389 c 128,-1,24
 1429.67 1285 1429.67 1285 1392.55 1094 c 0,25,26
 1362.61 940 1362.61 940 1258.91 851.5 c 128,-1,27
 1155.21 763 1155.21 763 979.931 741 c 1,0,1
516.594 801 m 1,28,-1
 811.594 801 l 2,29,30
 962.594 801 962.594 801 1048.49 872.5 c 128,-1,31
 1134.39 944 1134.39 944 1163.55 1094 c 0,32,33
 1192.7 1244 1192.7 1244 1134.5 1315 c 128,-1,34
 1076.31 1386 1076.31 1386 925.307 1386 c 2,35,-1
 630.307 1386 l 1,36,-1
 516.594 801 l 1,28,-1
EndSplineSet
KernsSLIFO: 356 -36 0 0 253 -36 0 0 221 -63 0 0 376 -63 0 0 255 -36 0 0 8217 -112 0 0 8221 -112 0 0 248 38 0 0 230 47 0 0 229 47 0 0 227 47 0 0 228 47 0 0 226 47 0 0 224 47 0 0 225 47 0 0 121 -36 0 0 97 47 0 0 89 -63 0 0 87 -45 0 0 86 -73 0 0 84 -36 0 0
EndChar
StartChar: S
Encoding: 83 83 83
Width: 1403
Flags: W
AnchorPoint: "above" 847.5 1465 basechar 0
Fore
59.085 72 m 1,0,-1
 125.174 412 l 1,1,-1
 239.979 411 l 1,2,3
 211.936 241 211.936 241 289.593 159.5 c 128,-1,4
 367.251 78 367.251 78 558.251 78 c 0,5,6
 736.251 78 736.251 78 843.455 148.5 c 128,-1,7
 950.659 219 950.659 219 976.9 354 c 0,8,9
 997.894 462 997.894 462 952.667 520 c 128,-1,10
 907.441 578 907.441 578 736.132 633 c 2,11,-1
 550.601 692 l 2,12,13
 349.235 757 349.235 757 280.59 854 c 128,-1,14
 211.945 951 211.945 951 244.796 1120 c 0,15,16
 281.728 1310 281.728 1310 437.138 1415 c 128,-1,17
 592.548 1520 592.548 1520 836.548 1520 c 0,18,19
 940.548 1520 940.548 1520 1060.17 1497.5 c 128,-1,20
 1179.8 1475 1179.8 1475 1311.44 1432 c 1,21,-1
 1249.63 1114 l 1,22,-1
 1136.63 1114 l 1,23,24
 1150.34 1272 1150.34 1272 1075.54 1342.5 c 128,-1,25
 1000.75 1413 1000.75 1413 819.749 1413 c 0,26,27
 661.749 1413 661.749 1413 566.711 1348.5 c 128,-1,28
 471.674 1284 471.674 1284 447.765 1161 c 0,29,30
 426.967 1054 426.967 1054 477.109 993 c 128,-1,31
 527.252 932 527.252 932 716.589 872 c 2,32,-1
 890.898 817 l 2,33,34
 1082.04 756 1082.04 756 1150.17 661.5 c 128,-1,35
 1218.3 567 1218.3 567 1187.4 408 c 0,36,37
 1145.22 191 1145.22 191 984.834 81 c 128,-1,38
 824.452 -29 824.452 -29 549.452 -29 c 0,39,40
 426.452 -29 426.452 -29 303.812 -4 c 128,-1,41
 181.172 21 181.172 21 59.085 72 c 1,0,-1
EndSplineSet
KernsSLIFO: 350 -36 0 0 352 -36 0 0 83 -36 0 0 46 -73 0 0 45 75 0 0 44 -73 0 0
EndChar
StartChar: T
Encoding: 84 84 84
Width: 1366
Flags: W
AnchorPoint: "above" 822.5 1465 basechar 0
Fore
245.896 0 m 1,0,-1
 266.499 106 l 1,1,-1
 457.499 106 l 1,2,-1
 703.974 1374 l 1,3,-1
 264.974 1374 l 1,4,-1
 219.683 1141 l 1,5,-1
 96.6826 1141 l 1,6,-1
 165.104 1493 l 1,7,-1
 1491.1 1493 l 1,8,-1
 1422.68 1141 l 1,9,-1
 1299.68 1141 l 1,10,-1
 1344.97 1374 l 1,11,-1
 905.974 1374 l 1,12,-1
 659.499 106 l 1,13,-1
 850.499 106 l 1,14,-1
 829.896 0 l 1,15,-1
 245.896 0 l 1,0,-1
EndSplineSet
KernsSLIFO: 356 38 0 0 283 -159 0 0 269 -159 0 0 263 -159 0 0 351 -149 0 0 353 -149 0 0 193 -112 0 0 194 -112 0 0 339 -159 0 0 195 -112 0 0 192 -112 0 0 248 -159 0 0 230 -159 0 0 245 -159 0 0 246 -159 0 0 244 -159 0 0 242 -159 0 0 243 -159 0 0 235 -159 0 0 234 -159 0 0 232 -159 0 0 233 -159 0 0 231 -159 0 0 229 -159 0 0 227 -159 0 0 228 -159 0 0 226 -159 0 0 224 -159 0 0 225 -159 0 0 196 -112 0 0 119 -73 0 0 115 -149 0 0 111 -159 0 0 101 -159 0 0 99 -159 0 0 97 -159 0 0 84 38 0 0 65 -112 0 0 59 -73 0 0 58 -73 0 0 46 -301 0 0 45 -264 0 0 44 -301 0 0
EndChar
StartChar: U
Encoding: 85 85 85
Width: 1726
Flags: W
AnchorPoint: "above" 1048.5 1465 basechar 0
Fore
414.125 1386 m 1,0,-1
 223.125 1386 l 1,1,-1
 243.924 1493 l 1,2,-1
 827.924 1493 l 1,3,-1
 807.125 1386 l 1,4,-1
 616.125 1386 l 1,5,-1
 466.063 614 l 2,6,7
 410.471 328 410.471 328 482.006 215 c 128,-1,8
 553.54 102 553.54 102 782.54 102 c 0,9,10
 1011.54 102 1011.54 102 1127.01 215 c 128,-1,11
 1242.47 328 1242.47 328 1298.06 614 c 2,12,-1
 1448.12 1386 l 1,13,-1
 1257.12 1386 l 1,14,-1
 1277.92 1493 l 1,15,-1
 1781.92 1493 l 1,16,-1
 1761.12 1386 l 1,17,-1
 1571.12 1386 l 1,18,-1
 1417.18 594 l 2,19,20
 1350.89 253 1350.89 253 1192.48 112 c 128,-1,21
 1034.08 -29 1034.08 -29 720.076 -29 c 0,22,23
 406.076 -29 406.076 -29 300.179 113 c 128,-1,24
 194.28 255 194.28 255 260.176 594 c 2,25,-1
 414.125 1386 l 1,0,-1
EndSplineSet
KernsSLIFO: 193 -63 0 0 194 -63 0 0 195 -63 0 0 192 -63 0 0 196 -63 0 0 74 -55 0 0 65 -63 0 0 59 -73 0 0 58 -73 0 0 46 -188 0 0 45 -36 0 0 44 -188 0 0
EndChar
StartChar: V
Encoding: 86 86 86
Width: 1479
Flags: W
Fore
482.307 1386 m 1,0,-1
 700.546 240 l 1,1,-1
 1363.31 1386 l 1,2,-1
 1195.31 1386 l 1,3,-1
 1216.1 1493 l 1,4,-1
 1654.1 1493 l 1,5,-1
 1633.31 1386 l 1,6,-1
 1488.31 1386 l 1,7,-1
 685.896 0 l 1,8,-1
 513.896 0 l 1,9,-1
 253.307 1386 l 1,10,-1
 104.307 1386 l 1,11,-1
 125.104 1493 l 1,12,-1
 669.104 1493 l 1,13,-1
 648.307 1386 l 1,14,-1
 482.307 1386 l 1,0,-1
EndSplineSet
KernsSLIFO: 367 -131 0 0 283 -188 0 0 253 -83 0 0 210 -36 0 0 212 -36 0 0 211 -36 0 0 193 -139 0 0 194 -139 0 0 255 -83 0 0 8217 75 0 0 8221 75 0 0 339 -188 0 0 338 -36 0 0 213 -36 0 0 195 -139 0 0 192 -139 0 0 248 -188 0 0 230 -188 0 0 216 -36 0 0 252 -131 0 0 251 -131 0 0 249 -131 0 0 250 -131 0 0 245 -188 0 0 246 -188 0 0 244 -188 0 0 242 -188 0 0 243 -188 0 0 235 -188 0 0 234 -188 0 0 232 -188 0 0 233 -188 0 0 229 -188 0 0 227 -188 0 0 228 -188 0 0 226 -188 0 0 224 -188 0 0 225 -188 0 0 214 -36 0 0 196 -139 0 0 121 -83 0 0 117 -131 0 0 111 -188 0 0 105 -36 0 0 101 -188 0 0 97 -188 0 0 79 -36 0 0 65 -139 0 0 59 -206 0 0 58 -206 0 0 46 -358 0 0 45 -188 0 0 44 -358 0 0
EndChar
StartChar: W
Encoding: 87 87 87
Width: 2105
Flags: W
AnchorPoint: "above" 1177 1472 basechar 0
Fore
1415.9 0 m 1,0,-1
 1251.9 0 l 1,1,-1
 1145.87 1214 l 1,2,-1
 567.896 0 l 1,3,-1
 403.896 0 l 1,4,-1
 282.307 1386 l 1,5,-1
 134.307 1386 l 1,6,-1
 155.104 1493 l 1,7,-1
 700.104 1493 l 1,8,-1
 679.307 1386 l 1,9,-1
 493.307 1386 l 1,10,-1
 589.904 283 l 1,11,-1
 1165.1 1493 l 1,12,-1
 1327.1 1493 l 1,13,-1
 1435.38 270 l 1,14,-1
 1965.31 1386 l 1,15,-1
 1793.31 1386 l 1,16,-1
 1814.1 1493 l 1,17,-1
 2244.1 1493 l 1,18,-1
 2223.31 1386 l 1,19,-1
 2076.31 1386 l 1,20,-1
 1415.9 0 l 1,0,-1
EndSplineSet
KernsSLIFO: 252 -83 0 0 229 -178 0 0 230 -139 0 0 59 -178 0 0 242 -139 0 0 45 -149 0 0 46 -358 0 0 367 -83 0 0 245 -139 0 0 235 -167 0 0 249 -83 0 0 44 -358 0 0 224 -178 0 0 195 -102 0 0 234 -167 0 0 341 -92 0 0 8221 38 0 0 232 -167 0 0 196 -102 0 0 193 -102 0 0 8217 38 0 0 251 -83 0 0 253 -45 0 0 227 -178 0 0 194 -102 0 0 248 -139 0 0 244 -139 0 0 65 -102 0 0 97 -178 0 0 228 -178 0 0 246 -139 0 0 250 -83 0 0 225 -178 0 0 345 -92 0 0 226 -178 0 0 233 -167 0 0 283 -167 0 0 101 -167 0 0 105 -36 0 0 339 -139 0 0 255 -45 0 0 111 -139 0 0 114 -92 0 0 117 -83 0 0 192 -102 0 0 121 -45 0 0 58 -178 0 0 243 -139 0 0
EndChar
StartChar: X
Encoding: 88 88 88
Width: 1458
Flags: W
Fore
657.104 639 m 1,0,-1
 188.499 106 l 1,1,-1
 381.499 106 l 1,2,-1
 360.896 0 l 1,3,-1
 -133.104 0 l 1,4,-1
 -112.501 106 l 1,5,-1
 59.499 106 l 1,6,-1
 611.376 733 l 1,7,-1
 302.307 1386 l 1,8,-1
 142.307 1386 l 1,9,-1
 163.104 1493 l 1,10,-1
 755.104 1493 l 1,11,-1
 734.307 1386 l 1,12,-1
 558.307 1386 l 1,13,-1
 784.81 905 l 1,14,-1
 1207.31 1386 l 1,15,-1
 1015.31 1386 l 1,16,-1
 1036.1 1493 l 1,17,-1
 1525.1 1493 l 1,18,-1
 1504.31 1386 l 1,19,-1
 1336.31 1386 l 1,20,-1
 829.537 811 l 1,21,-1
 1163.5 106 l 1,22,-1
 1323.5 106 l 1,23,-1
 1302.9 0 l 1,24,-1
 710.896 0 l 1,25,-1
 731.499 106 l 1,26,-1
 909.499 106 l 1,27,-1
 657.104 639 l 1,0,-1
EndSplineSet
KernsSLIFO: 268 -36 0 0 262 -36 0 0 210 -36 0 0 212 -36 0 0 211 -36 0 0 193 -73 0 0 194 -73 0 0 338 -36 0 0 213 -36 0 0 195 -73 0 0 192 -73 0 0 216 -36 0 0 214 -36 0 0 199 -36 0 0 196 -73 0 0 79 -36 0 0 67 -36 0 0 65 -73 0 0 45 -73 0 0
EndChar
StartChar: Y
Encoding: 89 89 89
Width: 1352
Flags: W
AnchorPoint: "above" 794 1472 basechar 0
Fore
241.896 0 m 1,0,-1
 262.499 106 l 1,1,-1
 453.499 106 l 1,2,-1
 557.882 643 l 1,3,-1
 241.307 1386 l 1,4,-1
 101.307 1386 l 1,5,-1
 122.104 1493 l 1,6,-1
 677.104 1493 l 1,7,-1
 656.307 1386 l 1,8,-1
 482.307 1386 l 1,9,-1
 737.9 782 l 1,10,-1
 1228.31 1386 l 1,11,-1
 1060.31 1386 l 1,12,-1
 1081.1 1493 l 1,13,-1
 1515.1 1493 l 1,14,-1
 1494.31 1386 l 1,15,-1
 1353.31 1386 l 1,16,-1
 763.575 662 l 1,17,-1
 655.499 106 l 1,18,-1
 846.499 106 l 1,19,-1
 825.896 0 l 1,20,-1
 241.896 0 l 1,0,-1
EndSplineSet
KernsSLIFO: 367 -178 0 0 283 -178 0 0 268 -36 0 0 262 -36 0 0 193 -159 0 0 194 -159 0 0 339 -215 0 0 195 -159 0 0 192 -159 0 0 248 -178 0 0 230 -196 0 0 252 -178 0 0 251 -178 0 0 249 -178 0 0 250 -178 0 0 245 -178 0 0 246 -178 0 0 244 -178 0 0 242 -178 0 0 243 -178 0 0 235 -178 0 0 234 -178 0 0 232 -178 0 0 233 -178 0 0 229 -159 0 0 227 -159 0 0 228 -159 0 0 226 -159 0 0 224 -159 0 0 225 -159 0 0 199 -36 0 0 196 -159 0 0 117 -178 0 0 111 -178 0 0 105 -36 0 0 101 -178 0 0 97 -159 0 0 67 -36 0 0 65 -159 0 0 59 -253 0 0 58 -253 0 0 46 -264 0 0 45 -225 0 0 44 -264 0 0
EndChar
StartChar: Z
Encoding: 90 90 90
Width: 1423
Flags: W
AnchorPoint: "above" 858.5 1465 basechar 0
Fore
-53.1045 0 m 1,0,-1
 -39.1094 72 l 1,1,-1
 1143.2 1370 l 1,2,-1
 371.196 1370 l 1,3,-1
 327.85 1147 l 1,4,-1
 204.85 1147 l 1,5,-1
 272.104 1493 l 1,6,-1
 1452.1 1493 l 1,7,-1
 1438.11 1421 l 1,8,-1
 255.804 123 l 1,9,-1
 1099.8 123 l 1,10,-1
 1140.43 332 l 1,11,-1
 1262.43 332 l 1,12,-1
 1197.9 0 l 1,13,-1
 -53.1045 0 l 1,0,-1
EndSplineSet
KernsSLIFO: 46 -36 0 0 44 -36 0 0
EndChar
StartChar: bracketleft
Encoding: 91 91 91
Width: 799
Flags: W
Fore
353.469 1556 m 1,0,-1
 818.469 1556 l 1,1,-1
 797.865 1450 l 1,2,-1
 523.865 1450 l 1,3,-1
 210.135 -164 l 1,4,-1
 484.135 -164 l 1,5,-1
 463.531 -270 l 1,6,-1
 -1.46875 -270 l 1,7,-1
 353.469 1556 l 1,0,-1
EndSplineSet
EndChar
StartChar: backslash
Encoding: 92 92 92
Width: 690
Flags: W
Fore
323.571 1493 m 1,0,-1
 526.429 -190 l 1,1,-1
 366.429 -190 l 1,2,-1
 163.571 1493 l 1,3,-1
 323.571 1493 l 1,0,-1
EndSplineSet
EndChar
StartChar: bracketright
Encoding: 93 93 93
Width: 799
Flags: W
Fore
800.469 1556 m 1,0,-1
 445.531 -270 l 1,1,-1
 -19.4688 -270 l 1,2,-1
 1.13477 -164 l 1,3,-1
 275.135 -164 l 1,4,-1
 588.865 1450 l 1,5,-1
 314.865 1450 l 1,6,-1
 335.469 1556 l 1,7,-1
 800.469 1556 l 1,0,-1
EndSplineSet
EndChar
StartChar: asciicircum
Encoding: 94 94 94
Width: 1716
Flags: W
Fore
956 1493 m 1,0,-1
 1499 936 l 1,1,-1
 1346 936 l 1,2,-1
 858 1317 l 1,3,-1
 371 936 l 1,4,-1
 217 936 l 1,5,-1
 760 1493 l 1,6,-1
 956 1493 l 1,0,-1
EndSplineSet
EndChar
StartChar: underscore
Encoding: 95 95 95
Width: 1024
Flags: W
Fore
1024 -403 m 1,0,-1
 1024 -483 l 1,1,-1
 0 -483 l 1,2,-1
 0 -403 l 1,3,-1
 1024 -403 l 1,0,-1
EndSplineSet
EndChar
StartChar: grave
Encoding: 96 96 96
Width: 1024
Flags: W
Fore
564 1636 m 1,0,-1
 750 1260 l 1,1,-1
 633 1260 l 1,2,-1
 367 1636 l 1,3,-1
 564 1636 l 1,0,-1
EndSplineSet
EndChar
StartChar: a
Encoding: 97 97 97
Width: 1221
Flags: W
AnchorPoint: "above" 677 1092 basechar 0
Fore
898.29 106 m 1,0,-1
 1056.29 106 l 1,1,-1
 1035.69 0 l 1,2,-1
 711.69 0 l 1,3,-1
 743.95 166 l 1,4,5
 675.52 66 675.52 66 591.53 18.5 c 0,6,7
 507.15 -29 507.15 -29 396.45 -29 c 0,8,9
 220.05 -29 220.05 -29 138.23 126.5 c 0,10,11
 86.89 224.06 86.89 224.06 86.89 358.81 c 0,12,13
 86.89 438.85 86.89 438.85 105 532 c 0,14,15
 153.59 782 153.59 782 295.32 937 c 0,16,17
 437.05 1092 437.05 1092 614.35 1092 c 0,18,19
 725.05 1092 725.05 1092 790.97 1044.5 c 0,20,21
 856.48 997 856.48 997 886.05 897 c 1,22,-1
 923.95 1092 l 1,23,-1
 1089.95 1092 l 1,24,-1
 898.29 106 l 1,0,-1
804.79 479 m 2,25,-1
 825.21 584 l 2,26,27
 841.68 668.77 841.68 668.77 841.68 735.81 c 0,28,29
 841.68 819.82 841.68 819.82 815.81 876 c 0,30,31
 769.3 977 769.3 977 643.3 977 c 0,32,33
 515.5 977 515.5 977 428.48 865 c 0,34,35
 341.46 753 341.46 753 298.5 532 c 0,36,37
 277.24 422.66 277.24 422.66 277.24 339.76 c 0,38,39
 277.24 255.84 277.24 255.84 299.02 199 c 0,40,41
 342.3 86 342.3 86 470.1 86 c 0,42,43
 596.1 86 596.1 86 681.79 186.5 c 0,44,45
 767.47 287 767.47 287 804.79 479 c 2,25,-1
EndSplineSet
EndChar
StartChar: b
Encoding: 98 98 98
Width: 1311
Flags: W
Fore
369.44 1450 m 1,0,-1
 192.44 1450 l 1,1,-1
 213.05 1556 l 1,2,-1
 574.05 1556 l 1,3,-1
 445.95 897 l 1,4,5
 519.39 997 519.39 997 612.12 1044.5 c 128,-1,6
 704.85 1092 704.85 1092 827.85 1092 c 0,7,8
 1023.85 1092 1023.85 1092 1117.72 937 c 0,9,10
 1179.58 834.87 1179.58 834.87 1179.58 691.5 c 0,11,12
 1179.58 617.28 1179.58 617.28 1163 532 c 0,13,14
 1114.41 282 1114.41 282 960.18 126.5 c 0,15,16
 805.95 -29 805.95 -29 609.95 -29 c 0,17,18
 486.95 -29 486.95 -29 412.69 18.5 c 0,19,20
 338.42 66 338.42 66 303.86 166 c 1,21,-1
 271.59 0 l 1,22,-1
 87.59 0 l 1,23,-1
 369.44 1450 l 1,0,-1
364.7 479 m 2,24,25
 349.44 400.5 349.44 400.5 349.44 337.3 c 0,26,27
 349.44 245.91 349.44 245.91 381.34 186.5 c 0,28,29
 435.31 86 435.31 86 575.31 86 c 0,30,31
 716.31 86 716.31 86 810.77 199 c 0,32,33
 905.24 312 905.24 312 948 532 c 0,34,35
 967.7 633.34 967.7 633.34 967.7 711.75 c 0,36,37
 967.7 804.36 967.7 804.36 940.23 865 c 0,38,39
 889.5 977 889.5 977 748.5 977 c 0,40,41
 608.5 977 608.5 977 515.37 876 c 128,-1,42
 422.24 775 422.24 775 385.11 584 c 2,43,-1
 364.7 479 l 2,24,25
EndSplineSet
EndChar
StartChar: c
Encoding: 99 99 99
Width: 1147
Flags: W
AnchorPoint: "above" 724 1092 basechar 0
Fore
1011.69 319 m 1,0,1
 939.65 149 939.65 149 811.35 60 c 0,2,3
 683.05 -29 683.05 -29 507.05 -29 c 0,4,5
 275.05 -29 275.05 -29 163.89 124.5 c 0,6,7
 86.91 230.79 86.91 230.79 86.91 385.26 c 0,8,9
 86.91 453.88 86.91 453.88 102.1 532 c 0,10,11
 151.66 787 151.66 787 322.31 939.5 c 0,12,13
 492.95 1092 492.95 1092 724.95 1092 c 0,14,15
 825.95 1092 825.95 1092 921.38 1068.5 c 128,-1,16
 1016.81 1045 1016.81 1045 1108.48 997 c 1,17,-1
 1055.61 725 l 1,18,-1
 948.61 725 l 1,19,20
 949.21 738.55 949.21 738.55 949.21 751.38 c 0,21,22
 949.21 871.19 949.21 871.19 896.77 929 c 0,23,24
 838.71 993 838.71 993 707.71 993 c 0,25,26
 558.71 993 558.71 993 460.26 877.5 c 0,27,28
 361.8 762 361.8 762 317.1 532 c 0,29,30
 296.63 426.7 296.63 426.7 296.63 345.3 c 0,31,32
 296.63 248.89 296.63 248.89 325.34 186 c 0,33,34
 378.29 70 378.29 70 528.29 70 c 0,35,36
 647.29 70 647.29 70 730.34 132 c 0,37,38
 813.4 194 813.4 194 863.69 319 c 1,39,-1
 1011.69 319 l 1,0,1
EndSplineSet
EndChar
StartChar: d
Encoding: 100 100 100
Width: 1311
Flags: W
Fore
1229.05 1556 m 1,0,-1
 926.59 0 l 1,1,-1
 742.59 0 l 1,2,-1
 774.86 166 l 1,3,4
 701.42 66 701.42 66 608.69 18.5 c 0,5,6
 515.95 -29 515.95 -29 392.95 -29 c 0,7,8
 196.95 -29 196.95 -29 102.68 126.5 c 0,9,10
 40.47 229.11 40.47 229.11 40.47 372.87 c 0,11,12
 40.47 446.97 40.47 446.97 57 532 c 0,13,14
 105.6 782 105.6 782 259.72 937 c 0,15,16
 413.85 1092 413.85 1092 610.85 1092 c 0,17,18
 733.85 1092 733.85 1092 808.12 1044.5 c 128,-1,19
 882.39 997 882.39 997 916.95 897 c 1,20,-1
 1024.44 1450 l 1,21,-1
 850.44 1450 l 1,22,-1
 871.05 1556 l 1,23,-1
 1229.05 1556 l 1,0,-1
835.7 479 m 2,24,-1
 856.11 584 l 2,25,26
 871.26 661.93 871.26 661.93 871.26 724.88 c 0,27,28
 871.26 816.21 871.26 816.21 839.37 876 c 0,29,30
 785.5 977 785.5 977 645.5 977 c 0,31,32
 503.5 977 503.5 977 409.23 865 c 0,33,34
 314.96 753 314.96 753 272 532 c 0,35,36
 252.4 431.16 252.4 431.16 252.4 352.8 c 0,37,38
 252.4 260.21 252.4 260.21 279.77 199 c 0,39,40
 330.31 86 330.31 86 472.31 86 c 0,41,42
 612.31 86 612.31 86 705.34 186.5 c 0,43,44
 798.38 287 798.38 287 835.7 479 c 2,24,-1
EndSplineSet
EndChar
StartChar: e
Encoding: 101 101 101
Width: 1212
Flags: W
AnchorPoint: "above" 714 1092 basechar 0
Fore
313.21 512 m 1,0,1
 295.17 422.61 295.17 422.61 294.45 344.86 c 0,2,3
 294.45 243.92 294.45 243.92 329.58 179.5 c 0,4,5
 389.29 70 389.29 70 547.29 70 c 0,6,7
 668.29 70 668.29 70 758.14 133.5 c 0,8,9
 847.98 197 847.98 197 903.28 322 c 1,10,-1
 1051.28 322 l 1,11,12
 973.26 147 973.26 147 837.66 59 c 0,13,14
 702.05 -29 702.05 -29 509.05 -29 c 0,15,16
 276.05 -29 276.05 -29 164.39 124.5 c 0,17,18
 86.96 230.93 86.96 230.93 86.96 385.69 c 0,19,20
 86.96 454.12 86.96 454.12 102.1 532 c 0,21,22
 151.08 784 151.08 784 320.02 938 c 0,23,24
 488.95 1092 488.95 1092 714.95 1092 c 0,25,26
 955.95 1092 955.95 1092 1056.08 943.5 c 0,27,28
 1122.87 844.46 1122.87 844.46 1122.87 685.6 c 0,29,30
 1122.87 606.26 1122.87 606.26 1106.21 512 c 1,31,-1
 313.21 512 l 1,0,1
909.81 618 m 1,32,33
 920.6 684.55 920.6 684.55 920.6 739.39 c 0,34,35
 920.6 837.81 920.6 837.81 885.84 898.5 c 0,36,37
 831.71 993 831.71 993 695.71 993 c 0,38,39
 568.71 993 568.71 993 477.24 898 c 0,40,41
 385.77 803 385.77 803 333.81 618 c 1,42,-1
 909.81 618 l 1,32,33
EndSplineSet
EndChar
StartChar: f
Encoding: 102 102 102
Width: 758
Flags: W
Fore
1020.27 1305 m 1,0,-1
 923.273 1305 l 1,1,2
 927.155 1326.44 927.155 1326.44 927.155 1344.94 c 0,0,0
 927.155 1391.15 927.155 1391.15 902.933 1419 c 128,-1,3
 869.014 1458 869.014 1458 790.014 1458 c 0,4,5
 687.014 1458 687.014 1458 634.031 1401.5 c 128,-1,6
 581.049 1345 581.049 1345 552.863 1200 c 2,7,-1
 526.233 1063 l 1,8,-1
 823.233 1063 l 1,9,-1
 802.435 956 l 1,10,-1
 505.435 956 l 1,11,-1
 315.914 -19 l 2,22,23
 281.314 -197 281.314 -197 171.126 -288 c 128,-1,24
 60.9375 -379 60.9375 -379 -118.062 -379 c 0,25,26
 -185.062 -379 -185.062 -379 -249.73 -367 c 128,-1,27
 -314.397 -355 -314.397 -355 -375.538 -330 c 1,28,-1
 -336.273 -128 l 1,0,-1
 -239.273 -128 l 1,1,2
 -243.155 -149.44 -243.155 -149.44 -243.155 -167.939 c 0,0,0
 -243.155 -214.149 -243.155 -214.149 -218.933 -242 c 128,-1,3
 -185.014 -281 -185.014 -281 -106.014 -281 c 0,4,5
 -3.01367 -281 -3.01367 -281 49.9688 -224.5 c 128,-1,6
 102.951 -168 102.951 -168 131.914 -19 c 2,7,-1
 321.435 956 l 1,18,-1
 145.435 956 l 1,19,-1
 166.233 1063 l 1,20,-1
 342.233 1063 l 1,21,-1
 368.086 1196 l 2,22,23
 402.686 1374 402.686 1374 512.874 1465 c 128,-1,24
 623.062 1556 623.062 1556 802.062 1556 c 0,25,26
 869.062 1556 869.062 1556 933.73 1544 c 128,-1,27
 998.397 1532 998.397 1532 1059.54 1507 c 1,28,-1
 1020.27 1305 l 1,0,-1
EndSplineSet
KernsSLIFO: 8217 151 0 0 8221 151 0 0 8220 38 0 0 46 -73 0 0 45 -73 0 0 44 -73 0 0
EndChar
StartChar: g
Encoding: 103 103 103
Width: 1311
Flags: W
AnchorPoint: "above" 712 1092 basechar 0
Fore
1198.92 956 m 1,0,-1
 1017.56 23 l 2,1,2
 973.05 -206 973.05 -206 822.85 -330.5 c 0,3,4
 672.65 -455 672.65 -455 439.65 -455 c 0,5,6
 334.65 -455 334.65 -455 242.34 -436 c 128,-1,7
 150.03 -417 150.03 -417 69.42 -379 c 1,8,-1
 112.77 -156 l 1,9,-1
 208.77 -156 l 1,10,11
 208.69 -159.86 208.69 -159.86 208.69 -163.63 c 0,12,13
 208.69 -261.78 208.69 -261.78 264.22 -308 c 0,14,15
 321.89 -356 321.89 -356 446.89 -356 c 0,16,17
 608.89 -356 608.89 -356 702.18 -264.5 c 0,18,19
 795.46 -173 795.46 -173 833.56 23 c 2,20,-1
 861.36 166 l 1,21,22
 787.92 66 787.92 66 695.19 18.5 c 0,23,24
 602.45 -29 602.45 -29 479.45 -29 c 0,25,26
 283.45 -29 283.45 -29 189.18 126.5 c 0,27,28
 126.97 229.11 126.97 229.11 126.97 372.87 c 0,29,30
 126.97 446.97 126.97 446.97 143.5 532 c 0,31,32
 192.1 782 192.1 782 346.22 937 c 0,33,34
 500.35 1092 500.35 1092 697.35 1092 c 0,35,36
 820.35 1092 820.35 1092 894.62 1044.5 c 128,-1,37
 968.89 997 968.89 997 1003.45 897 c 1,38,-1
 1035.72 1063 l 1,39,-1
 1395.72 1063 l 1,40,-1
 1374.92 956 l 1,41,-1
 1198.92 956 l 1,0,-1
942.61 584 m 2,42,43
 957.76 661.93 957.76 661.93 957.76 724.87 c 0,44,45
 957.76 816.21 957.76 816.21 925.87 876 c 0,46,47
 872 977 872 977 732 977 c 0,48,49
 590 977 590 977 495.73 865 c 0,50,51
 401.46 753 401.46 753 358.5 532 c 0,52,53
 338.9 431.16 338.9 431.16 338.9 352.8 c 0,54,55
 338.9 260.21 338.9 260.21 366.27 199 c 0,56,57
 416.81 86 416.81 86 558.81 86 c 0,58,59
 698.81 86 698.81 86 791.84 186.5 c 0,60,61
 884.88 287 884.88 287 922.2 479 c 2,62,-1
 942.61 584 l 2,42,43
EndSplineSet
EndChar
StartChar: h
Encoding: 104 104 104
Width: 1319
Flags: W
AnchorPoint: "above" 379.504 1465 basechar 0
Fore
98.77 0 m 1,0,-1
 380.62 1450 l 1,1,-1
 204.62 1450 l 1,2,-1
 225.23 1556 l 1,3,-1
 585.23 1556 l 1,4,-1
 452.66 874 l 1,5,6
 524.65 982 524.65 982 616.84 1037 c 0,7,8
 709.04 1092 709.04 1092 817.04 1092 c 0,9,10
 993.04 1092 993.04 1092 1056.4 991 c 0,11,12
 1094.66 930.03 1094.66 930.03 1094.66 827.87 c 0,13,14
 1094.66 760.81 1094.66 760.81 1078.17 676 c 2,15,-1
 967.38 106 l 1,16,-1
 1131.38 106 l 1,17,-1
 1110.77 0 l 1,18,-1
 761.77 0 l 1,19,-1
 881.9 618 l 2,20,21
 901.99 721.36 901.99 721.36 901.99 790.03 c 0,22,23
 901.99 850.9 901.99 850.9 886.2 884.5 c 0,24,25
 852.6 956 852.6 956 730.6 956 c 0,26,27
 602.6 956 602.6 956 517.52 863 c 0,28,29
 432.45 770 432.45 770 397.85 592 c 2,30,-1
 282.77 0 l 1,31,-1
 98.77 0 l 1,0,-1
EndSplineSet
EndChar
StartChar: i
Encoding: 105 105 105
Width: 655
Flags: W
AnchorPoint: "above" 477.972 1524 basechar 0
Fore
323.31 1393 m 0,0,1
 332.25 1439 332.25 1439 372.36 1473 c 0,2,3
 412.47 1507 412.47 1507 459.47 1507 c 0,4,5
 505.47 1507 505.47 1507 532.36 1473 c 0,6,7
 552.54 1447.48 552.54 1447.48 552.54 1415.21 c 0,8,9
 552.54 1404.48 552.54 1404.48 550.31 1393 c 0,10,11
 541.17 1346 541.17 1346 501.76 1313 c 0,12,13
 462.34 1280 462.34 1280 415.34 1280 c 128,-1,14
 368.34 1280 368.34 1280 341.26 1313 c 0,15,16
 321 1337.68 321 1337.68 321 1370.18 c 0,17,18
 321 1381.14 321 1381.14 323.31 1393 c 0,0,1
308.14 106 m 1,19,-1
 482.14 106 l 1,20,-1
 461.53 0 l 1,21,-1
 103.53 0 l 1,22,-1
 289.36 956 l 1,23,-1
 113.36 956 l 1,24,-1
 134.16 1063 l 1,25,-1
 494.16 1063 l 1,26,-1
 308.14 106 l 1,19,-1
EndSplineSet
Substitution: 0 65534 's001' dotlessi
EndChar
StartChar: j
Encoding: 106 106 106
Width: 635
Flags: W
AnchorPoint: "above" 537.972 1524 basechar 0
Fore
373.53 1393 m 0,0,1
 382.47 1439 382.47 1439 422.58 1473 c 0,2,3
 462.69 1507 462.69 1507 509.69 1507 c 0,4,5
 555.69 1507 555.69 1507 582.58 1473 c 0,6,7
 602.76 1447.48 602.76 1447.48 602.76 1415.21 c 0,8,9
 602.76 1404.48 602.76 1404.48 600.53 1393 c 0,10,11
 591.39 1346 591.39 1346 552.48 1313 c 0,12,13
 513.56 1280 513.56 1280 465.56 1280 c 0,14,15
 418.56 1280 418.56 1280 391.48 1313 c 0,16,17
 371.22 1337.68 371.22 1337.68 371.22 1370.18 c 0,18,19
 371.22 1381.15 371.22 1381.15 373.53 1393 c 0,0,1
333.58 956 m 1,20,-1
 159.58 956 l 1,21,-1
 180.38 1063 l 1,22,-1
 538.38 1063 l 1,23,-1
 311.54 -104 l 2,24,25
 279.66 -268 279.66 -268 163.99 -361.5 c 0,26,27
 48.31 -455 48.31 -455 -122.69 -455 c 0,28,29
 -194.69 -455 -194.69 -455 -256.98 -438.5 c 0,30,31
 -319.27 -422 -319.27 -422 -374.86 -389 c 1,32,-1
 -332.29 -170 l 1,33,-1
 -237.29 -170 l 1,34,35
 -240.28 -194.65 -240.28 -194.65 -240.28 -215.93 c 0,36,37
 -240.28 -277.55 -240.28 -277.55 -215.2 -311 c 0,38,39
 -181.44 -356 -181.44 -356 -99.44 -356 c 0,40,41
 -8.44 -356 -8.44 -356 47.01 -294.5 c 0,42,43
 102.47 -233 102.47 -233 127.54 -104 c 2,44,-1
 333.58 956 l 1,20,-1
EndSplineSet
Substitution: 0 65534 's001' dotlessj
EndChar
StartChar: k
Encoding: 107 107 107
Width: 1241
Flags: W
Fore
675.84 664 m 1,0,-1
 971.38 106 l 1,1,-1
 1124.38 106 l 1,2,-1
 1103.77 0 l 1,3,-1
 808.77 0 l 1,4,-1
 519.32 543 l 1,5,-1
 348.08 408 l 1,6,-1
 268.77 0 l 1,7,-1
 84.77 0 l 1,8,-1
 366.62 1450 l 1,9,-1
 189.62 1450 l 1,10,-1
 210.23 1556 l 1,11,-1
 571.23 1556 l 1,12,-1
 374.32 543 l 1,13,-1
 902.6 956 l 1,14,-1
 749.6 956 l 1,15,-1
 770.4 1063 l 1,16,-1
 1069.4 1063 l 1,17,-1
 1048.6 956 l 1,18,-1
 675.84 664 l 1,0,-1
EndSplineSet
KernsSLIFO: 45 -36 0 0
EndChar
StartChar: l
Encoding: 108 108 108
Width: 655
Flags: W
Fore
289.38 106 m 1,0,-1
 463.38 106 l 1,1,-1
 442.77 0 l 1,2,-1
 84.77 0 l 1,3,-1
 366.62 1450 l 1,4,-1
 189.62 1450 l 1,5,-1
 210.23 1556 l 1,6,-1
 571.23 1556 l 1,7,-1
 289.38 106 l 1,0,-1
EndSplineSet
EndChar
StartChar: m
Encoding: 109 109 109
Width: 1942
Flags: W
Fore
1121.26 856 m 1,0,1
 1197 973 1197 973 1291.07 1032.5 c 0,2,3
 1385.13 1092 1385.13 1092 1495.13 1092 c 0,4,5
 1662.13 1092 1662.13 1092 1724.01 988.5 c 0,6,7
 1761.37 926.02 1761.37 926.02 1761.37 825.09 c 0,8,9
 1761.37 758.83 1761.37 758.83 1745.27 676 c 2,10,-1
 1634.47 106 l 1,11,-1
 1800.47 106 l 1,12,-1
 1779.87 0 l 1,13,-1
 1429.87 0 l 1,14,-1
 1557.19 655 l 2,15,16
 1572.34 732.93 1572.34 732.93 1572.34 789.37 c 0,17,18
 1572.34 850.99 1572.34 850.99 1554.28 887 c 0,19,20
 1519.7 956 1519.7 956 1408.7 956 c 0,21,22
 1285.7 956 1285.7 956 1203.12 863 c 128,-1,23
 1120.54 770 1120.54 770 1085.94 592 c 2,24,-1
 970.87 0 l 1,25,-1
 786.87 0 l 1,26,-1
 915.55 662 l 2,27,28
 930.07 736.7 930.07 736.7 930.07 791.2 c 0,29,30
 930.07 852.71 930.07 852.71 911.58 888.5 c 0,31,32
 876.7 956 876.7 956 765.7 956 c 0,33,34
 642.7 956 642.7 956 560.12 863 c 0,35,36
 477.54 770 477.54 770 442.94 592 c 2,37,-1
 327.87 0 l 1,38,-1
 143.87 0 l 1,39,-1
 330.08 958 l 1,40,-1
 154.09 958 l 1,41,-1
 174.49 1063 l 1,42,-1
 534.49 1063 l 1,43,-1
 497.76 874 l 1,44,45
 569.36 980 569.36 980 659.25 1036 c 0,46,47
 749.13 1092 749.13 1092 849.13 1092 c 0,48,49
 973.13 1092 973.13 1092 1044.18 1030.5 c 0,50,51
 1115.22 969 1115.22 969 1121.26 856 c 1,0,1
EndSplineSet
EndChar
StartChar: n
Encoding: 110 110 110
Width: 1319
Flags: W
AnchorPoint: "above" 714 1092 basechar 0
Fore
143.87 0 m 1,0,-1
 329.7 956 l 1,1,-1
 153.7 956 l 1,2,-1
 174.49 1063 l 1,3,-1
 534.49 1063 l 1,4,-1
 497.76 874 l 1,5,6
 569.75 982 569.75 982 661.94 1037 c 128,-1,7
 754.13 1092 754.13 1092 862.13 1092 c 0,8,9
 1038.13 1092 1038.13 1092 1101.5 991 c 0,10,11
 1139.76 930.027 1139.76 930.027 1139.76 827.871 c 0,12,13
 1139.76 760.809 1139.76 760.809 1123.27 676 c 2,14,-1
 1012.47 106 l 1,15,-1
 1176.47 106 l 1,16,-1
 1155.87 0 l 1,17,-1
 806.87 0 l 1,18,-1
 927 618 l 2,19,20
 947.003 720.917 947.003 720.917 947.003 789.712 c 0,21,22
 947.003 851.264 947.003 851.264 930.99 885.5 c 0,23,24
 897.08 958 897.08 958 776.08 958 c 0,25,26
 648.08 958 648.08 958 562.91 864.5 c 0,27,28
 477.74 771 477.74 771 442.94 592 c 2,29,-1
 327.87 0 l 1,30,-1
 143.87 0 l 1,0,-1
EndSplineSet
EndChar
StartChar: o
Encoding: 111 111 111
Width: 1233
Flags: W
AnchorPoint: "above" 724 1092 basechar 0
Fore
526.29 70 m 0,0,1
 674.29 70 674.29 70 772.54 187 c 0,2,3
 870.78 304 870.78 304 915.1 532 c 0,4,5
 935.313 635.982 935.313 635.982 935.313 716.773 c 0,6,7
 935.313 813.131 935.313 813.131 906.56 876.5 c 0,8,9
 853.71 993 853.71 993 705.71 993 c 128,-1,10
 557.71 993 557.71 993 459.56 876.5 c 0,11,12
 361.42 760 361.42 760 317.1 532 c 0,13,14
 296.97 428.444 296.97 428.444 296.97 347.787 c 0,15,16
 296.97 250.86 296.97 250.86 326.04 187 c 0,17,18
 379.29 70 379.29 70 526.29 70 c 0,0,1
507.05 -29 m 0,19,20
 275.05 -29 275.05 -29 163.89 124.5 c 0,21,22
 86.9123 230.788 86.9123 230.788 86.9123 385.263 c 0,23,24
 86.9123 453.878 86.9123 453.878 102.1 532 c 0,25,26
 151.47 786 151.47 786 321.71 939 c 0,27,28
 491.95 1092 491.95 1092 724.95 1092 c 128,-1,29
 957.95 1092 957.95 1092 1068.71 939 c 0,30,31
 1145.32 833.172 1145.32 833.172 1145.32 679.022 c 0,32,33
 1145.32 610.311 1145.32 610.311 1130.1 532 c 0,34,35
 1080.72 278 1080.72 278 910.39 124.5 c 0,36,37
 740.05 -29 740.05 -29 507.05 -29 c 0,19,20
EndSplineSet
KernsSLIFO: 46 -36 0 0
EndChar
StartChar: p
Encoding: 112 112 112
Width: 1311
Flags: W
Fore
468.79 584 m 2,0,-1
 448.38 479 l 2,1,2
 433.122 400.5 433.122 400.5 433.122 337.296 c 0,3,4
 433.122 245.91 433.122 245.91 465.02 186.5 c 0,5,6
 518.99 86 518.99 86 658.99 86 c 0,7,8
 799.99 86 799.99 86 894.45 199 c 0,9,10
 988.92 312 988.92 312 1031.68 532 c 0,11,12
 1051.38 633.336 1051.38 633.336 1051.38 711.754 c 0,13,14
 1051.38 804.356 1051.38 804.356 1023.91 865 c 0,15,16
 973.18 977 973.18 977 832.18 977 c 0,17,18
 692.18 977 692.18 977 599.05 876 c 0,19,20
 505.92 775 505.92 775 468.79 584 c 2,0,-1
357.1 956 m 1,21,-1
 180.1 956 l 1,22,-1
 200.9 1063 l 1,23,-1
 561.9 1063 l 1,24,-1
 529.63 897 l 1,25,26
 603.07 997 603.07 997 695.8 1044.5 c 0,27,28
 788.53 1092 788.53 1092 911.53 1092 c 0,29,30
 1107.53 1092 1107.53 1092 1201.41 937 c 0,31,32
 1263.26 834.874 1263.26 834.874 1263.26 691.507 c 0,33,34
 1263.26 617.281 1263.26 617.281 1246.68 532 c 0,35,36
 1198.09 282 1198.09 282 1043.86 126.5 c 128,-1,37
 889.63 -29 889.63 -29 693.63 -29 c 0,38,39
 570.63 -29 570.63 -29 496.37 18.5 c 0,40,41
 422.1 66 422.1 66 387.54 166 c 1,42,-1
 272.47 -426 l 1,43,-1
 88.47 -426 l 1,44,-1
 357.1 956 l 1,21,-1
EndSplineSet
EndChar
StartChar: q
Encoding: 113 113 113
Width: 1311
Flags: W
Fore
1196.1 956 m 1,0,-1
 927.47 -426 l 1,1,-1
 743.47 -426 l 1,2,-1
 858.54 166 l 1,3,4
 785.1 66 785.1 66 692.37 18.5 c 0,5,6
 599.63 -29 599.63 -29 476.63 -29 c 0,7,8
 280.63 -29 280.63 -29 186.36 126.5 c 0,9,10
 124.153 229.111 124.153 229.111 124.153 372.871 c 0,11,12
 124.153 446.969 124.153 446.969 140.68 532 c 0,13,14
 189.28 782 189.28 782 343.41 937 c 0,15,16
 497.53 1092 497.53 1092 694.53 1092 c 0,17,18
 817.53 1092 817.53 1092 891.8 1044.5 c 0,19,20
 966.07 997 966.07 997 1000.63 897 c 1,21,-1
 1032.9 1063 l 1,22,-1
 1392.9 1063 l 1,23,-1
 1372.1 956 l 1,24,-1
 1196.1 956 l 1,0,-1
939.79 584 m 2,25,26
 954.94 661.932 954.94 661.932 954.94 724.881 c 0,27,28
 954.94 816.21 954.94 816.21 923.05 876 c 0,29,30
 869.18 977 869.18 977 729.18 977 c 0,31,32
 587.18 977 587.18 977 492.91 865 c 128,-1,33
 398.64 753 398.64 753 355.68 532 c 0,34,35
 336.081 431.162 336.081 431.162 336.081 352.803 c 0,36,37
 336.081 260.206 336.081 260.206 363.45 199 c 0,38,39
 413.99 86 413.99 86 555.99 86 c 0,40,41
 695.99 86 695.99 86 789.02 186.5 c 0,42,43
 882.06 287 882.06 287 919.38 479 c 2,44,-1
 939.79 584 l 2,25,26
EndSplineSet
EndChar
StartChar: r
Encoding: 114 114 114
Width: 979
Flags: W
AnchorPoint: "above" 672 1092 basechar 0
Fore
1079.88 1065 m 1,0,-1
 1028.18 799 l 1,1,-1
 922.18 799 l 1,2,3
 924.745 818.58 924.745 818.58 924.745 835.702 c 0,4,5
 924.745 887.666 924.745 887.666 901.12 917 c 0,6,7
 869.7 956 869.7 956 794.7 956 c 0,8,9
 658.7 956 658.7 956 567.92 862 c 0,10,11
 477.15 768 477.15 768 442.94 592 c 2,12,-1
 327.87 0 l 1,13,-1
 143.87 0 l 1,14,-1
 330.08 958 l 1,15,-1
 154.08 958 l 1,16,-1
 174.49 1063 l 1,17,-1
 534.49 1063 l 1,18,-1
 497.76 874 l 1,19,20
 573.33 985 573.33 985 668.73 1038.5 c 0,21,22
 764.13 1092 764.13 1092 886.13 1092 c 0,23,24
 931.13 1092 931.13 1092 979.27 1085 c 128,-1,25
 1027.41 1078 1027.41 1078 1079.88 1065 c 1,0,-1
EndSplineSet
KernsSLIFO: 46 -225 0 0 44 -225 0 0
EndChar
StartChar: s
Encoding: 115 115 115
Width: 1051
Flags: W
AnchorPoint: "above" 634 1092 basechar 0
Fore
23.16 59 m 1,0,-1
 71.36 307 l 1,1,-1
 177.36 307 l 1,2,3
 172.68 277.87 172.68 277.87 172.68 252.34 c 0,4,5
 172.68 173.56 172.68 173.56 217.26 129 c 0,6,7
 276.29 70 276.29 70 414.29 70 c 0,8,9
 538.29 70 538.29 70 612.33 116.5 c 0,10,11
 686.37 163 686.37 163 703.67 252 c 0,12,13
 707.18 270.06 707.18 270.06 707.18 286.32 c 0,14,15
 707.18 333.09 707.18 333.09 678.14 365 c 0,16,17
 638.99 408 638.99 408 495.52 457 c 1,18,-1
 371.27 502 l 1,19,20
 242.82 546 242.82 546 194.15 612 c 0,21,22
 159.57 658.9 159.57 658.9 159.57 723.97 c 0,23,24
 159.57 750.48 159.57 750.48 165.3 780 c 0,25,26
 193.68 926 193.68 926 316.82 1009 c 0,27,28
 439.95 1092 439.95 1092 628.95 1092 c 0,29,30
 712.95 1092 712.95 1092 801.67 1070 c 0,31,32
 890.4 1048 890.4 1048 981.23 1006 c 1,33,-1
 936.14 774 l 1,34,-1
 830.14 774 l 1,35,36
 833.67 796.68 833.67 796.68 833.67 817.18 c 0,37,38
 833.67 889.77 833.67 889.77 789.43 935 c 0,39,40
 732.71 993 732.71 993 615.71 993 c 0,41,42
 499.71 993 499.71 993 432.24 952 c 128,-1,43
 364.77 911 364.77 911 348.83 829 c 0,44,45
 345.45 811.6 345.45 811.6 345.45 795.99 c 0,46,47
 345.45 751.48 345.45 751.48 372.93 721.5 c 0,48,49
 410.06 681 410.06 681 536.9 639 c 2,50,-1
 674.15 594 l 2,51,52
 816.01 547 816.01 547 868.81 476.5 c 0,53,54
 906.29 426.45 906.29 426.45 906.29 356 c 0,55,56
 906.29 327.2 906.29 327.2 900.03 295 c 0,57,58
 870.68 144 870.68 144 738.36 57.5 c 0,59,60
 606.05 -29 606.05 -29 403.05 -29 c 0,61,62
 300.05 -29 300.05 -29 206.33 -7 c 0,63,64
 112.6 15 112.6 15 23.16 59 c 1,0,-1
EndSplineSet
EndChar
StartChar: t
Encoding: 116 116 116
Width: 823
Flags: W
Fore
274.26 956 m 1,0,-1
 112.26 956 l 1,1,-1
 133.06 1063 l 1,2,-1
 295.06 1063 l 1,3,-1
 359.2 1393 l 1,4,-1
 544.2 1393 l 1,5,-1
 480.06 1063 l 1,6,-1
 826.06 1063 l 1,7,-1
 805.26 956 l 1,8,-1
 459.26 956 l 1,9,-1
 328.05 281 l 2,10,11
 312.7 202.02 312.7 202.02 312.7 156.24 c 0,12,13
 312.7 123.77 312.7 123.77 320.43 108 c 0,14,15
 339.04 70 339.04 70 409.04 70 c 0,16,17
 481.04 70 481.04 70 522.3 112.5 c 0,18,19
 563.56 155 563.56 155 584.03 250 c 1,20,-1
 723.03 250 l 1,21,22
 686.84 105 686.84 105 602.82 38 c 0,23,24
 518.8 -29 518.8 -29 373.8 -29 c 0,25,26
 214.8 -29 214.8 -29 162.5 41.5 c 0,27,28
 130.38 84.8 130.38 84.8 130.38 165.26 c 0,29,30
 130.38 215.8 130.38 215.8 143.05 281 c 2,31,-1
 274.26 956 l 1,0,-1
EndSplineSet
EndChar
StartChar: u
Encoding: 117 117 117
Width: 1319
Flags: W
AnchorPoint: "above" 692 1092 basechar 0
Fore
991.13 1063 m 1,0,-1
 1175.13 1063 l 1,1,-1
 989.11 106 l 1,2,-1
 1163.11 106 l 1,3,-1
 1142.51 0 l 1,4,-1
 784.51 0 l 1,5,-1
 821.05 188 l 1,6,7
 749.44 82 749.44 82 657.66 26.5 c 0,8,9
 565.87 -29 565.87 -29 458.87 -29 c 0,10,11
 281.87 -29 281.87 -29 217.9 71.5 c 0,12,13
 179.22 132.28 179.22 132.28 179.22 234.95 c 0,14,15
 179.22 302.04 179.22 302.04 195.73 387 c 2,16,-1
 306.33 956 l 1,17,-1
 140.33 956 l 1,18,-1
 161.13 1063 l 1,19,-1
 512.13 1063 l 1,20,-1
 391.81 444 l 2,21,22
 371.84 341.28 371.84 341.28 371.84 272.76 c 0,23,24
 371.84 211.88 371.84 211.88 387.61 178 c 0,25,26
 421.11 106 421.11 106 543.11 106 c 0,27,28
 671.11 106 671.11 106 756.38 200 c 128,-1,29
 841.65 294 841.65 294 876.45 473 c 2,30,-1
 991.13 1063 l 1,0,-1
EndSplineSet
EndChar
StartChar: v
Encoding: 118 118 118
Width: 1157
Flags: W
Fore
402.69 0 m 1,0,-1
 197.51 956 l 1,1,-1
 76.51 956 l 1,2,-1
 97.31 1063 l 1,3,-1
 372.31 1063 l 1,4,-1
 552.42 225 l 1,5,-1
 993.52 956 l 1,6,-1
 1014.31 1063 l 1,7,-1
 1135.31 1063 l 1,8,-1
 1114.51 956 l 1,9,-1
 537.69 0 l 1,10,-1
 402.69 0 l 1,0,-1
EndSplineSet
KernsSLIFO: 46 -243 0 0 44 -243 0 0
EndChar
StartChar: w
Encoding: 119 119 119
Width: 1753
Flags: W
AnchorPoint: "above" 978.17 1092 basechar 0
Fore
1086.31 1063 m 1,0,-1
 1196.98 233 l 1,1,-1
 1577.51 956 l 1,2,-1
 1423.51 956 l 1,3,-1
 1444.31 1063 l 1,4,-1
 1711.31 1063 l 1,5,-1
 1690.51 956 l 1,6,-1
 1188.69 0 l 1,7,-1
 1035.69 0 l 1,8,-1
 928.22 795 l 1,9,-1
 510.69 0 l 1,10,-1
 363.69 0 l 1,11,-1
 234.51 956 l 1,12,-1
 115.51 956 l 1,13,-1
 136.31 1063 l 1,14,-1
 410.31 1063 l 1,15,-1
 521.98 233 l 1,16,-1
 957.31 1063 l 1,17,-1
 1086.31 1063 l 1,0,-1
EndSplineSet
KernsSLIFO: 46 -243 0 0 44 -243 0 0
EndChar
StartChar: x
Encoding: 120 120 120
Width: 1155
Flags: W
Fore
130.69 0 m 1,0,-1
 5.69 0 l 1,1,-1
 474.82 510 l 1,2,-1
 238.51 956 l 1,3,-1
 107.51 956 l 1,4,-1
 128.31 1063 l 1,5,-1
 398.31 1063 l 1,6,-1
 618.84 649 l 1,7,-1
 1000.31 1063 l 1,8,-1
 1125.31 1063 l 1,9,-1
 665.12 563 l 1,10,-1
 908.29 106 l 1,11,-1
 1047.29 106 l 1,12,-1
 1026.69 0 l 1,13,-1
 747.69 0 l 1,14,-1
 522.1 424 l 1,15,-1
 130.69 0 l 1,0,-1
EndSplineSet
KernsSLIFO: 45 -36 0 0
EndChar
StartChar: y
Encoding: 121 121 121
Width: 1157
Flags: W
AnchorPoint: "above" 671.17 1092 basechar 0
Fore
1102.53 1063 m 1,0,-1
 1223.53 1063 l 1,1,-1
 439.26 -240 l 2,2,3
 364.28 -364.57 364.28 -364.57 295.31 -409.5 c 0,4,5
 225.47 -455 225.47 -455 114.47 -455 c 0,6,7
 67.47 -455 67.47 -455 19.52 -447 c 128,-1,8
 -28.42 -439 -28.42 -439 -75.51 -424 c 1,9,-1
 -36.05 -221 l 1,10,-1
 57.95 -221 l 1,11,12
 56.21 -237.37 56.21 -237.37 56.21 -251.51 c 0,13,14
 56.21 -296.1 56.21 -296.1 73.5 -318.5 c 0,15,16
 96.26 -348 96.26 -348 156.26 -348 c 0,17,18
 211.26 -348 211.26 -348 250.69 -317.5 c 128,-1,19
 290.12 -287 290.12 -287 345 -195 c 1,20,-1
 449.41 -18 l 1,21,-1
 241.74 956 l 1,22,-1
 120.74 956 l 1,23,-1
 141.53 1063 l 1,24,-1
 416.53 1063 l 1,25,-1
 596.64 225 l 1,26,-1
 1102.53 1063 l 1,0,-1
EndSplineSet
KernsSLIFO: 46 -272 0 0 44 -272 0 0
EndChar
StartChar: z
Encoding: 122 122 122
Width: 1079
Flags: W
Fore
-21.31 0 m 1,0,-1
 -4.6 86 l 1,1,-1
 830.52 956 l 1,2,-1
 303.52 956 l 1,3,-1
 267.75 772 l 1,4,-1
 161.75 772 l 1,5,-1
 218.31 1063 l 1,6,-1
 1088.31 1063 l 1,7,-1
 1071.6 977 l 1,8,-1
 236.29 106 l 1,9,-1
 921.29 106 l 1,10,-1
 900.69 0 l 1,11,-1
 -21.31 0 l 1,0,-1
EndSplineSet
EndChar
StartChar: braceleft
Encoding: 123 123 123
Width: 1303
Flags: W
Fore
883.721 -229 m 1,0,-1
 863.311 -334 l 1,1,-1
 801.311 -334 l 2,2,3
 552.311 -334 552.311 -334 482.194 -260 c 128,-1,4
 412.079 -186 412.079 -186 455.037 35 c 2,5,-1
 505.188 293 l 2,6,7
 534.344 443 534.344 443 491.618 501 c 128,-1,8
 448.893 559 448.893 559 306.893 559 c 2,9,-1
 245.893 559 l 1,10,-1
 266.302 664 l 1,11,-1
 327.302 664 l 2,12,13
 469.302 664 469.302 664 534.576 722 c 128,-1,14
 599.851 780 599.851 780 629.007 930 c 2,15,-1
 679.157 1188 l 2,16,17
 722.115 1409 722.115 1409 820.902 1482.5 c 128,-1,18
 919.689 1556 919.689 1556 1168.69 1556 c 2,19,-1
 1230.69 1556 l 1,20,-1
 1210.47 1452 l 1,21,-1
 1142.47 1452 l 2,22,23
 1001.47 1452 1001.47 1452 949.921 1408 c 128,-1,24
 898.368 1364 898.368 1364 870.961 1223 c 2,25,-1
 815.174 936 l 2,26,27
 784.462 778 784.462 778 721.243 710 c 128,-1,28
 658.025 642 658.025 642 522.194 612 c 1,29,30
 647.585 578 647.585 578 683.562 511 c 128,-1,31
 719.538 444 719.538 444 689.021 287 c 2,32,-1
 633.233 0 l 2,33,34
 605.826 -141 605.826 -141 640.273 -185 c 128,-1,35
 674.721 -229 674.721 -229 815.721 -229 c 2,36,-1
 883.721 -229 l 1,0,-1
EndSplineSet
EndChar
StartChar: bar
Encoding: 124 124 124
Width: 690
Flags: W
Fore
426 1565 m 1,0,-1
 426 -483 l 1,1,-1
 264 -483 l 1,2,-1
 264 1565 l 1,3,-1
 426 1565 l 1,0,-1
EndSplineSet
EndChar
StartChar: braceright
Encoding: 125 125 125
Width: 1303
Flags: W
Fore
92.7207 -229 m 1,0,-1
 162.721 -229 l 2,1,2
 302.721 -229 302.721 -229 353.676 -185.5 c 128,-1,3
 404.632 -142 404.632 -142 432.233 0 c 2,4,-1
 488.021 287 l 2,5,6
 518.538 444 518.538 444 580.562 511 c 128,-1,7
 642.585 578 642.585 578 780.194 612 c 1,8,9
 656.025 642 656.025 642 619.743 710 c 128,-1,10
 583.462 778 583.462 778 614.174 936 c 2,11,-1
 669.961 1223 l 2,12,13
 697.562 1365 697.562 1365 663.519 1408.5 c 128,-1,14
 629.474 1452 629.474 1452 489.474 1452 c 2,15,-1
 419.474 1452 l 1,16,-1
 439.689 1556 l 1,17,-1
 502.689 1556 l 2,18,19
 751.689 1556 751.689 1556 820.902 1482.5 c 128,-1,20
 890.115 1409 890.115 1409 847.157 1188 c 2,21,-1
 797.007 930 l 2,22,23
 767.851 780 767.851 780 810.576 722 c 128,-1,24
 853.302 664 853.302 664 995.302 664 c 2,25,-1
 1057.3 664 l 1,26,-1
 1036.89 559 l 1,27,-1
 974.893 559 l 2,28,29
 832.893 559 832.893 559 767.618 501 c 128,-1,30
 702.344 443 702.344 443 673.188 293 c 2,31,-1
 623.037 35 l 2,32,33
 580.079 -186 580.079 -186 482.194 -260 c 128,-1,34
 384.311 -334 384.311 -334 135.311 -334 c 2,35,-1
 72.3105 -334 l 1,36,-1
 92.7207 -229 l 1,0,-1
EndSplineSet
EndChar
StartChar: asciitilde
Encoding: 126 126 126
Width: 1716
Flags: W
Fore
1499 807 m 1,0,-1
 1499 659 l 1,1,2
 1399 571 1399 571 1309 529 c 128,-1,3
 1219 487 1219 487 1126 487 c 0,4,5
 1030 487 1030 487 856 553 c 2,6,-1
 846 557 l 2,7,8
 835 561 835 561 813 570 c 0,9,10
 666 627 666 627 571 627 c 0,11,12
 479 627 479 627 392.5 590.5 c 128,-1,13
 306 554 306 554 217 477 c 1,14,-1
 217 629 l 1,15,16
 317 716 317 716 406.5 756.5 c 128,-1,17
 496 797 496 797 590 797 c 0,18,19
 686 797 686 797 860 731 c 2,20,-1
 870 727 l 2,21,22
 881 723 881 723 901 715 c 0,23,24
 1046 657 1046 657 1143 657 c 0,25,26
 1235 657 1235 657 1323 694 c 128,-1,27
 1411 731 1411 731 1499 807 c 1,0,-1
EndSplineSet
EndChar
StartChar: exclamdown
Encoding: 161 161 161
Width: 823
Flags: W
Fore
401.071 1389 m 0,0,1
 411.956 1445 411.956 1445 457.439 1483.5 c 128,-1,2
 502.924 1522 502.924 1522 559.924 1522 c 0,3,4
 614.924 1522 614.924 1522 646.343 1483 c 128,-1,5
 677.762 1444 677.762 1444 667.071 1389 c 0,6,7
 656.186 1333 656.186 1333 609.604 1294 c 128,-1,8
 563.023 1255 563.023 1255 508.023 1255 c 0,9,10
 451.023 1255 451.023 1255 420.604 1294 c 128,-1,11
 390.186 1333 390.186 1333 401.071 1389 c 0,0,1
135.076 0 m 1,12,-1
 361.663 821 l 1,13,-1
 410.646 1073 l 1,14,-1
 533.646 1073 l 1,15,-1
 484.663 821 l 1,16,-1
 393.076 0 l 1,17,-1
 135.076 0 l 1,12,-1
EndSplineSet
EndChar
StartChar: cent
Encoding: 162 162 162
Width: 1303
Flags: W
Fore
718.706 991 m 1,0,1
 586.791 976 586.791 976 499.938 861 c 128,-1,2
 413.083 746 413.083 746 371.486 532 c 0,3,4
 329.694 317 329.694 317 371.841 202 c 128,-1,5
 413.986 87 413.986 87 540.071 72 c 1,6,-1
 718.706 991 l 1,0,1
1063.08 319 m 1,7,8
 998.148 165 998.148 165 887.335 78.5 c 128,-1,9
 776.521 -8 776.521 -8 620.827 -27 c 1,10,-1
 568.345 -297 l 1,11,-1
 468.345 -297 l 1,12,-1
 520.827 -27 l 1,13,14
 304.521 -8 304.521 -8 206.178 142 c 128,-1,15
 107.835 292 107.835 292 154.486 532 c 0,16,17
 201.526 774 201.526 774 358.086 923.5 c 128,-1,18
 514.646 1073 514.646 1073 737.95 1090 c 1,19,-1
 789.655 1356 l 1,20,-1
 889.655 1356 l 1,21,-1
 837.95 1090 l 1,22,23
 928.396 1082 928.396 1082 1007.92 1059 c 128,-1,24
 1087.45 1036 1087.45 1036 1159.87 997 c 1,25,-1
 1107 725 l 1,26,-1
 1001 725 l 1,27,28
 1005.91 848 1005.91 848 961.142 913.5 c 128,-1,29
 916.374 979 916.374 979 818.706 991 c 1,30,-1
 640.071 72 l 1,31,32
 732.403 84 732.403 84 802.747 147.5 c 128,-1,33
 873.09 211 873.09 211 915.083 319 c 1,34,-1
 1063.08 319 l 1,7,8
EndSplineSet
EndChar
StartChar: sterling
Encoding: 163 163 163
Width: 1303
Flags: W
Fore
1192.39 1225 m 1,0,-1
 1087.39 1225 l 1,1,2
 1095.85 1320 1095.85 1320 1049.17 1370.5 c 128,-1,3
 1002.49 1421 1002.49 1421 906.485 1421 c 0,4,5
 779.485 1421 779.485 1421 703.921 1343.5 c 128,-1,6
 628.356 1266 628.356 1266 596.479 1102 c 2,7,-1
 539.136 807 l 1,8,-1
 951.136 807 l 1,9,-1
 930.337 700 l 1,10,-1
 518.337 700 l 1,11,-1
 405.791 121 l 1,12,-1
 883.791 121 l 1,13,-1
 927.915 348 l 1,14,-1
 1043.92 348 l 1,15,-1
 976.271 0 l 1,16,-1
 -10.7295 0 l 1,17,-1
 9.875 106 l 1,18,-1
 202.875 106 l 1,19,-1
 318.337 700 l 1,20,-1
 125.337 700 l 1,21,-1
 146.136 807 l 1,22,-1
 339.136 807 l 1,23,-1
 396.479 1102 l 2,24,25
 436.326 1307 436.326 1307 571.527 1413.5 c 128,-1,26
 706.729 1520 706.729 1520 927.729 1520 c 0,27,28
 1012.73 1520 1012.73 1520 1091.3 1507.5 c 128,-1,29
 1169.87 1495 1169.87 1495 1240.01 1470 c 1,30,-1
 1192.39 1225 l 1,0,-1
EndSplineSet
EndChar
StartChar: currency
Encoding: 164 164 164
Width: 1303
Flags: W
Fore
901 985 m 1,0,-1
 1110 1192 l 1,1,-1
 1204 1098 l 1,2,-1
 995 889 l 1,3,4
 1038 829 1038 829 1058.5 768 c 128,-1,5
 1079 707 1079 707 1079 641 c 0,6,7
 1079 572 1079 572 1058.5 513 c 128,-1,8
 1038 454 1038 454 993 397 c 1,9,-1
 1200 190 l 1,10,-1
 1104 96 l 1,11,-1
 897 301 l 1,12,13
 841 257 841 257 781.5 236 c 128,-1,14
 722 215 722 215 653 215 c 0,15,16
 589 215 589 215 526.5 235.5 c 128,-1,17
 464 256 464 256 403 297 c 1,18,-1
 199 92 l 1,19,-1
 104 186 l 1,20,-1
 309 393 l 1,21,22
 268 455 268 455 247.5 516 c 128,-1,23
 227 577 227 577 227 641 c 0,24,25
 227 711 227 711 248 770.5 c 128,-1,26
 269 830 269 830 313 887 c 1,27,-1
 106 1094 l 1,28,-1
 201 1188 l 1,29,-1
 408 981 l 1,30,31
 464 1025 464 1025 524 1046 c 128,-1,32
 584 1067 584 1067 653 1067 c 0,33,34
 719 1067 719 1067 780 1047 c 128,-1,35
 841 1027 841 1027 901 985 c 1,0,-1
922 643 m 0,36,37
 922 755 922 755 844.5 832 c 128,-1,38
 767 909 767 909 653 909 c 0,39,40
 541 909 541 909 463 832 c 128,-1,41
 385 755 385 755 385 643 c 0,42,43
 385 529 385 529 462.5 451 c 128,-1,44
 540 373 540 373 653 373 c 0,45,46
 766 373 766 373 844 451.5 c 128,-1,47
 922 530 922 530 922 643 c 0,36,37
EndSplineSet
EndChar
StartChar: yen
Encoding: 165 165 165
Width: 1303
Flags: W
Fore
214.896 0 m 1,0,-1
 235.499 106 l 1,1,-1
 426.499 106 l 1,2,-1
 497.837 473 l 1,3,-1
 93.8369 473 l 1,4,-1
 114.247 578 l 1,5,-1
 518.247 578 l 1,6,-1
 530.882 643 l 1,7,-1
 476.289 784 l 1,8,-1
 154.289 784 l 1,9,-1
 174.699 889 l 1,10,-1
 437.699 889 l 1,11,-1
 247.307 1386 l 1,12,-1
 108.307 1386 l 1,13,-1
 129.104 1493 l 1,14,-1
 682.104 1493 l 1,15,-1
 661.307 1386 l 1,16,-1
 486.307 1386 l 1,17,-1
 711.9 782 l 1,18,-1
 1168.31 1386 l 1,19,-1
 1001.31 1386 l 1,20,-1
 1022.1 1493 l 1,21,-1
 1454.1 1493 l 1,22,-1
 1433.31 1386 l 1,23,-1
 1291.31 1386 l 1,24,-1
 910.699 889 l 1,25,-1
 1182.7 889 l 1,26,-1
 1162.29 784 l 1,27,-1
 830.289 784 l 1,28,-1
 735.575 662 l 1,29,-1
 719.247 578 l 1,30,-1
 1122.25 578 l 1,31,-1
 1101.84 473 l 1,32,-1
 698.837 473 l 1,33,-1
 627.499 106 l 1,34,-1
 817.499 106 l 1,35,-1
 796.896 0 l 1,36,-1
 214.896 0 l 1,0,-1
EndSplineSet
EndChar
StartChar: brokenbar
Encoding: 166 166 166
Width: 690
Flags: W
Fore
426 408 m 1,0,-1
 426 -350 l 1,1,-1
 264 -350 l 1,2,-1
 264 408 l 1,3,-1
 426 408 l 1,0,-1
426 1432 m 1,4,-1
 426 674 l 1,5,-1
 264 674 l 1,6,-1
 264 1432 l 1,7,-1
 426 1432 l 1,4,-1
EndSplineSet
EndChar
StartChar: section
Encoding: 167 167 167
Width: 1024
Flags: W
Fore
432.163 936 m 1,0,1
 355.222 890 355.222 890 319.654 848.5 c 128,-1,2
 284.088 807 284.088 807 273.786 754 c 0,3,4
 248.128 622 248.128 622 571.668 419 c 2,5,-1
 600.17 401 l 1,6,7
 665.556 439 665.556 439 704.387 487 c 128,-1,8
 743.217 535 743.217 535 754.296 592 c 0,9,10
 768.875 667 768.875 667 712.398 734 c 128,-1,11
 655.922 801 655.922 801 432.163 936 c 1,0,1
984.796 1464 m 1,12,-1
 945.531 1262 l 1,13,-1
 853.531 1262 l 1,14,15
 865.526 1334 865.526 1334 821.593 1375.5 c 128,-1,16
 777.66 1417 777.66 1417 689.66 1417 c 0,17,18
 589.66 1417 589.66 1417 522.732 1368.5 c 128,-1,19
 455.805 1320 455.805 1320 439.672 1237 c 0,20,21
 420.816 1140 420.816 1140 640.187 1003 c 0,22,23
 663.271 988 663.271 988 673.91 981 c 0,24,25
 847.723 872 847.723 872 895.645 797 c 128,-1,26
 943.565 722 943.565 722 924.322 623 c 0,27,28
 905.855 528 905.855 528 841.11 465 c 128,-1,29
 776.364 402 776.364 402 653.812 358 c 1,30,31
 722.676 311 722.676 311 746.93 248 c 128,-1,32
 771.184 185 771.184 185 753.495 94 c 0,33,34
 728.031 -37 728.031 -37 610.675 -116 c 128,-1,35
 493.319 -195 493.319 -195 320.319 -195 c 0,36,37
 230.319 -195 230.319 -195 152.943 -181.5 c 128,-1,38
 75.5674 -168 75.5674 -168 4.2041 -139 c 1,39,-1
 44.8301 70 l 1,40,-1
 136.636 69 l 1,41,42
 123.085 -11 123.085 -11 169.213 -51.5 c 128,-1,43
 215.34 -92 215.34 -92 322.34 -92 c 0,44,45
 426.34 -92 426.34 -92 496.364 -43 c 128,-1,46
 566.39 6 566.39 6 582.717 90 c 0,47,48
 604.683 203 604.683 203 401.368 330 c 0,49,50
 382.701 342 382.701 342 372.867 348 c 0,51,52
 180.582 470 180.582 470 132.16 545 c 128,-1,53
 83.7393 620 83.7393 620 102.982 719 c 0,54,55
 121.254 813 121.254 813 193.181 879.5 c 128,-1,56
 265.106 946 265.106 946 380.133 977 c 1,57,58
 307.657 1026 307.657 1026 280.403 1089 c 128,-1,59
 253.149 1152 253.149 1152 268.505 1231 c 0,60,61
 293.774 1361 293.774 1361 409.228 1440.5 c 128,-1,62
 524.681 1520 524.681 1520 690.681 1520 c 0,63,64
 768.681 1520 768.681 1520 841.96 1506 c 128,-1,65
 915.238 1492 915.238 1492 984.796 1464 c 1,12,-1
EndSplineSet
EndChar
StartChar: dieresis
Encoding: 168 168 168
Width: 1024
Flags: W
Fore
534 1569 m 0,0,1
 582 1569 582 1569 610 1534 c 128,-1,2
 637 1500 637 1500 628 1452 c 0,3,4
 618 1401 618 1401 579 1368 c 128,-1,5
 539 1335 539 1335 488 1335 c 0,6,7
 438 1335 438 1335 412 1368 c 128,-1,8
 385 1401 385 1401 395 1452 c 0,9,10
 404 1500 404 1500 446 1534 c 128,-1,11
 487 1569 487 1569 534 1569 c 0,0,1
924 1569 m 0,12,13
 971 1569 971 1569 999 1534 c 128,-1,14
 1026 1500 1026 1500 1017 1452 c 0,15,16
 1007 1401 1007 1401 968 1368 c 128,-1,17
 928 1335 928 1335 878 1335 c 0,18,19
 827 1335 827 1335 801 1368 c 128,-1,20
 774 1401 774 1401 784 1452 c 0,21,22
 793 1500 793 1500 835 1534 c 128,-1,23
 876 1569 876 1569 924 1569 c 0,12,13
EndSplineSet
LCarets: 0 65535 '    ' 1 0 
Ligature: 0 1 'liga' space uni0308
EndChar
StartChar: copyright
Encoding: 169 169 169
Width: 2048
Flags: W
Fore
1376 573 m 1,0,1
 1349 442 1349 442 1258.5 371.5 c 128,-1,2
 1168 301 1168 301 1026 301 c 0,3,4
 839 301 839 301 727.5 421 c 128,-1,5
 616 541 616 541 616 741 c 0,6,7
 616 942 616 942 728.5 1063 c 128,-1,8
 841 1184 841 1184 1026 1184 c 0,9,10
 1106 1184 1106 1184 1183.5 1165.5 c 128,-1,11
 1261 1147 1261 1147 1348 1108 c 1,12,-1
 1348 895 l 1,13,-1
 1264 895 l 1,14,15
 1247 1004 1247 1004 1190 1055 c 128,-1,16
 1133 1106 1133 1106 1028 1106 c 0,17,18
 909 1106 909 1106 848.5 1014.5 c 128,-1,19
 788 923 788 923 788 741 c 0,20,21
 788 560 788 560 848 469.5 c 128,-1,22
 908 379 908 379 1026 379 c 0,23,24
 1123 379 1123 379 1179.5 426.5 c 128,-1,25
 1236 474 1236 474 1257 573 c 1,26,-1
 1376 573 l 1,0,1
1024 1485 m 0,27,28
 1176 1485 1176 1485 1307.5 1430 c 128,-1,29
 1439 1375 1439 1375 1548 1266 c 0,30,31
 1657 1157 1657 1157 1711 1026 c 128,-1,32
 1765 895 1765 895 1765 741 c 0,33,34
 1765 589 1765 589 1711 458.5 c 128,-1,35
 1657 328 1657 328 1548 219 c 0,36,37
 1439 110 1439 110 1307.5 55 c 128,-1,38
 1176 0 1176 0 1024 0 c 0,39,40
 872 0 872 0 740.5 55 c 128,-1,41
 609 110 609 110 500 219 c 0,42,43
 391 328 391 328 337 458.5 c 128,-1,44
 283 589 283 589 283 741 c 0,45,46
 283 895 283 895 337 1026 c 128,-1,47
 391 1157 391 1157 500 1266 c 0,48,49
 609 1375 609 1375 740.5 1430 c 128,-1,50
 872 1485 872 1485 1024 1485 c 0,27,28
1024 1382 m 0,51,52
 893 1382 893 1382 780 1335 c 128,-1,53
 667 1288 667 1288 573 1194 c 0,54,55
 480 1101 480 1101 432.5 986.5 c 128,-1,56
 385 872 385 872 385 741 c 0,57,58
 385 611 385 611 432.5 498 c 128,-1,59
 480 385 480 385 573 291 c 0,60,61
 667 197 667 197 780 149.5 c 128,-1,62
 893 102 893 102 1024 102 c 0,63,64
 1156 102 1156 102 1269.5 149.5 c 128,-1,65
 1383 197 1383 197 1477 291 c 0,66,67
 1570 384 1570 384 1616.5 497 c 128,-1,68
 1663 610 1663 610 1663 741 c 0,69,70
 1663 874 1663 874 1616 987.5 c 128,-1,71
 1569 1101 1569 1101 1477 1194 c 0,72,73
 1383 1288 1383 1288 1269.5 1335 c 128,-1,74
 1156 1382 1156 1382 1024 1382 c 0,51,52
EndSplineSet
EndChar
StartChar: ordfeminine
Encoding: 170 170 170
Width: 973
Flags: W
Fore
612.78 756 m 17,0,-1
 647.38 934 l 1,1,2
 587.41 857 587.41 857 522.55 813.4 c 0,3,4
 457.13 769.74 457.13 769.74 383.78 756 c 0,5,6
 351.44 749.94 351.44 749.94 323.02 749.94 c 0,7,8
 228.79 749.94 228.79 749.94 177.63 816.53 c 0,9,10
 132.77 874.91 132.77 874.91 132.77 969.29 c 0,11,12
 132.77 1015.04 132.77 1015.04 143.31 1069.25 c 0,13,14
 175.59 1235.3 175.59 1235.3 282.18 1354.41 c 0,15,16
 388.57 1472.5 388.57 1472.5 528.14 1498.64 c 0,17,18
 556.71 1503.99 556.71 1503.99 582.16 1503.99 c 0,19,20
 622.03 1503.99 622.03 1503.99 654.23 1490.85 c 0,21,22
 707.38 1469.13 707.38 1469.13 740.56 1409.65 c 1,23,-1
 756.23 1494 l 1,24,-1
 882.23 1494 l 1,25,-1
 755.89 844 l 1,26,-1
 883.89 844 l 9,27,-1
 866.78 756 l 25,28,-1
 612.78 756 l 17,0,-1
685.1 1129.5 m 2,29,-1
 701.93 1216.09 l 2,30,31
 708.13 1247.96 708.13 1247.96 708.13 1275.09 c 0,32,33
 708.13 1335.56 708.13 1335.56 677.36 1372.48 c 0,34,35
 644.36 1413.15 644.36 1413.15 583.73 1413.15 c 0,36,37
 564.34 1413.15 564.34 1413.15 542.12 1408.99 c 0,38,39
 445.34 1390.86 445.34 1390.86 378.31 1308.61 c 0,40,41
 310.26 1226.17 310.26 1226.17 284.91 1095.78 c 0,42,43
 274.95 1044.51 274.95 1044.51 274.95 1003.77 c 0,44,45
 274.95 940.09 274.95 940.09 299.3 902.15 c 0,46,47
 330.22 853.97 330.22 853.97 395.24 853.97 c 0,48,49
 414.18 853.97 414.18 853.97 436.01 858.06 c 0,50,51
 526.68 875.04 526.68 875.04 596.4 950.92 c 0,52,53
 665.1 1026.61 665.1 1026.61 685.1 1129.5 c 2,29,-1
92.04 639 m 1,54,-1
 790.04 639 l 1,55,-1
 769.82 535 l 1,56,-1
 71.82 535 l 1,57,-1
 92.04 639 l 1,54,-1
EndSplineSet
EndChar
StartChar: guillemotleft
Encoding: 171 171 171
Width: 1253
Flags: W
Fore
1150.22 1059 m 1,0,-1
 1127.87 944 l 1,1,-1
 764 600 l 1,2,-1
 994.133 256 l 1,3,-1
 971.779 141 l 1,4,-1
 584.03 559 l 1,5,-1
 599.97 641 l 1,6,-1
 1150.22 1059 l 1,0,-1
716.221 1059 m 1,7,-1
 693.867 944 l 1,8,-1
 330 600 l 1,9,-1
 560.133 256 l 1,10,-1
 537.779 141 l 1,11,-1
 150.03 559 l 1,12,-1
 165.97 641 l 1,13,-1
 716.221 1059 l 1,7,-1
EndSplineSet
EndChar
StartChar: logicalnot
Encoding: 172 172 172
Width: 1716
Flags: W
Fore
217 862 m 1,0,-1
 1499 862 l 1,1,-1
 1499 287 l 1,2,-1
 1339 287 l 1,3,-1
 1339 700 l 1,4,-1
 217 700 l 1,5,-1
 217 862 l 1,0,-1
EndSplineSet
EndChar
StartChar: sfthyphen
Encoding: 173 173 173
Width: 692
Flags: W
Fore
105.162 627 m 1,0,-1
 617.162 627 l 1,1,-1
 586.838 471 l 1,2,-1
 74.8379 471 l 1,3,-1
 105.162 627 l 1,0,-1
EndSplineSet
EndChar
StartChar: registered
Encoding: 174 174 174
Width: 2048
Flags: W
Fore
895 791 m 1,0,-1
 1020 791 l 2,1,2
 1103 791 1103 791 1144.5 829 c 128,-1,3
 1186 867 1186 867 1186 942 c 0,4,5
 1186 1016 1186 1016 1144 1054 c 128,-1,6
 1102 1092 1102 1092 1020 1092 c 2,7,-1
 895 1092 l 1,8,-1
 895 791 l 1,0,-1
1141 754 m 1,9,10
 1183 740 1183 740 1212.5 714.5 c 128,-1,11
 1242 689 1242 689 1262 649 c 2,12,-1
 1378 420 l 1,13,-1
 1454 420 l 1,14,-1
 1454 352 l 1,15,-1
 1264 352 l 1,16,-1
 1133 606 l 1,17,18
 1098 676 1098 676 1067 699.5 c 128,-1,19
 1036 723 1036 723 987 723 c 2,20,-1
 895 723 l 1,21,-1
 895 420 l 1,22,-1
 979 420 l 1,23,-1
 979 352 l 1,24,-1
 662 352 l 1,25,-1
 662 420 l 1,26,-1
 745 420 l 1,27,-1
 745 1092 l 1,28,-1
 662 1092 l 1,29,-1
 662 1159 l 1,30,-1
 1077 1159 l 2,31,32
 1205 1159 1205 1159 1270 1103 c 128,-1,33
 1335 1047 1335 1047 1335 938 c 0,34,35
 1335 855 1335 855 1287 809.5 c 128,-1,36
 1239 764 1239 764 1141 754 c 1,9,10
1024 1382 m 0,37,38
 893 1382 893 1382 780 1335 c 128,-1,39
 667 1288 667 1288 573 1194 c 0,40,41
 480 1101 480 1101 432.5 986.5 c 128,-1,42
 385 872 385 872 385 741 c 0,43,44
 385 611 385 611 432.5 498 c 128,-1,45
 480 385 480 385 573 291 c 0,46,47
 667 197 667 197 780 149.5 c 128,-1,48
 893 102 893 102 1024 102 c 0,49,50
 1156 102 1156 102 1269.5 149.5 c 128,-1,51
 1383 197 1383 197 1477 291 c 0,52,53
 1570 384 1570 384 1616.5 497 c 128,-1,54
 1663 610 1663 610 1663 741 c 0,55,56
 1663 874 1663 874 1616 987.5 c 128,-1,57
 1569 1101 1569 1101 1477 1194 c 0,58,59
 1383 1288 1383 1288 1269.5 1335 c 128,-1,60
 1156 1382 1156 1382 1024 1382 c 0,37,38
1024 1485 m 0,61,62
 1176 1485 1176 1485 1307.5 1430 c 128,-1,63
 1439 1375 1439 1375 1548 1266 c 0,64,65
 1657 1157 1657 1157 1711 1026 c 128,-1,66
 1765 895 1765 895 1765 741 c 0,67,68
 1765 589 1765 589 1711 458.5 c 128,-1,69
 1657 328 1657 328 1548 219 c 0,70,71
 1439 110 1439 110 1307.5 55 c 128,-1,72
 1176 0 1176 0 1024 0 c 0,73,74
 872 0 872 0 740.5 55 c 128,-1,75
 609 110 609 110 500 219 c 0,76,77
 391 328 391 328 337 458.5 c 128,-1,78
 283 589 283 589 283 741 c 0,79,80
 283 895 283 895 337 1026 c 128,-1,81
 391 1157 391 1157 500 1266 c 0,82,83
 609 1375 609 1375 740.5 1430 c 128,-1,84
 872 1485 872 1485 1024 1485 c 0,61,62
EndSplineSet
EndChar
StartChar: macron
Encoding: 175 175 175
Width: 1024
Flags: W
Fore
396 1526 m 1,0,-1
 994 1526 l 1,1,-1
 966 1378 l 1,2,-1
 368 1378 l 1,3,-1
 396 1526 l 1,0,-1
EndSplineSet
LCarets: 0 65535 '    ' 1 0 
Ligature: 0 1 'liga' space uni0304
EndChar
StartChar: degree
Encoding: 176 176 176
Width: 1024
Flags: W
Fore
512 1382 m 0,0,1
 436 1382 436 1382 384 1329.5 c 128,-1,2
 332 1277 332 1277 332 1200 c 0,3,4
 332 1124 332 1124 383.5 1073 c 128,-1,5
 435 1022 435 1022 512 1022 c 0,6,7
 588 1022 588 1022 640 1073.5 c 128,-1,8
 692 1125 692 1125 692 1200 c 0,9,10
 692 1275 692 1275 639 1328.5 c 128,-1,11
 586 1382 586 1382 512 1382 c 0,0,1
512 1520 m 0,12,13
 576 1520 576 1520 635 1495.5 c 128,-1,14
 694 1471 694 1471 737 1425 c 1,15,16
 783 1380 783 1380 806 1323 c 128,-1,17
 829 1266 829 1266 829 1200 c 0,18,19
 829 1068 829 1068 736.5 976.5 c 128,-1,20
 644 885 644 885 510 885 c 0,21,22
 375 885 375 885 285 975 c 128,-1,23
 195 1065 195 1065 195 1200 c 0,24,25
 195 1334 195 1334 287 1427 c 128,-1,26
 379 1520 379 1520 512 1520 c 0,12,13
EndSplineSet
EndChar
StartChar: plusminus
Encoding: 177 177 177
Width: 1716
Flags: W
Fore
938 1284 m 1,0,-1
 938 893 l 1,1,-1
 1499 893 l 1,2,-1
 1499 731 l 1,3,-1
 938 731 l 1,4,-1
 938 340 l 1,5,-1
 778 340 l 1,6,-1
 778 731 l 1,7,-1
 217 731 l 1,8,-1
 217 893 l 1,9,-1
 778 893 l 1,10,-1
 778 1284 l 1,11,-1
 938 1284 l 1,0,-1
217 160 m 1,12,-1
 1499 160 l 1,13,-1
 1499 0 l 1,14,-1
 217 0 l 1,15,-1
 217 160 l 1,12,-1
EndSplineSet
EndChar
StartChar: twosuperior
Encoding: 178 178 178
Width: 821
Flags: W
Fore
209.265 1296 m 1,0,-1
 139.265 1296 l 1,1,-1
 169.977 1454 l 1,2,3
 242.197 1486 242.197 1486 315.502 1503 c 128,-1,4
 388.806 1520 388.806 1520 457.806 1520 c 0,5,6
 595.806 1520 595.806 1520 668.477 1454 c 128,-1,7
 741.147 1388 741.147 1388 720.933 1284 c 0,8,9
 697.218 1162 697.218 1162 469.396 988 c 2,10,-1
 447.091 971 l 1,11,-1
 167.3 756 l 1,12,-1
 552.3 756 l 1,13,-1
 573.293 864 l 1,14,-1
 647.293 864 l 1,15,-1
 609.194 668 l 1,16,-1
 7.19434 668 l 1,17,-1
 21.7725 743 l 1,18,-1
 356.146 997 l 2,19,20
 457.112 1074 457.112 1074 505.97 1135 c 128,-1,21
 554.827 1196 554.827 1196 567.656 1262 c 0,22,23
 584.178 1347 584.178 1347 545.3 1396.5 c 128,-1,24
 506.422 1446 506.422 1446 422.422 1446 c 0,25,26
 344.422 1446 344.422 1446 290.035 1408 c 128,-1,27
 235.649 1370 235.649 1370 209.265 1296 c 1,0,-1
EndSplineSet
EndChar
StartChar: threesuperior
Encoding: 179 179 179
Width: 821
Flags: W
Fore
199.156 1468 m 1,0,1
 277.21 1494 277.21 1494 346.737 1507 c 128,-1,2
 416.264 1520 416.264 1520 475.264 1520 c 0,3,4
 613.264 1520 613.264 1520 677.268 1466 c 128,-1,5
 741.271 1412 741.271 1412 722.027 1313 c 0,6,7
 708.032 1241 708.032 1241 645.312 1191 c 128,-1,8
 582.594 1141 582.594 1141 484.289 1124 c 1,9,10
 600.179 1108 600.179 1108 649.113 1048.5 c 128,-1,11
 698.048 989 698.048 989 678.61 889 c 0,12,13
 656.45 775 656.45 775 557.094 714 c 128,-1,14
 457.736 653 457.736 653 294.736 653 c 0,15,16
 222.736 653 222.736 653 155.957 667 c 128,-1,17
 89.1787 681 89.1787 681 26.6211 709 c 1,18,-1
 59.666 879 l 1,19,-1
 129.472 878 l 1,20,21
 120.088 804 120.088 804 161.604 765.5 c 128,-1,22
 203.12 727 203.12 727 295.12 727 c 0,23,24
 389.12 727 389.12 727 448.673 771 c 128,-1,25
 508.226 815 508.226 815 524.165 897 c 0,26,27
 542.242 990 542.242 990 500.476 1037.5 c 128,-1,28
 458.708 1085 458.708 1085 357.708 1085 c 2,29,-1
 304.708 1085 l 1,30,-1
 319.093 1159 l 1,31,-1
 346.093 1159 l 2,32,33
 443.093 1159 443.093 1159 499.784 1196 c 128,-1,34
 556.477 1233 556.477 1233 570.861 1307 c 0,35,36
 583.885 1374 583.885 1374 550.382 1410 c 128,-1,37
 516.88 1446 516.88 1446 440.88 1446 c 0,38,39
 358.88 1446 358.88 1446 309.159 1414 c 128,-1,40
 259.439 1382 259.439 1382 239.805 1317 c 1,41,-1
 169.805 1317 l 1,42,-1
 199.156 1468 l 1,0,1
EndSplineSet
EndChar
StartChar: acute
Encoding: 180 180 180
Width: 1024
Flags: W
Fore
858 1638 m 1,0,-1
 1057 1638 l 1,1,-1
 643 1262 l 1,2,-1
 526 1262 l 1,3,-1
 858 1638 l 1,0,-1
EndSplineSet
LCarets: 0 65535 '    ' 1 0 
Ligature: 0 1 'liga' space acutecomb
EndChar
StartChar: mu
Encoding: 181 181 181
Width: 1331
Flags: W
Fore
1043.72 1063 m 1,0,-1
 1227.72 1063 l 1,1,-1
 1041.31 104 l 1,2,-1
 1215.31 104 l 1,3,-1
 1195.09 0 l 1,4,-1
 837.09 0 l 1,5,-1
 873.63 188 l 1,6,7
 801.03 82 801.03 82 716.74 26.5 c 0,8,9
 632.45 -29 632.45 -29 542.45 -29 c 0,10,11
 485.45 -29 485.45 -29 441.95 -11 c 0,12,13
 398.45 7 398.45 7 366.45 43 c 1,14,-1
 275.28 -426 l 1,15,-1
 91.28 -426 l 1,16,-1
 359.92 956 l 1,17,-1
 193.92 956 l 1,18,-1
 214.72 1063 l 1,19,-1
 564.72 1063 l 1,20,-1
 444.39 444 l 2,21,22
 424.57 341.99 424.57 341.99 424.57 273.71 c 0,23,24
 424.57 212.14 424.57 212.14 440.69 178 c 0,25,26
 474.69 106 474.69 106 595.69 106 c 0,27,28
 723.69 106 723.69 106 808.97 200 c 0,29,30
 894.24 294 894.24 294 929.03 473 c 2,31,-1
 1043.72 1063 l 1,0,-1
EndSplineSet
EndChar
StartChar: paragraph
Encoding: 182 182 182
Width: 1303
Flags: W
Fore
797.251 1493 m 2,0,-1
 1335.25 1493 l 1,1,-1
 1314.45 1386 l 1,2,-1
 1196.45 1386 l 1,3,-1
 888.749 -197 l 1,4,-1
 781.749 -197 l 1,5,-1
 1089.45 1386 l 1,6,-1
 858.453 1386 l 1,7,-1
 550.749 -197 l 1,8,-1
 443.749 -197 l 1,9,-1
 608.194 649 l 1,10,11
 396.499 666 396.499 666 300.478 776.5 c 128,-1,12
 204.457 887 204.457 887 240.223 1071 c 0,13,14
 277.155 1261 277.155 1261 429.703 1377 c 128,-1,15
 582.251 1493 582.251 1493 797.251 1493 c 2,0,-1
EndSplineSet
EndChar
StartChar: periodcentered
Encoding: 183 183 183
Width: 651
Flags: W
Fore
190 711 m 0,0,1
 200.886 767 200.886 767 246.869 805.5 c 128,-1,2
 292.853 844 292.853 844 349.853 844 c 0,3,4
 404.853 844 404.853 844 436.271 805 c 128,-1,5
 467.691 766 467.691 766 457 711 c 0,6,7
 446.114 655 446.114 655 399.631 616.5 c 128,-1,8
 353.147 578 353.147 578 298.147 578 c 0,9,10
 241.147 578 241.147 578 210.034 616 c 128,-1,11
 178.92 654 178.92 654 190 711 c 0,0,1
EndSplineSet
EndChar
StartChar: cedilla
Encoding: 184 184 184
Width: 1024
Flags: W
Fore
616.39 0 m 1,0,1
 667.95 -64 667.95 -64 688.564 -120 c 128,-1,2
 709.179 -176 709.179 -176 699.654 -225 c 0,3,4
 683.91 -306 683.91 -306 612.26 -350.5 c 128,-1,5
 540.61 -395 540.61 -395 428.61 -395 c 0,6,7
 386.61 -395 386.61 -395 343.776 -389 c 128,-1,8
 300.942 -383 300.942 -383 257.275 -371 c 1,9,-1
 282.739 -240 l 1,10,11
 320.435 -257 320.435 -257 358.282 -265.5 c 128,-1,12
 396.13 -274 396.13 -274 431.13 -274 c 0,13,14
 488.13 -274 488.13 -274 526.281 -247.5 c 128,-1,15
 564.432 -221 564.432 -221 573.179 -176 c 0,16,17
 578.622 -148 578.622 -148 565.175 -104 c 128,-1,18
 551.728 -60 551.728 -60 519.39 0 c 1,19,-1
 616.39 0 l 1,0,1
EndSplineSet
Ligature: 0 1 'liga' space uni0327
EndChar
StartChar: onesuperior
Encoding: 185 185 185
Width: 821
Flags: W
Fore
94.8467 668 m 1,0,-1
 111.174 752 l 1,1,-1
 283.174 752 l 1,2,-1
 406.411 1386 l 1,3,-1
 184.807 1280 l 1,4,-1
 203.079 1374 l 1,5,-1
 468.153 1503 l 1,6,-1
 570.153 1503 l 1,7,-1
 424.174 752 l 1,8,-1
 597.174 752 l 1,9,-1
 580.847 668 l 1,10,-1
 94.8467 668 l 1,0,-1
EndSplineSet
EndChar
StartChar: ordmasculine
Encoding: 186 186 186
Width: 963
Flags: W
Fore
439.306 813 m 0,0,1
 545.306 813 545.306 813 614.259 892.5 c 128,-1,2
 683.212 972 683.212 972 713.535 1128 c 0,3,4
 743.858 1284 743.858 1284 705.409 1364 c 128,-1,5
 666.959 1444 666.959 1444 561.959 1444 c 0,6,7
 457.959 1444 457.959 1444 387.715 1363 c 128,-1,8
 317.47 1282 317.47 1282 287.535 1128 c 0,9,10
 257.406 973 257.406 973 295.855 893 c 128,-1,11
 334.306 813 334.306 813 439.306 813 c 0,0,1
424.532 737 m 0,12,13
 249.532 737 249.532 737 164.429 844.5 c 128,-1,14
 79.3242 952 79.3242 952 113.535 1128 c 0,15,16
 147.94 1305 147.94 1305 274.836 1412.5 c 128,-1,17
 401.732 1520 401.732 1520 576.732 1520 c 0,18,19
 751.732 1520 751.732 1520 836.836 1412.5 c 128,-1,20
 921.94 1305 921.94 1305 887.535 1128 c 0,21,22
 853.13 951 853.13 951 726.831 844 c 128,-1,23
 600.532 737 600.532 737 424.532 737 c 0,12,13
61.4834 639 m 1,24,-1
 749.483 639 l 1,25,-1
 729.268 535 l 1,26,-1
 41.2676 535 l 1,27,-1
 61.4834 639 l 1,24,-1
EndSplineSet
EndChar
StartChar: guillemotright
Encoding: 187 187 187
Width: 1253
Flags: W
Fore
716.221 1059 m 1,0,-1
 1103.97 641 l 1,1,-1
 1088.03 559 l 1,2,-1
 537.779 141 l 1,3,-1
 560.133 256 l 1,4,-1
 924 600 l 1,5,-1
 693.867 944 l 1,6,-1
 716.221 1059 l 1,0,-1
282.221 1059 m 1,7,-1
 669.97 641 l 1,8,-1
 654.03 559 l 1,9,-1
 103.779 141 l 1,10,-1
 126.133 256 l 1,11,-1
 489 600 l 1,12,-1
 259.867 944 l 1,13,-1
 282.221 1059 l 1,7,-1
EndSplineSet
EndChar
StartChar: questiondown
Encoding: 191 191 191
Width: 1098
Flags: W
Fore
902.695 1389 m 0,0,1
 891.81 1333 891.81 1333 845.729 1294 c 128,-1,2
 799.648 1255 799.648 1255 743.648 1255 c 0,3,4
 688.648 1255 688.648 1255 657.229 1294 c 128,-1,5
 625.81 1333 625.81 1333 636.695 1389 c 0,6,7
 647.386 1444 647.386 1444 693.967 1483 c 128,-1,8
 740.548 1522 740.548 1522 795.548 1522 c 0,9,10
 852.548 1522 852.548 1522 883.063 1483.5 c 128,-1,11
 913.58 1445 913.58 1445 902.695 1389 c 0,0,1
866.53 66 m 1,12,13
 751.394 19 751.394 19 651.923 -4 c 128,-1,14
 552.452 -27 552.452 -27 467.452 -27 c 0,15,16
 246.452 -27 246.452 -27 138.251 80 c 128,-1,17
 30.0498 187 30.0498 187 65.4268 369 c 0,18,19
 101.582 555 101.582 555 235.519 673 c 128,-1,20
 369.455 791 369.455 791 602.369 842 c 1,21,-1
 651.741 1096 l 1,22,-1
 774.741 1096 l 1,23,-1
 710.984 768 l 1,24,25
 525.626 725 525.626 725 415.994 624 c 128,-1,26
 306.361 523 306.361 523 276.038 367 c 0,27,28
 249.408 230 249.408 230 307.552 151 c 128,-1,29
 365.696 72 365.696 72 491.696 72 c 0,30,31
 604.696 72 604.696 72 690.428 137.5 c 128,-1,32
 776.16 203 776.16 203 821.068 326 c 1,33,-1
 917.068 326 l 1,34,-1
 866.53 66 l 1,12,13
EndSplineSet
EndChar
StartChar: Aring
Encoding: 197 197 197
Width: 1479
Flags: W
Fore
1018.3 1626 m 0,0,1
 1030.55 1689 1030.55 1689 994.7 1733.5 c 128,-1,2
 958.85 1778 958.85 1778 895.85 1778 c 0,3,4
 831.85 1778 831.85 1778 779.895 1734.5 c 128,-1,5
 727.938 1691 727.938 1691 715.304 1626 c 0,6,7
 703.058 1563 703.058 1563 738.005 1519 c 128,-1,8
 772.952 1475 772.952 1475 836.952 1475 c 0,9,10
 899.952 1475 899.952 1475 953.005 1519 c 128,-1,11
 1006.06 1563 1006.06 1563 1018.3 1626 c 0,0,1
330.401 541 m 1,12,-1
 876.401 541 l 1,13,-1
 742.411 1251 l 1,14,-1
 330.401 541 l 1,12,-1
-196.759 0 m 1,15,-1
 -176.154 106 l 1,16,-1
 -45.1543 106 l 1,17,-1
 692.264 1384 l 1,18,19
 627.456 1421 627.456 1421 601.813 1482 c 128,-1,20
 576.17 1543 576.17 1543 592.304 1626 c 0,21,22
 614.463 1740 614.463 1740 710.111 1820.5 c 128,-1,23
 805.759 1901 805.759 1901 919.759 1901 c 0,24,25
 1033.76 1901 1033.76 1901 1098.61 1820.5 c 128,-1,26
 1163.46 1740 1163.46 1740 1141.3 1626 c 0,27,28
 1125.75 1546 1125.75 1546 1074.41 1482.5 c 128,-1,29
 1023.07 1419 1023.07 1419 944.264 1384 c 1,30,-1
 1187.85 106 l 1,31,-1
 1334.85 106 l 1,32,-1
 1314.24 0 l 1,33,-1
 771.241 0 l 1,34,-1
 791.846 106 l 1,35,-1
 957.846 106 l 1,36,-1
 896.603 434 l 1,37,-1
 268.603 434 l 1,38,-1
 79.8457 106 l 1,39,-1
 243.846 106 l 1,40,-1
 223.241 0 l 1,41,-1
 -196.759 0 l 1,15,-1
EndSplineSet
LCarets: 0 65535 '    ' 1 0 
Ligature: 0 0 'liga' A uni030A
EndChar
StartChar: AE
Encoding: 198 198 198
Width: 2050
Flags: W
Fore
386.055 541 m 1,0,-1
 875.055 541 l 1,1,-1
 1039.31 1386 l 1,2,-1
 939.307 1386 l 1,3,-1
 386.055 541 l 1,0,-1
579.896 0 m 1,4,-1
 600.499 106 l 1,5,-1
 790.499 106 l 1,6,-1
 854.256 434 l 1,7,-1
 316.256 434 l 1,8,-1
 100.499 106 l 1,9,-1
 264.499 106 l 1,10,-1
 243.896 0 l 1,11,-1
 -180.104 0 l 1,12,-1
 -159.501 106 l 1,13,-1
 -28.501 106 l 1,14,-1
 810.307 1386 l 1,15,-1
 595.307 1386 l 1,16,-1
 616.104 1493 l 1,17,-1
 2072.1 1493 l 1,18,-1
 2007.57 1161 l 1,19,-1
 1884.57 1161 l 1,20,-1
 1925.2 1370 l 1,21,-1
 1237.2 1370 l 1,22,-1
 1140.01 870 l 1,23,-1
 1632.01 870 l 1,24,-1
 1668.36 1057 l 1,25,-1
 1791.36 1057 l 1,26,-1
 1694.94 561 l 1,27,-1
 1571.94 561 l 1,28,-1
 1608.29 748 l 1,29,-1
 1116.29 748 l 1,30,-1
 994.804 123 l 1,31,-1
 1699.8 123 l 1,32,-1
 1740.43 332 l 1,33,-1
 1863.43 332 l 1,34,-1
 1798.9 0 l 1,35,-1
 579.896 0 l 1,4,-1
EndSplineSet
KernsSLIFO: 45 38 0 0
EndChar
StartChar: Eth
Encoding: 208 208 208
Width: 1653
Flags: W
Fore
389.499 106 m 1,0,-1
 577.499 106 l 2,1,2
 868.499 106 868.499 106 1056.77 272 c 128,-1,3
 1245.03 438 1245.03 438 1305.29 748 c 0,4,5
 1365.55 1058 1365.55 1058 1241.93 1222 c 128,-1,6
 1118.31 1386 1118.31 1386 826.307 1386 c 2,7,-1
 638.307 1386 l 1,8,-1
 532.952 844 l 1,9,-1
 868.952 844 l 1,10,-1
 844.654 719 l 1,11,-1
 508.654 719 l 1,12,-1
 389.499 106 l 1,0,-1
-22.1045 0 m 1,13,-1
 -1.50098 106 l 1,14,-1
 188.499 106 l 1,15,-1
 307.654 719 l 1,16,-1
 107.654 719 l 1,17,-1
 131.952 844 l 1,18,-1
 331.952 844 l 1,19,-1
 437.307 1386 l 1,20,-1
 247.307 1386 l 1,21,-1
 268.104 1493 l 1,22,-1
 862.104 1493 l 2,23,24
 1248.1 1493 1248.1 1493 1425.31 1296 c 128,-1,25
 1602.52 1099 1602.52 1099 1534.29 748 c 0,26,27
 1465.87 396 1465.87 396 1211.38 198 c 128,-1,28
 956.896 0 956.896 0 571.896 0 c 2,29,-1
 -22.1045 0 l 1,13,-1
EndSplineSet
KernsSLIFO: 221 -36 0 0 193 -36 0 0 194 -36 0 0 376 -36 0 0 195 -36 0 0 192 -36 0 0 196 -36 0 0 89 -36 0 0 86 -36 0 0 65 -36 0 0 46 -73 0 0 45 75 0 0 44 -73 0 0
EndChar
StartChar: multiply
Encoding: 215 215 215
Width: 1716
Flags: W
Fore
1434 1104 m 1,0,-1
 971 641 l 1,1,-1
 1434 180 l 1,2,-1
 1319 68 l 1,3,-1
 858 528 l 1,4,-1
 397 68 l 1,5,-1
 283 180 l 1,6,-1
 743 641 l 1,7,-1
 283 1104 l 1,8,-1
 397 1217 l 1,9,-1
 858 756 l 1,10,-1
 1319 1217 l 1,11,-1
 1434 1104 l 1,0,-1
EndSplineSet
EndChar
StartChar: Oslash
Encoding: 216 216 216
Width: 1679
Flags: W
Fore
1309.73 1239 m 1,0,1
 1261.84 1327 1261.84 1327 1177.7 1370 c 128,-1,2
 1093.55 1413 1093.55 1413 969.555 1413 c 0,3,4
 723.555 1413 723.555 1413 565.802 1244.5 c 128,-1,5
 408.048 1076 408.048 1076 343.708 745 c 0,6,7
 320.577 626 320.577 626 317.819 529.5 c 128,-1,8
 315.062 433 315.062 433 333.317 352 c 1,9,-1
 1309.73 1239 l 1,0,1
367.656 256 m 1,10,11
 414.356 167 414.356 167 499.707 122.5 c 128,-1,12
 585.057 78 585.057 78 710.057 78 c 0,13,14
 955.057 78 955.057 78 1112.81 246.5 c 128,-1,15
 1270.56 415 1270.56 415 1334.71 745 c 0,16,17
 1357.45 862 1357.45 862 1360.1 960.5 c 128,-1,18
 1362.74 1059 1362.74 1059 1344.68 1141 c 1,19,-1
 367.656 256 l 1,10,11
1493.92 1276 m 1,20,21
 1559.93 1168 1559.93 1168 1577.87 1036.5 c 128,-1,22
 1595.81 905 1595.81 905 1564.71 745 c 0,23,24
 1497.65 400 1497.65 400 1255.45 185.5 c 128,-1,25
 1013.26 -29 1013.26 -29 689.258 -29 c 0,26,27
 548.258 -29 548.258 -29 437.616 14 c 128,-1,28
 326.975 57 326.975 57 242.691 143 c 1,29,-1
 21.8154 -57 l 1,30,-1
 -42.7725 12 l 1,31,-1
 184.465 219 l 1,32,33
 117.874 324 117.874 324 100.741 454.5 c 128,-1,34
 83.6074 585 83.6074 585 114.708 745 c 0,35,36
 181.964 1091 181.964 1091 424.658 1305.5 c 128,-1,37
 667.354 1520 667.354 1520 990.354 1520 c 0,38,39
 1131.35 1520 1131.35 1520 1243.09 1477.5 c 128,-1,40
 1354.83 1435 1354.83 1435 1434.7 1352 c 1,41,-1
 1651.18 1550 l 1,42,-1
 1717.38 1479 l 1,43,-1
 1493.92 1276 l 1,20,21
EndSplineSet
KernsSLIFO: 88 -36 0 0 86 -36 0 0 46 -120 0 0 45 75 0 0 44 -120 0 0
EndChar
StartChar: Thorn
Encoding: 222 222 222
Width: 1384
Flags: W
Fore
445.256 434 m 1,0,-1
 709.256 434 l 2,1,2
 858.256 434 858.256 434 951.903 514.5 c 128,-1,3
 1045.55 595 1045.55 595 1075.29 748 c 0,4,5
 1104.84 900 1104.84 900 1042.49 980.5 c 128,-1,6
 980.133 1061 980.133 1061 831.133 1061 c 2,7,-1
 567.133 1061 l 1,8,-1
 445.256 434 l 1,0,-1
-32.1045 0 m 1,9,-1
 -11.501 106 l 1,10,-1
 178.499 106 l 1,11,-1
 427.307 1386 l 1,12,-1
 237.307 1386 l 1,13,-1
 258.104 1493 l 1,14,-1
 882.104 1493 l 1,15,-1
 861.307 1386 l 1,16,-1
 630.307 1386 l 1,17,-1
 587.737 1167 l 1,18,-1
 900.737 1167 l 2,19,20
 1124.74 1167 1124.74 1167 1233.67 1053.5 c 128,-1,21
 1342.61 940 1342.61 940 1305.29 748 c 0,22,23
 1267.58 554 1267.58 554 1113.92 440 c 128,-1,24
 960.263 326 960.263 326 737.263 326 c 2,25,-1
 424.263 326 l 1,26,-1
 381.499 106 l 1,27,-1
 612.499 106 l 1,28,-1
 591.896 0 l 1,29,-1
 -32.1045 0 l 1,9,-1
EndSplineSet
KernsSLIFO: 46 -339 0 0 45 38 0 0 44 -339 0 0
EndChar
StartChar: germandbls
Encoding: 223 223 223
Width: 1368
Flags: W
Fore
1026.79 1210 m 1,0,1
 1041.92 1329 1041.92 1329 984.96 1393.5 c 128,-1,2
 927.997 1458 927.997 1458 808.997 1458 c 0,3,4
 676.997 1458 676.997 1458 603.46 1393.5 c 128,-1,5
 529.922 1329 529.922 1329 502.903 1190 c 2,6,-1
 271.591 0 l 1,7,-1
 -89.4092 0 l 1,8,-1
 -68.8047 106 l 1,9,-1
 108.195 106 l 1,10,-1
 318.126 1186 l 2,11,12
 352.337 1362 352.337 1362 485.691 1459 c 128,-1,13
 619.047 1556 619.047 1556 828.047 1556 c 0,14,15
 1041.05 1556 1041.05 1556 1132.33 1452 c 128,-1,16
 1223.62 1348 1223.62 1348 1194.6 1137 c 1,17,-1
 1172.6 1137 l 2,18,19
 1027.6 1137 1027.6 1137 933.604 1083 c 128,-1,20
 839.608 1029 839.608 1029 821.53 936 c 0,21,22
 811.423 884 811.423 884 830.939 845.5 c 128,-1,23
 850.455 807 850.455 807 914.319 760 c 1,24,-1
 992.629 705 l 1,25,26
 1128.38 606 1128.38 606 1171.36 521 c 128,-1,27
 1214.34 436 1214.34 436 1192.18 322 c 0,28,29
 1162.05 167 1162.05 167 1027.5 69 c 128,-1,30
 892.953 -29 892.953 -29 707.953 -29 c 0,31,32
 622.953 -29 622.953 -29 542.55 -10.5 c 128,-1,33
 462.146 8 462.146 8 389.949 43 c 1,34,-1
 435.239 276 l 1,35,-1
 544.239 276 l 1,36,37
 528.607 175 528.607 175 573.902 122.5 c 128,-1,38
 619.197 70 619.197 70 721.197 70 c 0,39,40
 832.197 70 832.197 70 907.457 130.5 c 128,-1,41
 982.717 191 982.717 191 1002.93 295 c 0,42,43
 1019.26 379 1019.26 379 990.632 437.5 c 128,-1,44
 962.003 496 962.003 496 859.193 569 c 2,45,-1
 783.689 623 l 2,46,47
 692.324 688 692.324 688 660.362 752.5 c 128,-1,48
 628.399 817 628.399 817 644.339 899 c 0,49,50
 668.053 1021 668.053 1021 768.492 1103 c 128,-1,51
 868.932 1185 868.932 1185 1026.79 1210 c 1,0,1
EndSplineSet
EndChar
StartChar: ae
Encoding: 230 230 230
Width: 1925
Flags: W
Fore
776.61 334 m 2,0,-1
 820.346 559 l 1,1,-1
 583.346 559 l 2,2,3
 446.346 559 446.346 559 367.877 500 c 128,-1,4
 289.408 441 289.408 441 265.694 319 c 0,5,6
 244.118 208 244.118 208 299.483 143 c 128,-1,7
 354.849 78 354.849 78 470.849 78 c 0,8,9
 585.849 78 585.849 78 670.149 149 c 128,-1,10
 754.45 220 754.45 220 776.61 334 c 2,0,-1
849.844 150 m 1,11,12
 749.155 59 749.155 59 639.603 15 c 128,-1,13
 530.05 -29 530.05 -29 405.05 -29 c 0,14,15
 208.05 -29 208.05 -29 118.238 62 c 128,-1,16
 28.4268 153 28.4268 153 60.6943 319 c 0,17,18
 92.7666 484 92.7666 484 229.955 575 c 128,-1,19
 367.145 666 367.145 666 583.145 666 c 2,20,-1
 841.145 666 l 1,21,-1
 855.334 739 l 2,22,23
 878.659 859 878.659 859 819.683 926 c 128,-1,24
 760.707 993 760.707 993 632.706 993 c 0,25,26
 516.707 993 516.707 993 441.085 943.5 c 128,-1,27
 365.463 894 365.463 894 330.219 795 c 1,28,-1
 235.219 795 l 1,29,-1
 277.011 1010 l 1,30,31
 380.98 1051 380.98 1051 475.466 1071.5 c 128,-1,32
 569.95 1092 569.95 1092 655.95 1092 c 0,33,34
 796.95 1092 796.95 1092 884.994 1048.5 c 128,-1,35
 973.039 1005 973.039 1005 1010.54 915 c 1,36,37
 1101.65 1003 1101.65 1003 1206.3 1047.5 c 128,-1,38
 1310.95 1092 1310.95 1092 1427.95 1092 c 0,39,40
 1668.95 1092 1668.95 1092 1768.99 943 c 128,-1,41
 1869.02 794 1869.02 794 1818.21 512 c 1,42,-1
 1026.21 512 l 1,43,-1
 1024.65 504 l 2,44,45
 982.863 289 982.863 289 1042.08 179.5 c 128,-1,46
 1101.29 70 1101.29 70 1260.29 70 c 0,47,48
 1381.29 70 1381.29 70 1471.14 133.5 c 128,-1,49
 1560.98 197 1560.98 197 1616.28 322 c 1,50,-1
 1763.28 322 l 1,51,52
 1686.26 147 1686.26 147 1550.16 59 c 128,-1,53
 1414.05 -29 1414.05 -29 1222.05 -29 c 0,54,55
 1100.05 -29 1100.05 -29 1005.39 16.5 c 128,-1,56
 910.738 62 910.738 62 849.844 150 c 1,11,12
1622.81 618 m 1,57,58
 1652.97 804 1652.97 804 1598.84 898.5 c 128,-1,59
 1544.71 993 1544.71 993 1408.71 993 c 0,60,61
 1281.71 993 1281.71 993 1189.74 898 c 128,-1,62
 1097.77 803 1097.77 803 1046.81 618 c 1,63,-1
 1622.81 618 l 1,57,58
EndSplineSet
EndChar
StartChar: eth
Encoding: 240 240 240
Width: 1233
Flags: W
Fore
852.976 928 m 1,0,1
 809.725 937 809.725 937 770.1 941.5 c 128,-1,2
 730.475 946 730.475 946 690.475 946 c 0,3,4
 517.475 946 517.475 946 414.176 839 c 128,-1,5
 310.877 732 310.877 732 267.336 508 c 0,6,7
 226.516 298 226.516 298 282.856 184 c 128,-1,8
 339.197 70 339.197 70 481.197 70 c 0,9,10
 625.197 70 625.197 70 724.954 184.5 c 128,-1,11
 824.71 299 824.71 299 866.113 512 c 0,12,13
 887.884 624 887.884 624 884.891 729.5 c 128,-1,14
 881.898 835 881.898 835 852.976 928 c 1,0,1
865.646 1307 m 1,15,16
 1016.18 1140 1016.18 1140 1071.68 944.5 c 128,-1,17
 1127.18 749 1127.18 749 1085 532 c 0,18,19
 1035.63 278 1035.63 278 865.291 124.5 c 128,-1,20
 694.953 -29 694.953 -29 461.953 -29 c 0,21,22
 232.953 -29 232.953 -29 119.902 122.5 c 128,-1,23
 6.85059 274 6.85059 274 54.2793 518 c 0,24,25
 100.153 754 100.153 754 269.339 899 c 128,-1,26
 438.523 1044 438.523 1044 666.523 1044 c 0,27,28
 701.523 1044 701.523 1044 738.44 1041 c 128,-1,29
 775.357 1038 775.357 1038 825.803 1030 c 1,30,31
 814.104 1083 814.104 1083 788.004 1136.5 c 128,-1,32
 761.903 1190 761.903 1190 722.594 1245 c 1,33,-1
 371.632 1096 l 1,34,-1
 349.793 1174 l 1,35,-1
 669.034 1309 l 1,36,37
 619.309 1367 619.309 1367 548.681 1407.5 c 128,-1,38
 478.054 1448 478.054 1448 387.33 1470 c 1,39,-1
 422.047 1556 l 1,40,41
 535.992 1530 535.992 1530 631.356 1483 c 128,-1,42
 726.721 1436 726.721 1436 805.503 1368 c 1,43,-1
 1156.66 1518 l 1,44,-1
 1178.5 1440 l 1,45,-1
 865.646 1307 l 1,15,16
EndSplineSet
KernsSLIFO: 46 -36 0 0
EndChar
StartChar: divide
Encoding: 247 247 247
Width: 1716
Flags: W
Fore
725 1012 m 0,0,1
 725 1068 725 1068 763.5 1106.5 c 128,-1,2
 802 1145 802 1145 858 1145 c 0,3,4
 913 1145 913 1145 952 1106 c 128,-1,5
 991 1067 991 1067 991 1012 c 0,6,7
 991 956 991 956 952 917.5 c 128,-1,8
 913 879 913 879 858 879 c 0,9,10
 801 879 801 879 763 917 c 128,-1,11
 725 955 725 955 725 1012 c 0,0,1
725 272 m 0,12,13
 725 328 725 328 763.5 367 c 128,-1,14
 802 406 802 406 858 406 c 0,15,16
 913 406 913 406 952 367 c 128,-1,17
 991 328 991 328 991 272 c 0,18,19
 991 217 991 217 952 178 c 128,-1,20
 913 139 913 139 858 139 c 0,21,22
 801 139 801 139 763 177.5 c 128,-1,23
 725 216 725 216 725 272 c 0,12,13
217 723 m 1,24,-1
 1499 723 l 1,25,-1
 1499 561 l 1,26,-1
 217 561 l 1,27,-1
 217 723 l 1,24,-1
EndSplineSet
EndChar
StartChar: oslash
Encoding: 248 248 248
Width: 1233
Flags: W
Fore
907.547 879 m 1,0,1
 880.627 936 880.627 936 830.167 964.5 c 128,-1,2
 779.707 993 779.707 993 705.706 993 c 0,3,4
 558.707 993 558.707 993 459.964 876 c 128,-1,5
 361.222 759 361.222 759 317.098 532 c 0,6,7
 303.102 460 303.102 460 299.134 401 c 128,-1,8
 295.165 342 295.165 342 299.641 293 c 1,9,-1
 907.547 879 l 1,0,1
324.619 190 m 1,10,11
 352.762 129 352.762 129 402.527 99.5 c 128,-1,12
 452.294 70 452.294 70 526.294 70 c 0,13,14
 673.294 70 673.294 70 772.133 187.5 c 128,-1,15
 870.973 305 870.973 305 915.098 532 c 0,16,17
 929.87 608 929.87 608 934.13 668.5 c 128,-1,18
 938.39 729 938.39 729 933.304 780 c 1,19,-1
 324.619 190 l 1,10,11
1079.91 922 m 1,20,21
 1127.52 848 1127.52 848 1140.28 749 c 128,-1,22
 1153.03 650 1153.03 650 1130.1 532 c 0,23,24
 1080.72 278 1080.72 278 910.388 124.5 c 128,-1,25
 740.05 -29 740.05 -29 507.05 -29 c 0,26,27
 413.05 -29 413.05 -29 338.201 -2.5 c 128,-1,28
 263.352 24 263.352 24 206.849 78 c 1,29,-1
 30.415 -94 l 1,30,-1
 -33.3389 -31 l 1,31,-1
 150.261 147 l 1,32,33
 104.229 224 104.229 224 91.9854 320.5 c 128,-1,34
 79.7432 417 79.7432 417 102.098 532 c 0,35,36
 151.47 786 151.47 786 321.71 939 c 128,-1,37
 491.95 1092 491.95 1092 724.95 1092 c 0,38,39
 818.95 1092 818.95 1092 893.993 1066.5 c 128,-1,40
 969.037 1041 969.037 1041 1023.32 991 c 1,41,-1
 1194.58 1157 l 1,42,-1
 1258.34 1094 l 1,43,-1
 1079.91 922 l 1,20,21
EndSplineSet
KernsSLIFO: 46 -36 0 0
EndChar
StartChar: thorn
Encoding: 254 254 254
Width: 1311
Flags: W
Fore
423.69 584 m 2,0,-1
 403.28 479 l 2,1,2
 388.02 400.5 388.02 400.5 388.02 337.3 c 0,3,4
 388.02 245.91 388.02 245.91 419.93 186.5 c 0,5,6
 473.89 86 473.89 86 613.89 86 c 0,7,8
 754.89 86 754.89 86 849.36 199 c 0,9,10
 943.82 312 943.82 312 986.59 532 c 0,11,12
 1006.28 633.33 1006.28 633.33 1006.28 711.75 c 0,13,14
 1006.28 804.35 1006.28 804.35 978.81 865 c 0,15,16
 928.08 977 928.08 977 787.08 977 c 0,17,18
 647.08 977 647.08 977 553.95 876 c 128,-1,19
 460.82 775 460.82 775 423.69 584 c 2,0,-1
408.03 1450 m 1,20,-1
 231.03 1450 l 1,21,-1
 251.63 1556 l 1,22,-1
 612.63 1556 l 1,23,-1
 484.53 897 l 1,24,25
 557.97 997 557.97 997 650.71 1044.5 c 0,26,27
 743.44 1092 743.44 1092 866.44 1092 c 0,28,29
 1062.44 1092 1062.44 1092 1156.31 937 c 0,30,31
 1218.16 834.87 1218.16 834.87 1218.16 691.5 c 0,32,33
 1218.16 617.27 1218.16 617.27 1201.59 532 c 0,34,35
 1152.99 282 1152.99 282 998.76 126.5 c 0,36,37
 844.54 -29 844.54 -29 648.54 -29 c 0,38,39
 525.54 -29 525.54 -29 451.27 18.5 c 128,-1,40
 377 66 377 66 342.44 166 c 1,41,-1
 227.37 -426 l 1,42,-1
 43.37 -426 l 1,43,-1
 408.03 1450 l 1,20,-1
EndSplineSet
KernsSLIFO: 46 -102 0 0 44 -36 0 0
EndChar
StartChar: Dcroat
Encoding: 272 272 272
Width: 1653
Flags: W
Fore
389.499 106 m 1,0,-1
 577.499 106 l 2,1,2
 868.499 106 868.499 106 1056.77 272 c 128,-1,3
 1245.03 438 1245.03 438 1305.29 748 c 0,4,5
 1365.55 1058 1365.55 1058 1241.93 1222 c 128,-1,6
 1118.31 1386 1118.31 1386 826.307 1386 c 2,7,-1
 638.307 1386 l 1,8,-1
 532.952 844 l 1,9,-1
 868.952 844 l 1,10,-1
 844.654 719 l 1,11,-1
 508.654 719 l 1,12,-1
 389.499 106 l 1,0,-1
-22.1045 0 m 1,13,-1
 -1.50098 106 l 1,14,-1
 188.499 106 l 1,15,-1
 307.654 719 l 1,16,-1
 107.654 719 l 1,17,-1
 131.952 844 l 1,18,-1
 331.952 844 l 1,19,-1
 437.307 1386 l 1,20,-1
 247.307 1386 l 1,21,-1
 268.104 1493 l 1,22,-1
 862.104 1493 l 2,23,24
 1248.1 1493 1248.1 1493 1425.31 1296 c 128,-1,25
 1602.52 1099 1602.52 1099 1534.29 748 c 0,26,27
 1465.87 396 1465.87 396 1211.38 198 c 128,-1,28
 956.896 0 956.896 0 571.896 0 c 2,29,-1
 -22.1045 0 l 1,13,-1
EndSplineSet
EndChar
StartChar: dcroat
Encoding: 273 273 273
Width: 1311
Flags: W
Fore
1165.1 1227 m 1,0,-1
 926.59 0 l 1,1,-1
 742.59 0 l 1,2,-1
 774.86 166 l 1,3,4
 701.42 66 701.42 66 608.69 18.5 c 0,5,6
 515.95 -29 515.95 -29 392.95 -29 c 0,7,8
 196.95 -29 196.95 -29 102.68 126.5 c 0,9,10
 40.47 229.11 40.47 229.11 40.47 372.86 c 0,11,12
 40.47 446.97 40.47 446.97 57 532 c 0,13,14
 105.6 782 105.6 782 259.72 937 c 0,15,16
 413.85 1092 413.85 1092 610.85 1092 c 0,17,18
 733.85 1092 733.85 1092 808.12 1044.5 c 128,-1,19
 882.39 997 882.39 997 916.95 897 c 1,20,-1
 981.1 1227 l 1,21,-1
 655.1 1227 l 1,22,-1
 675.7 1333 l 1,23,-1
 1001.7 1333 l 1,24,-1
 1024.44 1450 l 1,25,-1
 850.44 1450 l 1,26,-1
 871.05 1556 l 1,27,-1
 1229.05 1556 l 1,28,-1
 1185.7 1333 l 1,29,-1
 1361.7 1333 l 1,30,-1
 1341.1 1227 l 1,31,-1
 1165.1 1227 l 1,0,-1
835.7 479 m 2,32,-1
 856.11 584 l 2,33,34
 871.26 661.93 871.26 661.93 871.26 724.88 c 0,35,36
 871.26 816.21 871.26 816.21 839.37 876 c 0,37,38
 785.5 977 785.5 977 645.5 977 c 0,39,40
 503.5 977 503.5 977 409.23 865 c 0,41,42
 314.96 753 314.96 753 272 532 c 0,43,44
 252.4 431.16 252.4 431.16 252.4 352.8 c 0,45,46
 252.4 260.21 252.4 260.21 279.77 199 c 0,47,48
 330.31 86 330.31 86 472.31 86 c 0,49,50
 612.31 86 612.31 86 705.34 186.5 c 0,51,52
 798.38 287 798.38 287 835.7 479 c 2,32,-1
EndSplineSet
EndChar
StartChar: Hbar
Encoding: 294 294 294
Width: 1786
Flags: W
AnchorPoint: "above" 1038.5 1465 basechar 0
Fore
530 870 m 1,9,-1
 1304 870 l 1,10,-1
 1342 1067 l 1,0,0
 568 1067 l 1,0,0
 530 870 l 1,9,-1
-32 0 m 1,0,-1
 -12 106 l 1,1,-1
 178 106 l 1,2,-1
 365 1067 l 1,0,0
 175 1067 l 1,0,0
 199 1189 l 1,0,0
 389 1189 l 1,0,0
 427 1386 l 1,3,-1
 237 1386 l 1,4,-1
 258 1493 l 1,5,-1
 841 1493 l 1,6,-1
 820 1386 l 1,7,-1
 630 1386 l 1,8,-1
 592 1189 l 1,0,0
 1366 1189 l 1,0,0
 1404 1386 l 1,11,-1
 1214 1386 l 1,12,-1
 1235 1493 l 1,13,-1
 1818 1493 l 1,14,-1
 1797 1386 l 1,15,-1
 1607 1386 l 1,16,-1
 1569 1189 l 1,0,0
 1759 1189 l 1,0,0
 1735 1067 l 1,0,0
 1545 1067 l 1,0,0
 1358 106 l 1,17,-1
 1548 106 l 1,18,-1
 1528 0 l 1,19,-1
 945 0 l 1,20,-1
 965 106 l 1,21,-1
 1155 106 l 1,22,-1
 1280 748 l 1,23,-1
 506 748 l 1,24,-1
 381 106 l 1,25,-1
 571 106 l 1,26,-1
 551 0 l 1,27,-1
 -32 0 l 1,0,-1
EndSplineSet
EndChar
StartChar: hbar
Encoding: 295 295 295
Width: 1319
Flags: W
AnchorPoint: "above" 379.504 1465 basechar 0
Fore
98.77 0 m 1,0,-1
 333.97 1210 l 1,1,-1
 157.97 1210 l 1,2,-1
 181.69 1332 l 1,3,-1
 357.69 1332 l 1,4,-1
 380.62 1450 l 1,5,-1
 204.62 1450 l 1,6,-1
 225.23 1556 l 1,7,-1
 585.23 1556 l 1,8,-1
 541.69 1332 l 1,9,-1
 857.69 1332 l 1,10,-1
 833.97 1210 l 1,11,-1
 517.97 1210 l 1,12,-1
 452.66 874 l 1,13,14
 524.65 982 524.65 982 616.84 1037 c 0,15,16
 709.04 1092 709.04 1092 817.04 1092 c 0,17,18
 993.04 1092 993.04 1092 1056.4 991 c 0,19,20
 1094.66 930.03 1094.66 930.03 1094.66 827.87 c 0,21,22
 1094.66 760.81 1094.66 760.81 1078.17 676 c 2,23,-1
 967.38 106 l 1,24,-1
 1131.38 106 l 1,25,-1
 1110.77 0 l 1,26,-1
 761.77 0 l 1,27,-1
 881.9 618 l 2,28,29
 901.99 721.37 901.99 721.37 901.99 790.03 c 0,30,31
 901.99 850.9 901.99 850.9 886.2 884.5 c 0,32,33
 852.6 956 852.6 956 730.6 956 c 0,34,35
 602.6 956 602.6 956 517.52 863 c 0,36,37
 432.45 770 432.45 770 397.85 592 c 2,38,-1
 282.77 0 l 1,39,-1
 98.77 0 l 1,0,-1
EndSplineSet
EndChar
StartChar: dotlessi
Encoding: 305 305 305
Width: 655
Flags: W
AnchorPoint: "above" 436 1092 basechar 0
Fore
351.29 106 m 1,0,-1
 525.29 106 l 1,1,-1
 504.69 0 l 1,2,-1
 146.69 0 l 1,3,-1
 332.52 956 l 1,4,-1
 156.51 956 l 1,5,-1
 177.31 1063 l 1,6,-1
 537.31 1063 l 1,7,-1
 351.29 106 l 1,0,-1
EndSplineSet
EndChar
StartChar: kgreenlandic
Encoding: 312 312 312
Width: 1241
Flags: W
Fore
316.98 0 m 1,0,-1
 132.98 0 l 1,1,-1
 318.22 953 l 1,2,-1
 141.22 953 l 1,3,-1
 162.02 1060 l 1,4,-1
 523.02 1060 l 1,5,-1
 422.14 541 l 1,6,-1
 950.22 953 l 1,7,-1
 797.22 953 l 1,8,-1
 818.02 1060 l 1,9,-1
 1117.02 1060 l 1,10,-1
 1096.22 953 l 1,11,-1
 723.66 662 l 1,12,-1
 1019.58 106 l 1,13,-1
 1172.58 106 l 1,14,-1
 1151.98 0 l 1,15,-1
 856.98 0 l 1,16,-1
 567.14 541 l 1,17,-1
 395.9 406 l 1,18,-1
 316.98 0 l 1,0,-1
EndSplineSet
EndChar
StartChar: Lslash
Encoding: 321 321 321
Width: 1370
Flags: W
Fore
-22.1045 0 m 1,0,-1
 -1.50098 106 l 1,1,-1
 188.499 106 l 1,2,-1
 281.802 586 l 1,3,-1
 102.837 473 l 1,4,-1
 50.7197 565 l 1,5,-1
 309.21 727 l 1,6,-1
 437.307 1386 l 1,7,-1
 247.307 1386 l 1,8,-1
 268.104 1493 l 1,9,-1
 850.104 1493 l 1,10,-1
 829.307 1386 l 1,11,-1
 638.307 1386 l 1,12,-1
 538.006 870 l 1,13,-1
 888.936 1096 l 1,14,-1
 941.053 1004 l 1,15,-1
 510.599 729 l 1,16,-1
 392.804 123 l 1,17,-1
 1076.8 123 l 1,18,-1
 1125.4 373 l 1,19,-1
 1248.4 373 l 1,20,-1
 1175.9 0 l 1,21,-1
 -22.1045 0 l 1,0,-1
EndSplineSet
KernsSLIFO: 366 -36 0 0 356 -167 0 0 253 -36 0 0 221 -206 0 0 217 -36 0 0 219 -36 0 0 218 -36 0 0 376 -206 0 0 255 -36 0 0 8217 -491 0 0 8221 -491 0 0 220 -36 0 0 121 -36 0 0 89 -206 0 0 87 -178 0 0 86 -243 0 0 85 -36 0 0 84 -167 0 0
EndChar
StartChar: lslash
Encoding: 322 322 322
Width: 664
Flags: W
Fore
297.38 106 m 1,0,-1
 473.38 106 l 1,1,-1
 452.77 0 l 1,2,-1
 92.77 0 l 1,3,-1
 224.95 680 l 1,4,-1
 68.29 584 l 1,5,-1
 24.01 670 l 1,6,-1
 250.41 811 l 1,7,-1
 374.62 1450 l 1,8,-1
 200.62 1450 l 1,9,-1
 221.23 1556 l 1,10,-1
 579.23 1556 l 1,11,-1
 459.49 940 l 1,12,-1
 625.54 1038 l 1,13,-1
 668.82 952 l 1,14,-1
 434.41 811 l 1,15,-1
 297.38 106 l 1,0,-1
EndSplineSet
EndChar
StartChar: Eng
Encoding: 330 330 330
Width: 1792
Flags: W
AnchorPoint: "above" 1018.45 1475 basechar 0
Fore
-42 0 m 1,14,-1
 -21 106 l 1,13,-1
 180 106 l 1,12,-1
 429 1386 l 1,11,-1
 228 1386 l 1,10,-1
 248 1493 l 1,9,-1
 631 1493 l 1,8,-1
 1297 315 l 1,7,-1
 1506 1386 l 1,6,-1
 1306 1386 l 1,5,-1
 1326 1493 l 1,4,-1
 1850 1493 l 1,3,-1
 1830 1386 l 1,2,-1
 1629 1386 l 1,1,-1
 1353 -29 l 2,0,-1
 1305 -276 1305 -276 1226 -356 c 0,37,38
 1129 -455 1129 -455 1000 -455 c 0,35,36
 884 -455 884 -455 821 -438 c 0,33,34
 759 -422 759 -422 704 -389 c 1,31,32
 746 -170 l 1,30,-1
 841 -170 l 1,29,-1
 838 -194 838 -194 838 -215 c 0,27,28
 838 -277 838 -277 864 -311 c 0,25,26
 897 -356 897 -356 1022 -356 c 0,23,24
 1086 -355 1086 -355 1142 -292 c 0,21,22
 1190 -235 1190 -235 1230 -29 c 1,19,20
 521 1229 l 1,18,-1
 303 106 l 1,17,-1
 504 106 l 1,16,-1
 483 0 l 1,15,-1
 -42 0 l 1,14,-1
EndSplineSet
EndChar
StartChar: eng
Encoding: 331 331 331
Width: 1319
Flags: W
Fore
830.87 -104 m 2,0,-1
 971.22 618 l 2,1,2
 991.22 720.92 991.22 720.92 991.22 789.72 c 0,3,4
 991.22 851.26 991.22 851.26 975.21 885.5 c 0,5,6
 941.31 958 941.31 958 820.31 958 c 0,7,8
 692.31 958 692.31 958 607.13 864.5 c 0,9,10
 521.96 771 521.96 771 487.16 592 c 2,11,-1
 372.09 0 l 1,12,-1
 188.09 0 l 1,13,-1
 373.92 956 l 1,14,-1
 197.92 956 l 1,15,-1
 218.72 1063 l 1,16,-1
 578.72 1063 l 1,17,-1
 541.98 874 l 1,18,19
 613.97 982 613.97 982 706.16 1037 c 0,20,21
 798.35 1092 798.35 1092 906.35 1092 c 0,22,23
 1080.37 1092 1080.37 1092 1145.72 991 c 0,24,25
 1184.2 931.53 1184.2 931.53 1184.2 829.3 c 0,26,27
 1184.2 761.93 1184.2 761.93 1167.49 676 c 2,28,-1
 1015.87 -104 l 2,29,30
 984 -268 984 -268 868.32 -361.5 c 0,31,32
 752.65 -455 752.65 -455 581.65 -455 c 0,33,34
 509.65 -455 509.65 -455 447.35 -438.5 c 128,-1,35
 385.06 -422 385.06 -422 329.48 -389 c 1,36,-1
 372.05 -170 l 1,37,-1
 467.05 -170 l 1,38,39
 464.05 -194.65 464.05 -194.65 464.05 -215.93 c 0,40,41
 464.05 -277.55 464.05 -277.55 489.14 -311 c 0,42,43
 522.89 -356 522.89 -356 604.89 -356 c 0,44,45
 695.89 -356 695.89 -356 751.34 -294.5 c 0,46,47
 805.52 -234.43 805.52 -234.43 830.87 -104 c 2,0,-1
EndSplineSet
EndChar
StartChar: OE
Encoding: 338 338 338
Width: 2329
Flags: W
Fore
1012.5 106 m 1,0,-1
 1261.31 1386 l 1,1,-1
 1074.31 1386 l 2,2,3
 782.307 1386 782.307 1386 595.428 1222 c 128,-1,4
 408.55 1058 408.55 1058 348.681 750 c 0,5,6
 288.229 439 288.229 439 411.363 272.5 c 128,-1,7
 534.499 106 534.499 106 825.499 106 c 2,8,-1
 1012.5 106 l 1,0,-1
2019.9 0 m 1,9,-1
 790.896 0 l 2,10,11
 405.896 0 405.896 0 228.383 198 c 128,-1,12
 50.8701 396 50.8701 396 119.681 750 c 0,13,14
 187.908 1101 187.908 1101 441.507 1297 c 128,-1,15
 695.104 1493 695.104 1493 1081.1 1493 c 2,16,-1
 2293.1 1493 l 1,17,-1
 2228.57 1161 l 1,18,-1
 2105.57 1161 l 1,19,-1
 2146.2 1370 l 1,20,-1
 1460.2 1370 l 1,21,-1
 1363.01 870 l 1,22,-1
 1855.01 870 l 1,23,-1
 1891.36 1057 l 1,24,-1
 2012.36 1057 l 1,25,-1
 1915.94 561 l 1,26,-1
 1794.94 561 l 1,27,-1
 1831.29 748 l 1,28,-1
 1339.29 748 l 1,29,-1
 1217.8 123 l 1,30,-1
 1920.8 123 l 1,31,-1
 1961.43 332 l 1,32,-1
 2084.43 332 l 1,33,-1
 2019.9 0 l 1,9,-1
EndSplineSet
KernsSLIFO: 45 38 0 0
EndChar
StartChar: oe
Encoding: 339 339 339
Width: 2025
Flags: W
Fore
526.294 70 m 0,0,1
 674.294 70 674.294 70 772.536 187 c 128,-1,2
 870.778 304 870.778 304 915.098 532 c 0,3,4
 959.416 760 959.416 760 906.562 876.5 c 128,-1,5
 853.707 993 853.707 993 705.706 993 c 0,6,7
 557.707 993 557.707 993 459.562 876.5 c 128,-1,8
 361.416 760 361.416 760 317.098 532 c 0,9,10
 272.778 304 272.778 304 326.036 187 c 128,-1,11
 379.294 70 379.294 70 526.294 70 c 0,0,1
1919.21 512 m 1,12,-1
 1126.21 512 l 1,13,-1
 1124.65 504 l 2,14,15
 1082.86 289 1082.86 289 1142.58 179.5 c 128,-1,16
 1202.29 70 1202.29 70 1360.29 70 c 0,17,18
 1481.29 70 1481.29 70 1571.14 133.5 c 128,-1,19
 1660.98 197 1660.98 197 1716.28 322 c 1,20,-1
 1864.28 322 l 1,21,22
 1786.26 147 1786.26 147 1650.66 59 c 128,-1,23
 1515.05 -29 1515.05 -29 1323.05 -29 c 0,24,25
 1193.05 -29 1193.05 -29 1099.07 20 c 128,-1,26
 1005.1 69 1005.1 69 950.954 166 c 1,27,28
 863.294 70 863.294 70 750.172 20.5 c 128,-1,29
 637.05 -29 637.05 -29 507.05 -29 c 0,30,31
 275.05 -29 275.05 -29 163.888 124.5 c 128,-1,32
 52.7246 278 52.7246 278 102.098 532 c 0,33,34
 151.47 786 151.47 786 321.71 939 c 128,-1,35
 491.95 1092 491.95 1092 724.95 1092 c 0,36,37
 856.95 1092 856.95 1092 950.328 1042.5 c 128,-1,38
 1043.71 993 1043.71 993 1095.05 897 c 1,39,40
 1186.71 993 1186.71 993 1296.33 1042.5 c 128,-1,41
 1405.95 1092 1405.95 1092 1527.95 1092 c 0,42,43
 1769.95 1092 1769.95 1092 1869.58 943.5 c 128,-1,44
 1969.22 795 1969.22 795 1919.21 512 c 1,12,-1
1722.81 618 m 1,45,46
 1752.97 804 1752.97 804 1698.84 898.5 c 128,-1,47
 1644.71 993 1644.71 993 1508.71 993 c 0,48,49
 1381.71 993 1381.71 993 1290.24 898 c 128,-1,50
 1198.77 803 1198.77 803 1146.81 618 c 1,51,-1
 1722.81 618 l 1,45,46
EndSplineSet
EndChar
StartChar: Tbar
Encoding: 358 358 358
Width: 1366
Flags: W
TeX: 0 0 0 0
Fore
246 0 m 1,0,-1
 266 106 l 1,1,-1
 457 106 l 1,2,-1
 559 628 l 1,0,0
 294 628 l 1,0,0
 327 798 l 1,0,0
 592 798 l 1,0,0
 704 1374 l 1,3,-1
 265 1374 l 1,4,-1
 220 1141 l 1,5,-1
 97 1141 l 1,6,-1
 165 1493 l 1,7,-1
 1491 1493 l 1,8,-1
 1423 1141 l 1,9,-1
 1300 1141 l 1,10,-1
 1345 1374 l 1,11,-1
 906 1374 l 1,12,-1
 794 798 l 1,0,0
 1060 798 l 1,0,0
 1027 628 l 1,0,0
 761 628 l 1,0,0
 659 106 l 1,13,-1
 850 106 l 1,14,-1
 830 0 l 1,15,-1
 246 0 l 1,0,-1
EndSplineSet
EndChar
StartChar: tbar
Encoding: 359 359 359
Width: 823
Flags: W
TeX: 0 0 0 0
Fore
274 956 m 1,0,-1
 112 956 l 1,1,-1
 133 1063 l 1,2,-1
 295 1063 l 1,3,-1
 359 1393 l 1,4,-1
 544 1393 l 1,5,-1
 480 1063 l 1,6,-1
 826 1063 l 1,7,-1
 805 956 l 1,8,-1
 459 956 l 1,9,-1
 414 723 l 1,0,0
 604 723 l 1,0,0
 576 581 l 1,0,0
 386 581 l 1,0,0
 328 281 l 2,10,11
 313 202 313 202 313 156 c 0,0,0
 313 124 313 124 320 108 c 128,-1,12
 339 70 339 70 409 70 c 0,13,14
 481 70 481 70 522 112 c 128,-1,15
 564 155 564 155 584 250 c 1,16,-1
 723 250 l 1,17,18
 687 105 687 105 603 38 c 128,-1,19
 519 -29 519 -29 374 -29 c 0,20,21
 215 -29 215 -29 163 42 c 128,-1,22
 130 85 130 85 130 165 c 0,0,0
 130 216 130 216 143 281 c 2,23,-1
 201 581 l 1,0,0
 66 581 l 1,0,0
 94 723 l 1,0,0
 229 723 l 1,0,0
 274 956 l 1,0,-1
EndSplineSet
EndChar
StartChar: longs
Encoding: 383 383 383
Width: 758
Flags: W
TeX: 0 0 0 0
Fore
1020.27 1305 m 1,0,-1
 923.273 1305 l 1,1,2
 927.155 1326.44 927.155 1326.44 927.155 1344.94 c 0,0,0
 927.155 1391.15 927.155 1391.15 902.933 1419 c 128,-1,3
 869.014 1458 869.014 1458 790.014 1458 c 0,4,5
 687.014 1458 687.014 1458 634.031 1401.5 c 128,-1,6
 581.049 1345 581.049 1345 552.863 1200 c 2,7,-1
 315.914 -19 l 2,22,23
 281.314 -197 281.314 -197 171.126 -288 c 128,-1,24
 60.9375 -379 60.9375 -379 -118.062 -379 c 0,25,26
 -185.062 -379 -185.062 -379 -249.73 -367 c 128,-1,27
 -314.397 -355 -314.397 -355 -375.538 -330 c 1,28,-1
 -336.273 -128 l 1,0,-1
 -239.273 -128 l 1,1,2
 -243.155 -149.44 -243.155 -149.44 -243.155 -167.939 c 0,0,0
 -243.155 -214.149 -243.155 -214.149 -218.933 -242 c 128,-1,3
 -185.014 -281 -185.014 -281 -106.014 -281 c 0,4,5
 -3.01367 -281 -3.01367 -281 49.9688 -224.5 c 128,-1,6
 102.951 -168 102.951 -168 131.914 -19 c 2,7,-1
 321.435 956 l 1,18,-1
 145.435 956 l 1,19,-1
 166.233 1063 l 1,20,-1
 342.233 1063 l 1,21,-1
 368.086 1196 l 2,22,23
 402.686 1374 402.686 1374 512.874 1465 c 128,-1,24
 623.062 1556 623.062 1556 802.062 1556 c 0,25,26
 869.062 1556 869.062 1556 933.73 1544 c 128,-1,27
 998.397 1532 998.397 1532 1059.54 1507 c 1,28,-1
 1020.27 1305 l 1,0,-1
EndSplineSet
EndChar
StartChar: uni0186
Encoding: 390 390 390
Width: 1567
Flags: W
TeX: 117 0 0 0
AnchorPoint: "above" 872.856 1465 basechar 0
Fore
183.13 1096 m 1,0,-1
 289.756 1305 289.756 1305 466.151 1412.5 c 128,-1,29
 642.548 1520 642.548 1520 880.548 1520 c 0,27,28
 1026.55 1520 1026.55 1520 1141.83 1470 c 128,-1,26
 1257.11 1420 1257.11 1420 1335.25 1323 c 0,24,25
 1425.48 1211 1425.48 1211 1452.29 1068.5 c 128,-1,23
 1479.09 926 1479.09 926 1444.1 746 c 0,21,22
 1376.45 398 1376.45 398 1133.95 184.5 c 128,-1,20
 891.452 -29 891.452 -29 562.452 -29 c 0,18,19
 440.452 -29 440.452 -29 308.673 3 c 128,-1,17
 176.893 35 176.893 35 30.5273 100 c 1,15,16
 97.3945 444 l 1,14,-1
 210.395 444 l 1,13,-1
 210.851 256 210.851 256 305.051 167 c 128,-1,12
 399.251 78 399.251 78 600.251 78 c 0,10,11
 839.251 78 839.251 78 995.198 247.5 c 128,-1,9
 1151.15 417 1151.15 417 1215.1 746 c 0,7,8
 1278.85 1074 1278.85 1074 1188.8 1243.5 c 128,-1,6
 1098.75 1413 1098.75 1413 859.749 1413 c 0,4,5
 692.749 1413 692.749 1413 569.296 1333.5 c 128,-1,3
 445.843 1254 445.843 1254 367.13 1096 c 1,1,2
 183.13 1096 l 1,0,-1
EndSplineSet
EndChar
StartChar: uni0190
Encoding: 400 400 400
Width: 1303
Flags: W
TeX: 117 0 0 0
AnchorPoint: "above" 846.5 1465 basechar 0
Fore
1241.05 1430 m 1,0,1
 1189.93 1167 l 1,42,-1
 1077.93 1167 l 1,41,-1
 1089.42 1293 1089.42 1293 1027.36 1357 c 128,-1,40
 965.304 1421 965.304 1421 830.304 1421 c 0,38,39
 695.304 1421 695.304 1421 609.795 1351.5 c 128,-1,37
 524.285 1282 524.285 1282 498.821 1151 c 0,35,36
 470.441 1005 470.441 1005 543.849 932.5 c 128,-1,34
 617.257 860 617.257 860 792.257 860 c 2,32,33
 842.257 860 l 1,31,-1
 822.43 758 l 1,30,-1
 727.43 758 l 2,29,-1
 551.43 758 551.43 758 442.838 667.5 c 128,-1,28
 334.247 577 334.247 577 300.036 401 c 0,26,27
 270.102 247 270.102 247 341.398 158.5 c 128,-1,25
 412.696 70 412.696 70 565.696 70 c 0,23,24
 723.696 70 723.696 70 825.08 144 c 128,-1,22
 926.465 218 926.465 218 964.455 362 c 1,20,21
 1076.46 362 l 1,19,-1
 1020.08 72 l 1,18,-1
 900.172 21 900.172 21 783.812 -4 c 128,-1,17
 667.452 -29 667.452 -29 550.452 -29 c 0,15,16
 286.452 -29 286.452 -29 167.626 82.5 c 128,-1,14
 48.7988 194 48.7988 194 89.4248 403 c 0,12,13
 122.664 574 122.664 574 245.06 681.5 c 128,-1,11
 367.455 789 367.455 789 556.51 815 c 1,9,10
 406.729 847 406.729 847 339.321 937.5 c 128,-1,8
 271.912 1028 271.912 1028 298.153 1163 c 0,6,7
 330.81 1331 330.81 1331 472.179 1425.5 c 128,-1,5
 613.548 1520 613.548 1520 832.548 1520 c 0,3,4
 926.548 1520 926.548 1520 1029.58 1497 c 128,-1,2
 1132.61 1474 1132.61 1474 1241.05 1430 c 1,0,1
EndSplineSet
EndChar
StartChar: florin
Encoding: 402 402 402
Width: 1303
Flags: W
Fore
730.879 1135 m 1,0,1
 790.033 1321 790.033 1321 909.874 1420.5 c 128,-1,2
 1029.71 1520 1029.71 1520 1195.71 1520 c 0,3,4
 1246.71 1520 1246.71 1520 1303.48 1508.5 c 128,-1,5
 1360.24 1497 1360.24 1497 1425.97 1475 c 1,6,-1
 1382.82 1253 l 1,7,-1
 1284.82 1253 l 1,8,9
 1295.53 1339 1295.53 1339 1266 1380 c 128,-1,10
 1236.47 1421 1236.47 1421 1163.47 1421 c 0,11,12
 1083.47 1421 1083.47 1421 1026.46 1351.5 c 128,-1,13
 969.453 1282 969.453 1282 915.408 1112 c 1,14,-1
 823.844 821 l 1,15,-1
 1128.84 821 l 1,16,-1
 1108.24 715 l 1,17,-1
 789.239 715 l 1,18,-1
 549.121 -47 l 1,19,20
 489.967 -233 489.967 -233 369.126 -332.5 c 128,-1,21
 248.285 -432 248.285 -432 82.2852 -432 c 0,22,23
 32.2852 -432 32.2852 -432 -23.5771 -421 c 128,-1,24
 -79.4385 -410 -79.4385 -410 -145.968 -387 c 1,25,-1
 -103.01 -166 l 1,26,-1
 -5.00977 -166 l 1,27,28
 -15.7266 -252 -15.7266 -252 13.3037 -293 c 128,-1,29
 42.334 -334 42.334 -334 114.334 -334 c 0,30,31
 194.334 -334 194.334 -334 251.44 -264 c 128,-1,32
 308.547 -194 308.547 -194 362.397 -25 c 2,33,-1
 598.239 715 l 1,34,-1
 346.239 715 l 1,35,-1
 366.844 821 l 1,36,-1
 631.844 821 l 1,37,-1
 730.879 1135 l 1,0,1
EndSplineSet
EndChar
StartChar: uni0194
Encoding: 404 404 404
Width: 1458
Flags: W
TeX: 0 0 0 0
AnchorPoint: "above" 874.5 1465 basechar 0
Fore
629.647 733 m 0,0,-1
 320.578 1386 l 1,1,-1
 160.578 1386 l 1,2,-1
 181.377 1493 l 1,3,-1
 773.377 1493 l 1,4,-1
 752.578 1386 l 1,5,-1
 576.578 1386 l 1,6,-1
 803.081 905 l 1,7,-1
 1225.58 1386 l 1,8,-1
 1033.58 1386 l 1,9,-1
 1054.38 1493 l 1,10,-1
 1543.38 1493 l 1,11,-1
 1522.58 1386 l 1,12,-1
 1354.58 1386 l 1,13,-1
 847.81 811 l 0,14,15
 1269.66 126 1269.66 126 1052.61 -44 c 0,16,17
 868.623 -188 868.623 -188 516.623 -188 c 16,18,19
 161.623 -188 161.623 -188 139.499 12 c 0,20,21
 118.683 193 118.683 193 629.647 733 c 0,0,-1
676.793 636 m 1,22,23
 315.317 258 315.317 258 276.052 56 c 24,24,25
 249.228 -82 249.228 -82 537.228 -82 c 16,26,27
 809.228 -82 809.228 -82 836.052 56 c 16,28,29
 877.261 268 877.261 268 676.793 636 c 1,22,23
EndSplineSet
EndChar
StartChar: dotlessj
Encoding: 567 567 567
Width: 635
Flags: W
AnchorPoint: "above" 370 1092 basechar 0
Fore
376.736 956 m 1,0,-1
 202.736 956 l 1,1,-1
 223.534 1063 l 1,2,-1
 581.534 1063 l 1,3,-1
 354.692 -104 l 2,4,5
 322.814 -268 322.814 -268 207.14 -361.5 c 128,-1,6
 91.4658 -455 91.4658 -455 -79.5342 -455 c 0,7,8
 -151.534 -455 -151.534 -455 -213.827 -438.5 c 128,-1,9
 -276.12 -422 -276.12 -422 -331.705 -389 c 1,10,-1
 -289.137 -170 l 1,11,-1
 -194.137 -170 l 1,12,13
 -205.797 -266 -205.797 -266 -172.044 -311 c 128,-1,14
 -138.291 -356 -138.291 -356 -56.291 -356 c 0,15,16
 34.709 -356 34.709 -356 90.1631 -294.5 c 128,-1,17
 145.618 -233 145.618 -233 170.692 -104 c 2,18,-1
 376.736 956 l 1,0,-1
EndSplineSet
EndChar
StartChar: uni0250
Encoding: 592 592 592
Width: 1221
Flags: W
Fore
488.39 729 m 2,0,-1
 444.654 504 l 1,1,-1
 681.654 504 l 2,2,3
 818.654 504 818.654 504 897.123 563 c 128,-1,4
 975.592 622 975.592 622 999.306 744 c 0,5,6
 1020.88 855 1020.88 855 965.517 920 c 128,-1,7
 910.151 985 910.151 985 794.151 985 c 0,8,9
 679.151 985 679.151 985 594.351 914 c 0,10,11
 510.55 843 510.55 843 488.39 729 c 2,0,-1
240.244 399 m 2,12,-1
 348.709 957 l 1,13,-1
 184.709 957 l 1,14,-1
 205.313 1063 l 1,15,-1
 553.313 1063 l 1,16,-1
 530.959 948 l 1,17,18
 606.344 1022 606.344 1022 693.146 1057 c 128,-1,19
 779.95 1092 779.95 1092 886.95 1092 c 0,20,21
 1063.95 1092 1063.95 1092 1149.68 998 c 128,-1,22
 1235.41 904 1235.41 904 1204.31 744 c 0,23,24
 1172.23 579 1172.23 579 1035.54 488 c 128,-1,25
 898.855 397 898.855 397 681.855 397 c 2,26,-1
 423.855 397 l 1,27,-1
 409.666 324 l 2,28,29
 386.146 203 386.146 203 447.123 136 c 0,30,31
 507.294 70 507.294 70 640.294 70 c 0,32,33
 750.294 70 750.294 70 825.013 120 c 128,-1,34
 899.731 170 899.731 170 934.781 268 c 1,35,-1
 1029.78 268 l 1,36,-1
 987.989 53 l 1,37,38
 884.02 12 884.02 12 789.132 -8 c 0,39,40
 695.05 -29 695.05 -29 609.05 -29 c 0,41,42
 388.05 -29 388.05 -29 294.237 80 c 0,43,44
 199.619 190 199.619 190 240.244 399 c 2,12,-1
EndSplineSet
EndChar
StartChar: uni0251
Encoding: 593 593 593
Width: 1311
Flags: W
TeX: 0 0 0 0
AnchorPoint: "above" 730 1092 basechar 0
Fore
962.046 897 m 8,0,-1
 994.313 1063 l 1,1,-1
 1354.31 1063 l 1,2,-1
 1333.51 956 l 1,3,-1
 1157.51 956 l 1,4,-1
 992.291 106 l 17,5,-1
 1168.29 106 l 1,6,-1
 1147.69 0 l 1,7,-1
 787.687 0 l 1,8,-1
 819.954 166 l 1,9,10
 746.516 66 746.516 66 654.186 18 c 0,11,12
 561.05 -29 561.05 -29 438.05 -29 c 0,13,14
 242.05 -29 242.05 -29 147.179 126 c 0,15,16
 53.502 282 53.502 282 102.098 532 c 128,-1,17
 150.692 782 150.692 782 304.821 937 c 128,-1,18
 458.95 1092 458.95 1092 655.95 1092 c 0,19,20
 778.95 1092 778.95 1092 853.62 1044 c 0,21,22
 927.484 997 927.484 997 962.046 897 c 8,0,-1
880.795 479 m 2,23,-1
 901.205 584 l 2,24,25
 938.332 775 938.332 775 884.964 876 c 0,26,27
 830.597 977 830.597 977 690.597 977 c 0,28,29
 548.597 977 548.597 977 454.826 865 c 0,30,31
 360.056 753 360.056 753 317.098 532 c 0,32,33
 274.334 312 274.334 312 325.368 199 c 0,34,35
 375.403 86 375.403 86 517.403 86 c 0,36,37
 657.403 86 657.403 86 750.842 186 c 0,38,39
 843.474 287 843.474 287 880.795 479 c 2,23,-1
EndSplineSet
EndChar
StartChar: uni0252
Encoding: 594 594 594
Width: 1311
Flags: W
TeX: 0 0 0 0
AnchorPoint: "above" 850 1092 basechar 0
Fore
390.954 166 m 8,0,-1
 358.687 0 l 1,1,-1
 -1.31348 0 l 1,2,-1
 19.4854 107 l 1,3,-1
 195.485 107 l 1,4,-1
 360.709 957 l 17,5,-1
 184.709 957 l 1,6,-1
 205.313 1063 l 1,7,-1
 565.313 1063 l 1,8,-1
 533.046 897 l 1,9,10
 606.484 997 606.484 997 699.62 1044 c 0,11,12
 791.95 1092 791.95 1092 914.95 1092 c 0,13,14
 1110.95 1092 1110.95 1092 1204.63 936 c 0,15,16
 1299.5 781 1299.5 781 1250.9 531 c 128,-1,17
 1202.31 281 1202.31 281 1048.18 126 c 128,-1,18
 894.05 -29 894.05 -29 697.05 -29 c 0,19,20
 574.05 -29 574.05 -29 500.186 18 c 0,21,22
 425.516 66 425.516 66 390.954 166 c 8,0,-1
472.205 584 m 2,23,-1
 451.795 479 l 2,24,25
 414.668 288 414.668 288 469.036 187 c 0,26,27
 522.403 86 522.403 86 662.403 86 c 0,28,29
 804.403 86 804.403 86 899.174 198 c 0,30,31
 992.944 310 992.944 310 1035.9 531 c 0,32,33
 1078.67 751 1078.67 751 1028.63 864 c 0,34,35
 977.597 977 977.597 977 835.597 977 c 0,36,37
 695.597 977 695.597 977 602.964 876 c 0,38,39
 509.526 776 509.526 776 472.205 584 c 2,23,-1
EndSplineSet
EndChar
StartChar: uni0253
Encoding: 595 595 595
Width: 1311
Flags: W
TeX: 0 0 0 0
Fore
460.362 966 m 1,0,-1
 445.95 897 l 1,1,2
 519.388 997 519.388 997 612.523 1044 c 0,3,4
 704.854 1092 704.854 1092 827.854 1092 c 0,5,6
 1023.85 1092 1023.85 1092 1117.72 937 c 128,-1,7
 1211.6 782 1211.6 782 1163 532 c 128,-1,8
 1114.41 282 1114.41 282 960.083 126 c 0,9,10
 805.953 -29 805.953 -29 609.953 -29 c 0,11,12
 486.953 -29 486.953 -29 413.09 18 c 0,13,14
 338.42 66 338.42 66 303.857 166 c 1,15,-1
 271.591 0 l 1,16,-1
 -89.4092 0 l 1,17,-1
 -68.8047 106 l 1,18,-1
 108.195 106 l 1,19,-1
 276.723 973 l 1,20,-1
 321.819 1205 l 2,21,22
 353.697 1369 353.697 1369 469.774 1462 c 0,23,24
 585.047 1556 585.047 1556 756.047 1556 c 0,25,26
 828.047 1556 828.047 1556 890.937 1540 c 0,27,28
 952.632 1523 952.632 1523 1008.22 1490 c 1,29,-1
 965.648 1271 l 1,30,-1
 870.648 1271 l 1,31,32
 882.309 1367 882.309 1367 848.056 1412 c 0,33,34
 814.803 1457 814.803 1457 732.803 1457 c 0,35,36
 641.803 1457 641.803 1457 586.945 1396 c 0,37,38
 532.478 1337 532.478 1337 506.819 1205 c 2,39,-1
 460.362 966 l 1,0,-1
364.699 479 m 2,40,41
 327.378 287 327.378 287 381.745 186 c 0,42,43
 435.308 86 435.308 86 575.308 86 c 0,44,45
 716.308 86 716.308 86 810.272 199 c 0,46,47
 905.237 312 905.237 312 948.001 532 c 0,48,49
 990.959 753 990.959 753 939.729 865 c 0,50,51
 889.5 977 889.5 977 748.5 977 c 0,52,53
 608.5 977 608.5 977 515.868 876 c 0,54,55
 422.235 775 422.235 775 385.108 584 c 2,56,-1
 364.699 479 l 2,40,41
EndSplineSet
EndChar
StartChar: uni0254
Encoding: 596 596 596
Width: 1147
Flags: W
AnchorPoint: "above" 660.95 1092 basechar 0
Fore
143.306 744 m 1,0,-1
 215.351 914 215.351 914 343.65 1003 c 128,-1,31
 471.95 1092 471.95 1092 647.95 1092 c 0,29,30
 879.95 1092 879.95 1092 991.21 939 c 0,27,28
 1102.28 785 1102.28 785 1052.9 531 c 0,25,26
 1003.34 276 1003.34 276 832.596 123 c 0,23,24
 662.05 -29 662.05 -29 430.05 -29 c 0,21,22
 329.05 -29 329.05 -29 233.715 -5 c 0,19,20
 138.186 18 138.186 18 46.5156 66 c 1,17,18
 99.3877 338 l 1,16,-1
 206.388 338 l 1,15,-1
 200.174 198 200.174 198 258.733 134 c 0,13,14
 316.294 70 316.294 70 447.294 70 c 0,11,12
 596.294 70 596.294 70 694.647 185 c 0,9,10
 793.195 301 793.195 301 837.902 531 c 128,-1,8
 882.61 761 882.61 761 829.158 877 c 0,6,7
 776.707 993 776.707 993 626.706 993 c 0,4,5
 507.706 993 507.706 993 424.655 931 c 128,-1,3
 341.604 869 341.604 869 291.306 744 c 1,1,2
 143.306 744 l 1,0,-1
EndSplineSet
EndChar
StartChar: uni0255
Encoding: 597 597 597
Width: 1147
Flags: W
TeX: 0 0 0 0
AnchorPoint: "above" 724 1092 basechar 0
Fore
359.031 164 m 1,0,1
 408.76 70 408.76 70 546.76 70 c 0,2,3
 705.371 68 705.371 68 726.559 177 c 0,4,5
 750.661 301 750.661 301 639.467 300 c 0,6,7
 459.078 298 459.078 298 359.031 164 c 1,0,1
320.247 268 m 1,8,9
 470.905 400 470.905 400 727.905 400 c 0,10,11
 992.905 400 992.905 400 943.197 170 c 0,12,13
 900.516 -29 900.516 -29 525.516 -29 c 0,14,15
 372.516 -29 372.516 -29 279.317 42 c 1,16,17
 264.097 10 264.097 10 248.574 -75 c 1,18,-1
 220.584 -219 l 1,19,-1
 106.584 -219 l 1,20,-1
 135.574 -75 l 1,21,22
 158.207 26 158.207 26 197.562 105 c 1,23,24
 189.507 115 189.507 115 182.256 124 c 0,25,26
 71.1904 278 71.1904 278 120.563 532 c 0,27,28
 170.13 787 170.13 787 340.87 940 c 0,29,30
 511.416 1092 511.416 1092 743.416 1092 c 0,31,32
 844.416 1092 844.416 1092 939.751 1068 c 0,33,34
 1035.28 1045 1035.28 1045 1126.95 997 c 1,35,-1
 1074.08 725 l 1,36,-1
 967.079 725 l 1,37,38
 973.292 865 973.292 865 915.732 929 c 0,39,40
 857.173 993 857.173 993 726.173 993 c 0,41,42
 577.173 993 577.173 993 478.819 878 c 0,43,44
 380.271 762 380.271 762 335.563 532 c 0,45,46
 304.657 373 304.657 373 320.247 268 c 1,8,9
EndSplineSet
EndChar
StartChar: uni0256
Encoding: 598 598 598
Width: 1325
Flags: W
TeX: 0 0 0 0
Fore
948.778 -104 m 2,0,1
 923.509 -234 923.509 -234 953.846 -294 c 0,2,3
 985.794 -356 985.794 -356 1076.79 -356 c 0,4,5
 1158.79 -356 1158.79 -356 1210.54 -311 c 0,6,7
 1261.29 -266 1261.29 -266 1286.95 -170 c 1,8,-1
 1381.95 -170 l 1,9,-1
 1339.38 -389 l 1,10,11
 1270.96 -422 1270.96 -422 1201.86 -438 c 0,12,13
 1133.55 -455 1133.55 -455 1061.55 -455 c 0,14,15
 890.551 -455 890.551 -455 810.628 -362 c 0,16,17
 731.899 -268 731.899 -268 763.778 -104 c 2,18,-1
 808.874 128 l 1,19,-1
 816.261 166 l 1,20,21
 742.822 66 742.822 66 650.492 18 c 0,22,23
 557.356 -29 557.356 -29 434.356 -29 c 0,24,25
 238.356 -29 238.356 -29 143.485 126 c 0,26,27
 49.8086 282 49.8086 282 98.4043 532 c 128,-1,28
 146.999 782 146.999 782 301.128 937 c 128,-1,29
 455.257 1092 455.257 1092 652.257 1092 c 0,30,31
 775.257 1092 775.257 1092 849.927 1044 c 0,32,33
 923.791 997 923.791 997 958.353 897 c 1,34,-1
 1065.84 1450 l 1,35,-1
 891.845 1450 l 1,36,-1
 912.449 1556 l 1,37,-1
 1270.45 1556 l 1,38,39
 1109.95 726.283 1109.95 726.283 948.778 -104 c 2,0,1
877.102 479 m 2,40,-1
 897.512 584 l 2,41,42
 934.639 775 934.639 775 881.271 876 c 0,43,44
 826.903 977 826.903 977 686.903 977 c 0,45,46
 544.903 977 544.903 977 451.133 865 c 0,47,48
 356.362 753 356.362 753 313.404 532 c 0,49,50
 270.641 312 270.641 312 321.676 199 c 0,51,52
 371.71 86 371.71 86 513.71 86 c 0,53,54
 653.71 86 653.71 86 747.148 186 c 0,55,56
 839.781 287 839.781 287 877.102 479 c 2,40,-1
EndSplineSet
EndChar
StartChar: uni0257
Encoding: 599 599 599
Width: 1398
Flags: W
TeX: 0 0 0 0
Fore
915.95 897 m 1,1,-1
 975.819 1205 l 2,2,3
 1007.7 1369 1007.7 1369 1123.77 1462 c 0,4,5
 1239.05 1556 1239.05 1556 1410.05 1556 c 0,6,7
 1482.05 1556 1482.05 1556 1544.94 1540 c 0,8,9
 1606.63 1523 1606.63 1523 1662.22 1490 c 1,10,-1
 1619.65 1271 l 1,11,-1
 1524.65 1271 l 1,12,13
 1536.31 1367 1536.31 1367 1502.06 1412 c 0,14,15
 1468.8 1457 1468.8 1457 1386.8 1457 c 0,16,17
 1295.8 1457 1295.8 1457 1240.95 1396 c 0,18,19
 1186.48 1337 1186.48 1337 1160.82 1205 c 2,20,-1
 947.195 106 l 1,21,-1
 1123.2 106 l 1,22,-1
 1102.59 0 l 1,23,-1
 742.591 0 l 1,24,-1
 774.857 166 l 1,25,26
 701.42 66 701.42 66 609.09 18 c 0,27,28
 515.953 -29 515.953 -29 392.953 -29 c 0,29,30
 196.953 -29 196.953 -29 102.083 126 c 0,31,32
 8.40625 282 8.40625 282 57.001 532 c 128,-1,33
 105.596 782 105.596 782 259.725 937 c 128,-1,34
 413.854 1092 413.854 1092 610.854 1092 c 0,35,36
 733.854 1092 733.854 1092 808.523 1044 c 0,37,38
 881.388 997 881.388 997 915.95 897 c 1,1,-1
835.699 479 m 2,39,-1
 856.108 584 l 2,40,41
 893.235 775 893.235 775 839.868 876 c 0,42,43
 785.5 977 785.5 977 645.5 977 c 0,44,45
 503.5 977 503.5 977 409.729 865 c 0,46,47
 314.959 753 314.959 753 272.001 532 c 0,48,49
 229.237 312 229.237 312 280.272 199 c 0,50,51
 330.308 86 330.308 86 472.308 86 c 0,52,53
 612.308 86 612.308 86 705.745 186 c 0,54,55
 798.378 287 798.378 287 835.699 479 c 2,39,-1
EndSplineSet
EndChar
StartChar: uni0258
Encoding: 600 600 600
Width: 1212
Flags: W
AnchorPoint: "above" 724 1092 basechar 0
Fore
98.21 512 m 1,0,1
 158.219 795 158.219 795 316.182 944 c 0,2,3
 473.95 1092 473.95 1092 714.95 1092 c 0,4,5
 940.95 1092 940.95 1092 1050.02 938 c 128,-1,6
 1159.08 784 1159.08 784 1110.1 532 c 0,7,8
 1060.72 278 1060.72 278 888.79 124 c 0,9,10
 718.05 -29 718.05 -29 485.05 -29 c 0,11,12
 292.05 -29 292.05 -29 190.155 59 c 0,13,14
 89.2607 147 89.2607 147 79.2773 322 c 1,15,-1
 227.277 322 l 1,16,17
 233.979 197 233.979 197 298.733 134 c 0,18,19
 364.294 70 364.294 70 485.294 70 c 0,20,21
 643.294 70 643.294 70 745.676 180 c 0,22,23
 847.863 289 847.863 289 889.654 504 c 2,24,-1
 891.21 512 l 1,25,-1
 98.21 512 l 1,0,1
335.813 618 m 1,26,-1
 911.813 618 l 1,27,28
 931.774 803 931.774 803 877.24 898 c 128,-1,29
 822.707 993 822.707 993 695.706 993 c 0,30,31
 559.707 993 559.707 993 469.24 898 c 0,32,33
 377.969 804 377.969 804 335.813 618 c 1,26,-1
EndSplineSet
EndChar
StartChar: uni0259
Encoding: 601 601 601
Width: 1212
Flags: W
AnchorPoint: "above" 724 1092 basechar 0
Fore
105.79 551 m 1,0,-1
 898.79 551 l 1,1,-1
 900.346 559 l 2,2,3
 942.137 774 942.137 774 882.52 884 c 0,4,5
 822.707 993 822.707 993 664.706 993 c 0,6,7
 543.707 993 543.707 993 453.461 930 c 0,8,9
 364.021 866 364.021 866 308.723 741 c 1,10,-1
 160.723 741 l 1,11,12
 238.739 916 238.739 916 373.845 1004 c 0,13,14
 509.95 1092 509.95 1092 702.95 1092 c 0,15,16
 935.95 1092 935.95 1092 1047.02 938 c 0,17,18
 1159.28 785 1159.28 785 1109.9 531 c 0,19,20
 1060.92 279 1060.92 279 891.984 125 c 128,-1,21
 723.05 -29 723.05 -29 497.05 -29 c 0,22,23
 256.05 -29 256.05 -29 156.013 120 c 0,24,25
 55.7812 268 55.7812 268 105.79 551 c 1,0,-1
302.187 445 m 1,26,27
 272.031 259 272.031 259 326.565 164 c 0,28,29
 380.294 70 380.294 70 516.294 70 c 0,30,31
 643.294 70 643.294 70 734.76 165 c 128,-1,32
 826.226 260 826.226 260 878.187 445 c 1,33,-1
 302.187 445 l 1,26,27
EndSplineSet
EndChar
StartChar: uni025A
Encoding: 602 602 602
Width: 1727
Flags: W
TeX: 0 0 0 0
AnchorPoint: "above" 724 1092 basechar 0
Fore
1819.11 757 m 1,0,1
 1878.67 679 l 1,46,-1
 1792.44 631.119 1792.44 631.119 1789.15 630 c 0,44,45
 1739.09 613 1739.09 613 1644 613 c 0,42,43
 1530.36 613 1530.36 613 1452.82 706 c 0,40,41
 1385.02 787.302 1385.02 787.302 1399.03 919.215 c 1,38,39
 1116.22 773.096 l 1,37,-1
 1136.13 665.938 1136.13 665.938 1109.9 531 c 0,35,36
 1060.92 279 1060.92 279 891.984 125 c 0,33,34
 723.05 -29 723.05 -29 497.05 -29 c 0,31,32
 254.763 -29 254.763 -29 156.013 120 c 0,29,30
 77.9385 237.8 77.9385 237.8 86.4346 350 c 1,27,28
 914.104 778.271 l 1,26,-1
 906.548 839.664 906.548 839.664 882.52 884 c 0,24,25
 822.705 993 822.705 993 664.706 993 c 0,22,23
 543.707 993 543.707 993 453.461 930 c 0,20,21
 365.021 868.26 365.021 868.26 308.723 741 c 1,18,19
 160.723 741 l 1,17,-1
 238.741 916.001 238.741 916.001 373.845 1004 c 0,15,16
 509.952 1092 509.952 1092 702.95 1092 c 0,13,14
 935.949 1092 935.949 1092 1047.02 938 c 0,11,12
 1070.74 905.105 1070.74 905.105 1087.23 867.854 c 1,9,10
 1390.93 1025 l 1,8,-1
 1504.55 1025 l 1,7,-1
 1492.69 964 l 2,6,-1
 1467.23 833.006 1467.23 833.006 1521.28 774 c 0,4,5
 1577.87 712 1577.87 712 1660.09 712 c 0,2,3
 1798.42 712 1798.42 712 1819.11 757 c 1,0,1
915.675 669.484 m 1,47,48
 296.654 349.664 l 1,58,-1
 278.93 249.134 278.93 249.134 326.565 164 c 0,56,57
 380.295 70 380.295 70 516.294 70 c 0,54,55
 649.931 70 649.931 70 734.76 165 c 0,52,53
 817.214 257.339 817.214 257.339 894.902 531 c 1,50,51
 900.346 559 l 2,49,-1
 911.857 618.226 911.857 618.226 915.675 669.484 c 1,47,48
EndSplineSet
EndChar
StartChar: uni025B
Encoding: 603 603 603
Width: 1042
Flags: W
TeX: 0 0 0 0
AnchorPoint: "above" 660 1092 basechar 0
Fore
429.369 -36 m 0,0,1
 204.369 -36 204.369 -36 113.337 41 c 128,-1,2
 22.3037 118 22.3037 118 49.7119 259 c 0,3,4
 69.7324 362 69.7324 362 158.534 433 c 0,5,6
 248.335 504 248.335 504 388 528 c 1,7,8
 257.665 552 257.665 552 195.66 624 c 0,9,10
 134.462 695 134.462 695 154.288 797 c 0,11,12
 181.696 938 181.696 938 302.663 1015 c 128,-1,13
 423.631 1092 423.631 1092 620.631 1092 c 0,14,15
 704.631 1092 704.631 1092 795.938 1073 c 0,16,17
 887.438 1055 887.438 1055 984.246 1018 c 1,18,-1
 942.454 803 l 1,19,-1
 843.454 803 l 1,20,21
 851.532 896 851.532 896 798.279 941 c 0,22,23
 745.221 987 745.221 987 628.221 987 c 0,24,25
 520.221 987 520.221 987 452.112 935 c 0,26,27
 385.199 884 385.199 884 366.733 789 c 0,28,29
 346.129 683 346.129 683 406.021 631 c 0,30,31
 466.719 578 466.719 578 604.719 578 c 2,32,-1
 642.719 578 l 1,33,-1
 623.281 478 l 17,34,-1
 585.281 478 l 2,35,36
 447.281 478 447.281 478 366.173 426 c 0,37,38
 285.871 373 285.871 373 265.461 268 c 0,39,40
 246.801 172 246.801 172 293.888 121 c 0,41,42
 341.168 71 341.168 71 449.974 70 c 0,43,44
 564.779 69 564.779 69 635.721 115 c 128,-1,45
 706.662 161 706.662 161 750.766 285 c 1,46,-1
 900.766 285 l 1,47,48
 853.69 156 853.69 156 743.836 59 c 0,49,50
 636.369 -36 636.369 -36 429.369 -36 c 0,0,1
EndSplineSet
EndChar
StartChar: uni025C
Encoding: 604 604 604
Width: 1042
Flags: W
TeX: 0 0 0 0
AnchorPoint: "above" 680 1092 basechar 0
Fore
401.369 -36 m 0,0,1
 194.369 -36 194.369 -36 123.836 59 c 0,2,3
 51.6904 156 51.6904 156 54.7656 285 c 1,4,-1
 204.766 285 l 1,5,6
 200.662 161 200.662 161 253.721 115 c 128,-1,7
 306.779 69 306.779 69 421.974 70 c 0,8,9
 531.168 71 531.168 71 597.888 121 c 0,10,11
 664.801 172 664.801 172 683.461 268 c 0,12,13
 703.871 373 703.871 373 644.173 426 c 0,14,15
 583.281 478 583.281 478 445.281 478 c 2,16,-1
 407.281 478 l 9,17,-1
 426.719 578 l 1,18,-1
 464.719 578 l 2,19,20
 602.719 578 602.719 578 684.021 631 c 0,21,22
 764.129 683 764.129 683 784.733 789 c 0,23,24
 803.199 884 803.199 884 756.112 935 c 0,25,26
 708.221 987 708.221 987 600.221 987 c 0,27,28
 483.221 987 483.221 987 412.279 941 c 0,29,30
 341.532 896 341.532 896 313.454 803 c 1,31,-1
 214.454 803 l 1,32,-1
 256.246 1018 l 1,33,34
 367.438 1055 367.438 1055 465.938 1073 c 0,35,36
 564.631 1092 564.631 1092 648.631 1092 c 0,37,38
 845.631 1092 845.631 1092 936.663 1015 c 128,-1,39
 1027.7 938 1027.7 938 1000.29 797 c 0,40,41
 980.462 695 980.462 695 891.66 624 c 0,42,43
 801.665 552 801.665 552 662 528 c 1,44,45
 792.335 504 792.335 504 854.534 433 c 0,46,47
 915.732 362 915.732 362 895.712 259 c 0,48,49
 868.304 118 868.304 118 747.337 41 c 128,-1,50
 626.369 -36 626.369 -36 401.369 -36 c 0,0,1
EndSplineSet
EndChar
StartChar: uni025D
Encoding: 605 605 605
Width: 1583
Flags: W
TeX: 0 0 0 0
AnchorPoint: "above" 680 1092 basechar 0
Fore
401.369 -36 m 0,0,1
 194.369 -36 194.369 -36 123.836 59 c 0,2,3
 51.6895 156.001 51.6895 156.001 54.7656 285 c 1,4,-1
 204.766 285 l 1,5,6
 200.664 160.997 200.664 160.997 253.721 115 c 0,7,8
 306.78 69.001 306.78 69.001 421.974 70 c 0,9,10
 531.168 70.999 531.168 70.999 597.888 121 c 0,11,12
 664.801 172 664.801 172 683.461 268 c 0,13,14
 703.871 372.998 703.871 372.998 644.173 426 c 0,15,16
 583.279 478 583.279 478 445.281 478 c 2,17,-1
 407.281 478 l 1,18,-1
 426.719 578 l 1,19,-1
 464.719 578 l 2,20,21
 602.719 578 602.719 578 684.021 631 c 0,22,23
 764.129 683 764.129 683 784.733 789 c 0,24,25
 803.199 884 803.199 884 756.112 935 c 0,26,27
 708.221 987 708.221 987 600.221 987 c 0,28,29
 483.223 987 483.223 987 412.279 941 c 0,30,31
 341.531 896 341.531 896 313.454 803 c 1,32,-1
 214.454 803 l 1,33,-1
 256.246 1018 l 1,34,35
 367.447 1055 367.447 1055 465.938 1073 c 0,36,37
 564.637 1092 564.637 1092 648.631 1092 c 0,38,39
 845.633 1092 845.633 1092 936.663 1015 c 0,40,41
 1019.55 944.889 1019.55 944.889 1004.25 821.722 c 1,42,-1
 1247.94 1025 l 1,43,-1
 1361.56 1025 l 1,44,-1
 1349.7 964 l 2,45,46
 1324.24 833.003 1324.24 833.003 1378.29 774 c 0,47,48
 1434.88 712 1434.88 712 1517.1 712 c 0,49,50
 1655.43 712 1655.43 712 1676.12 757 c 1,51,-1
 1735.68 679 l 1,52,53
 1649.45 631.119 1649.45 631.119 1646.16 630 c 0,54,55
 1596.1 613 1596.1 613 1501.01 613 c 0,56,57
 1387.37 613 1387.37 613 1309.83 706 c 0,58,59
 1242.03 787.302 1242.03 787.302 1256.04 919.215 c 1,60,-1
 910.246 639.889 l 1,61,62
 901.364 631.759 901.364 631.759 891.66 624 c 0,63,64
 883.369 617.367 883.369 617.367 874.657 611.141 c 2,65,-1
 864.578 603 l 1,66,-1
 864.84 604.345 l 1,67,68
 781.646 548.56 781.646 548.56 662 528 c 1,69,70
 792.338 504 792.338 504 854.534 433 c 0,71,72
 915.732 361.999 915.732 361.999 895.712 259 c 0,73,74
 868.305 118.002 868.305 118.002 747.337 41 c 0,75,76
 626.371 -36 626.371 -36 401.369 -36 c 0,0,1
EndSplineSet
EndChar
StartChar: uni025E
Encoding: 606 606 606
Width: 1256
Flags: W
TeX: 0 0 0 0
Fore
815.221 987 m 0,0,1
 803.221 987 803.221 987 711.722 969 c 0,2,3
 668.973 960 668.973 960 590.78 923 c 0,4,5
 326.871 800 326.871 800 273.417 525 c 0,6,7
 223.072 266 223.072 266 436.054 127 c 0,8,9
 448.943 111 448.943 111 539.112 81 c 0,10,11
 574.974 70 574.974 70 636.974 70 c 0,12,13
 744.974 70 744.974 70 812.888 121 c 0,14,15
 879.801 172 879.801 172 898.461 268 c 0,16,17
 918.871 373 918.871 373 859.173 426 c 0,18,19
 798.281 478 798.281 478 660.281 478 c 2,20,-1
 622.281 478 l 9,21,-1
 641.719 578 l 1,22,-1
 679.719 578 l 2,23,24
 817.719 578 817.719 578 899.021 631 c 0,25,26
 979.129 683 979.129 683 999.733 789 c 0,27,28
 1018.2 884 1018.2 884 971.112 935 c 0,29,30
 923.221 987 923.221 987 815.221 987 c 0,0,1
347.754 38 m 0,31,32
 36.1055 189 36.1055 189 102 528 c 0,33,34
 161.869 836 161.869 836 538.246 1018 c 0,35,36
 602.272 1049 602.272 1049 708.132 1074 c 0,37,38
 789.631 1092 789.631 1092 863.631 1092 c 0,39,40
 1059.63 1092 1059.63 1092 1151.66 1015 c 0,41,42
 1242.7 938 1242.7 938 1215.29 797 c 0,43,44
 1195.46 695 1195.46 695 1106.66 624 c 0,45,46
 1016.67 552 1016.67 552 877 528 c 1,47,48
 1007.33 504 1007.33 504 1069.53 433 c 0,49,50
 1130.73 362 1130.73 362 1110.71 259 c 0,51,52
 1083.3 118 1083.3 118 962.337 41 c 128,-1,53
 841.369 -36 841.369 -36 644.369 -36 c 0,54,55
 604.369 -36 604.369 -36 496.062 -17 c 0,56,57
 442.034 -12 442.034 -12 347.754 38 c 0,31,32
EndSplineSet
EndChar
StartChar: uni025F
Encoding: 607 607 607
Width: 645
Flags: W
Fore
376.736 956 m 1,0,-1
 202.736 956 l 1,1,-1
 223.534 1063 l 1,2,-1
 581.534 1063 l 1,3,-1
 395.707 107 l 1,4,-1
 396.707 107 l 1,5,-1
 559.707 107 l 1,6,-1
 538.908 0 l 1,7,-1
 374.908 -0 l 1,8,-1
 354.692 -104 l 2,9,10
 322.814 -268.002 322.814 -268.002 206.543 -362 c 0,11,12
 91.4668 -455 91.4668 -455 -79.5342 -455 c 0,13,14
 -151.538 -455 -151.538 -455 -214.23 -438 c 0,15,16
 -276.114 -422.003 -276.114 -422.003 -331.705 -389 c 1,17,-1
 -289.137 -170 l 1,18,-1
 -194.137 -170 l 1,19,20
 -205.798 -265.998 -205.798 -265.998 -171.544 -311 c 0,21,22
 -138.291 -356 -138.291 -356 -56.291 -356 c 0,23,24
 34.7109 -356 34.7109 -356 89.7607 -294 c 0,25,26
 145.617 -233.002 145.617 -233.002 170.692 -104 c 2,27,-1
 190.908 0 l 1,28,-1
 -59.0918 0 l 1,29,-1
 -38.293 107 l 1,30,-1
 211.707 107 l 1,31,-1
 376.736 956 l 1,0,-1
EndSplineSet
EndChar
StartChar: uni0260
Encoding: 608 608 608
Width: 1399
Flags: W
TeX: 0 0 0 0
Fore
897.512 584 m 17,0,-1
 970.821 956 l 1,1,-1
 682.821 956 l 1,2,3
 540.821 956 540.821 956 446.551 844 c 128,-1,4
 352.28 732 352.28 732 313.404 532 c 0,5,6
 270.641 312 270.641 312 321.176 199 c 128,-1,7
 371.71 86 371.71 86 513.71 86 c 0,8,9
 653.71 86 653.71 86 746.745 186.5 c 128,-1,10
 839.781 287 839.781 287 877.102 479 c 2,11,-1
 897.512 584 l 17,0,-1
1199.5 1191 m 17,12,-1
 972.465 23 l 2,13,14
 927.992 -205.79 927.992 -205.79 777.751 -330.5 c 0,15,16
 627.551 -455 627.551 -455 394.551 -455 c 0,17,18
 289.551 -455 289.551 -455 197.244 -436 c 128,-1,19
 104.938 -417 104.938 -417 24.3232 -379 c 1,20,-1
 67.6699 -156 l 1,21,-1
 163.67 -156 l 1,22,23
 161.455 -260 161.455 -260 219.124 -308 c 128,-1,24
 276.794 -356 276.794 -356 401.794 -356 c 0,25,26
 563.794 -356 563.794 -356 657.08 -264.5 c 128,-1,27
 750.366 -173 750.366 -173 788.465 23 c 2,28,-1
 816.261 166 l 1,29,30
 742.822 66 742.822 66 650.09 18.5 c 128,-1,31
 557.356 -29 557.356 -29 434.356 -29 c 0,32,33
 238.356 -29 238.356 -29 144.083 126.5 c 128,-1,34
 49.8086 282 49.8086 282 98.4043 532 c 0,35,36
 141.362 753 141.362 753 295.491 908 c 128,-1,37
 449.62 1063 449.62 1063 646.62 1063 c 0,38,-1
 990.62 1063 l 9,39,-1
 1018.22 1205 l 18,40,41
 1050.1 1369 1050.1 1369 1165.18 1462 c 0,42,43
 1281.45 1556 1281.45 1556 1452.45 1556 c 0,44,45
 1524.45 1556 1524.45 1556 1586.34 1540 c 0,46,47
 1649.04 1523 1649.04 1523 1704.62 1490 c 1,48,-1
 1662.05 1271 l 1,49,-1
 1567.05 1271 l 1,50,51
 1578.71 1367 1578.71 1367 1545.46 1412 c 0,52,53
 1511.21 1457 1511.21 1457 1429.21 1457 c 0,54,55
 1338.21 1457 1338.21 1457 1282.35 1396 c 0,56,57
 1228.69 1336 1228.69 1336 1203.22 1205 c 9,58,-1
 1199.5 1191 l 17,12,-1
EndSplineSet
EndChar
StartChar: uni0261
Encoding: 609 609 609
Width: 1311
Flags: W
TeX: 0 0 0 0
Fore
694.534 1063 m 0,0,-1
 1398.53 1063 l 1,1,-1
 1377.74 956 l 1,2,-1
 1201.74 956 l 1,3,-1
 1020.38 23 l 2,4,5
 975.866 -206 975.866 -206 825.666 -330.5 c 128,-1,6
 675.465 -455 675.465 -455 442.466 -455 c 0,7,8
 337.465 -455 337.465 -455 245.158 -436 c 128,-1,9
 152.852 -417 152.852 -417 72.2383 -379 c 1,10,-1
 115.585 -156 l 1,11,-1
 211.585 -156 l 1,12,13
 209.369 -260 209.369 -260 267.039 -308 c 128,-1,14
 324.709 -356 324.709 -356 449.709 -356 c 0,15,16
 611.709 -356 611.709 -356 704.995 -264.5 c 128,-1,17
 798.28 -173 798.28 -173 836.379 23 c 2,18,-1
 864.176 166 l 1,19,20
 790.737 66 790.737 66 698.005 18.5 c 128,-1,21
 605.271 -29 605.271 -29 482.271 -29 c 0,22,23
 286.271 -29 286.271 -29 191.997 126.5 c 128,-1,24
 97.7236 282 97.7236 282 146.318 532 c 0,25,26
 189.276 753 189.276 753 343.405 908 c 128,-1,27
 497.535 1063 497.535 1063 694.534 1063 c 0,0,-1
945.427 584 m 17,28,-1
 1018.74 956 l 1,29,-1
 730.736 956 l 1,30,31
 588.736 956 588.736 956 494.466 844 c 128,-1,32
 400.194 732 400.194 732 361.318 532 c 0,33,34
 318.555 312 318.555 312 369.09 199 c 128,-1,35
 419.625 86 419.625 86 561.625 86 c 0,36,37
 701.625 86 701.625 86 794.66 186.5 c 128,-1,38
 887.695 287 887.695 287 925.017 479 c 2,39,-1
 945.427 584 l 17,28,-1
EndSplineSet
EndChar
StartChar: uni0262
Encoding: 610 610 610
Width: 1114
Flags: W
TeX: 0 0 0 0
Fore
509.925 -33 m 0,0,-1
538.419 57 m 0,1,-1
950.265 725 m 1,2,3
 951.782 882 951.782 882 898.918 929 c 0,4,5
 829.358 993 829.358 993 709.358 993 c 0,6,7
 579.358 993 579.358 993 464.839 872 c 0,8,9
 352.707 753 352.707 753 305.861 512 c 0,10,11
 258.822 270 258.822 270 328.273 154 c 0,12,13
 387.836 54 387.836 54 625.836 54 c 0,14,15
 686.836 54 686.836 54 763.667 84 c 0,16,17
 820.943 106 820.943 106 834.498 114 c 1,18,-1
 888.091 400 l 1,19,-1
 691.091 400 l 1,20,-1
 706.059 477 l 1,21,-1
 1045.06 477 l 1,22,-1
 966.918 75 l 1,23,24
 863.032 19 863.032 19 749.59 -9 c 0,25,26
 637.147 -37 637.147 -37 515.147 -37 c 0,27,28
 278.147 -37 278.147 -37 164.888 116 c 0,29,30
 52.627 269 52.627 269 102 523 c 0,31,32
 151.567 778 151.567 778 324.308 931 c 0,33,34
 496.853 1083 496.853 1083 737.853 1083 c 0,35,36
 821.853 1083 821.853 1083 918.576 1061 c 0,37,38
 1010.49 1040 1010.49 1040 1110.14 997 c 1,39,-1
 1057.26 725 l 1,40,-1
 950.265 725 l 1,2,3
EndSplineSet
EndChar
StartChar: uni0263
Encoding: 611 611 611
Width: 1458
Flags: W
TeX: 0 0 0 0
Fore
645.004 465 m 0,0,-1
 381.222 960 l 1,1,-1
 221.222 960 l 1,2,-1
 242.021 1067 l 1,3,-1
 834.021 1067 l 1,4,-1
 813.222 960 l 1,5,-1
 637.222 960 l 1,6,-1
 818.438 637 l 1,7,-1
 1100.44 956 l 1,8,-1
 908.444 956 l 1,9,-1
 929.243 1063 l 1,10,-1
 1418.24 1063 l 1,11,-1
 1397.44 956 l 1,12,-1
 1229.44 956 l 1,13,-1
 863.165 543 l 0,14,15
 1200.52 -99.9922 1200.52 -99.9922 975.57 -312 c 0,16,17
 822.779 -456 822.779 -456 541.18 -456 c 16,18,19
 257.18 -456 257.18 -456 247.256 -256 c 0,20,21
 211.979 -75 211.979 -75 645.004 465 c 0,0,-1
692.148 368 m 1,22,23
 394.099 -14.3281 394.099 -14.3281 358.208 -212 c 24,24,25
 333.151 -350 333.151 -350 561.784 -350 c 16,26,27
 779.384 -350 779.384 -350 806.208 -212 c 16,28,29
 859.304 61.1533 859.304 61.1533 692.148 368 c 1,22,23
EndSplineSet
EndChar
StartChar: uni0264
Encoding: 612 612 612
Width: 1155
Flags: W
TeX: 0 0 0 0
Fore
671.002 883 m 1,0,1
 858.712 1087.49 858.712 1087.49 1062.46 1086 c 8,2,3
 1109.97 1085.65 1109.97 1085.65 1129.38 1029 c 1,4,-1
 1114.8 954 l 25,5,-1
 1009.8 954 l 25,6,-1
 1013.5 973 l 26,7,8
 1022.77 1020.72 1022.77 1020.72 974.632 1020 c 0,9,10
 906.769 1020 906.769 1020 717.285 797 c 1,11,12
 958.141 221.351 958.141 221.351 785.748 74 c 0,13,14
 660.576 -31.8633 660.576 -31.8633 432.95 -33 c 0,15,16
 285.494 -33.8574 285.494 -33.8574 193.748 74 c 0,17,18
 61.9385 224.464 61.9385 224.464 530.983 744 c 1,19,20
 431.662 1015.33 431.662 1015.33 383.049 1017 c 0,21,22
 341.329 1018.44 341.329 1018.44 324.138 930 c 26,23,-1
 320.639 912 l 25,24,-1
 218.639 912 l 25,25,-1
 239.632 1020 l 17,26,27
 336.461 1086 336.461 1086 454.045 1089 c 0,28,29
 563.271 1091.79 563.271 1091.79 671.002 883 c 1,0,1
574.267 658 m 1,30,31
 335.206 391.407 335.206 391.407 295.741 182 c 0,32,33
 275.39 74 275.39 74 453.748 74 c 0,34,35
 567.833 74 567.833 74 649.964 178 c 0,36,37
 715.565 258.886 715.565 258.886 574.267 658 c 1,30,31
EndSplineSet
EndChar
StartChar: uni0265
Encoding: 613 613 613
Width: 1319
Flags: W
Fore
586.888 -320 m 17,0,-1
 760.888 -320 l 1,1,-1
 859.634 188 l 1,2,3
 788.029 82 788.029 82 696.144 26 c 0,4,5
 604.453 -29 604.453 -29 497.453 -29 c 0,6,7
 320.453 -29 320.453 -29 256.085 72 c 0,8,9
 192.523 172 192.523 172 234.315 387 c 2,10,-1
 344.917 956 l 1,11,-1
 178.917 956 l 1,12,-1
 199.716 1063 l 1,13,-1
 550.716 1063 l 1,14,-1
 430.395 444 l 2,15,16
 392.685 250 392.685 250 426.689 178 c 0,17,18
 459.694 106 459.694 106 581.694 106 c 0,19,20
 709.694 106 709.694 106 794.966 200 c 128,-1,21
 880.237 294 880.237 294 915.032 473 c 2,22,-1
 1008.92 956 l 1,23,-1
 848.917 956 l 1,24,-1
 869.716 1063 l 1,25,-1
 1213.72 1063 l 1,26,-1
 944.888 -320 l 1,27,-1
 1118.89 -320 l 1,28,-1
 1098.28 -426 l 1,29,-1
 740.284 -426 l 1,30,-1
 566.673 -424 l 1,31,-1
 586.888 -320 l 17,0,-1
EndSplineSet
EndChar
StartChar: uni0266
Encoding: 614 614 614
Width: 1319
Flags: W
Fore
453.66 874 m 1,0,1
 525.653 982 525.653 982 616.345 1037 c 0,2,3
 709.035 1092 709.035 1092 817.035 1092 c 0,4,5
 993.035 1092 993.035 1092 1056.4 991 c 128,-1,6
 1119.77 890 1119.77 890 1078.17 676 c 2,7,-1
 967.376 106 l 1,8,-1
 1131.38 106 l 1,9,-1
 1110.77 0 l 1,10,-1
 602.772 0 l 1,11,-1
 623.376 106 l 1,12,-1
 782.376 106 l 1,13,-1
 881.899 618 l 2,14,15
 919.804 813 919.804 813 886.604 884 c 0,16,17
 852.6 956 852.6 956 730.6 956 c 0,18,19
 602.6 956 602.6 956 517.522 863 c 128,-1,20
 432.445 770 432.445 770 397.846 592 c 2,21,-1
 303.376 106 l 1,22,-1
 463.376 106 l 1,23,-1
 442.772 0 l 1,24,-1
 -67.2275 0 l 1,25,-1
 -46.624 106 l 1,26,-1
 119.376 106 l 1,27,-1
 287.904 973 l 1,28,-1
 333 1205 l 2,29,30
 364.879 1369 364.879 1369 480.956 1462 c 0,31,32
 596.228 1556 596.228 1556 767.228 1556 c 0,33,34
 839.228 1556 839.228 1556 902.118 1540 c 0,35,36
 963.813 1523 963.813 1523 1019.4 1490 c 1,37,-1
 976.829 1271 l 1,38,-1
 881.829 1271 l 1,39,40
 893.49 1367 893.49 1367 859.237 1412 c 0,41,42
 825.984 1457 825.984 1457 743.984 1457 c 0,43,44
 652.984 1457 652.984 1457 598.127 1396 c 0,45,46
 544.047 1339 544.047 1339 518 1205 c 2,47,-1
 453.66 874 l 1,0,1
EndSplineSet
EndChar
StartChar: uni0267
Encoding: 615 615 615
Width: 1319
Flags: W
Fore
497.882 874 m 1,0,1
 569.875 982 569.875 982 660.566 1037 c 0,2,3
 753.257 1092 753.257 1092 861.257 1092 c 0,4,5
 1037.26 1092 1037.26 1092 1100.62 991 c 128,-1,6
 1163.99 890 1163.99 890 1122.39 676 c 2,7,-1
 1015.87 128 l 1,8,-1
 970.778 -104 l 2,9,10
 938.899 -268 938.899 -268 822.628 -362 c 0,11,12
 707.551 -455 707.551 -455 536.551 -455 c 0,13,14
 464.551 -455 464.551 -455 401.855 -438 c 0,15,16
 339.965 -422 339.965 -422 284.38 -389 c 1,17,-1
 326.949 -170 l 1,18,-1
 421.949 -170 l 1,19,20
 410.288 -266 410.288 -266 444.541 -311 c 0,21,22
 477.794 -356 477.794 -356 559.794 -356 c 0,23,24
 650.794 -356 650.794 -356 705.846 -294 c 0,25,26
 760.509 -234 760.509 -234 785.778 -104 c 2,27,-1
 830.874 128 l 1,28,-1
 926.121 618 l 2,29,30
 964.024 813 964.024 813 930.826 884 c 0,31,32
 896.821 956 896.821 956 774.821 956 c 0,33,34
 646.821 956 646.821 956 561.744 863 c 128,-1,35
 476.666 770 476.666 770 442.066 592 c 2,36,-1
 347.598 106 l 1,37,-1
 507.598 106 l 1,38,-1
 486.993 0 l 1,39,-1
 -23.0068 0 l 1,40,-1
 -2.40234 106 l 1,41,-1
 163.598 106 l 1,42,-1
 332.126 973 l 1,43,-1
 377.222 1205 l 2,44,45
 409.101 1369 409.101 1369 525.178 1462 c 0,46,47
 640.449 1556 640.449 1556 811.449 1556 c 0,48,49
 883.449 1556 883.449 1556 946.339 1540 c 0,50,51
 1008.04 1523 1008.04 1523 1063.62 1490 c 1,52,-1
 1021.05 1271 l 1,53,-1
 926.051 1271 l 1,54,55
 937.712 1367 937.712 1367 903.459 1412 c 0,56,57
 870.206 1457 870.206 1457 788.206 1457 c 0,58,59
 697.206 1457 697.206 1457 642.349 1396 c 0,60,61
 587.88 1337 587.88 1337 562.222 1205 c 2,62,-1
 515.765 966 l 1,63,-1
 497.882 874 l 1,0,1
EndSplineSet
EndChar
StartChar: uni0268
Encoding: 616 616 616
Width: 655
Flags: W
Fore
308.139 106 m 1,0,-1
 482.139 106 l 1,1,-1
 461.534 0 l 1,2,-1
 -72.4658 0 l 1,3,-1
 -51.8613 106 l 1,4,-1
 124.139 106 l 1,5,-1
 193.727 464 l 1,6,-1
 17.7266 464 l 1,7,-1
 38.3311 570 l 1,8,-1
 214.331 570 l 1,9,-1
 289.362 956 l 1,10,-1
 113.362 956 l 1,11,-1
 134.161 1063 l 1,12,-1
 494.161 1063 l 1,13,-1
 398.331 570 l 1,14,-1
 572.331 570 l 1,15,-1
 551.727 464 l 1,16,-1
 377.727 464 l 1,17,-1
 308.139 106 l 1,0,-1
323.307 1393 m 0,18,19
 332.248 1439 332.248 1439 371.856 1473 c 0,20,21
 412.466 1507 412.466 1507 459.466 1507 c 0,22,23
 505.465 1507 505.465 1507 531.856 1473 c 0,24,25
 559.248 1439 559.248 1439 550.307 1393 c 0,26,27
 541.17 1346 541.17 1346 501.756 1313 c 128,-1,28
 462.341 1280 462.341 1280 415.341 1280 c 0,29,30
 368.34 1280 368.34 1280 340.756 1313 c 0,31,32
 314.17 1346 314.17 1346 323.307 1393 c 0,18,19
323.307 1393 m 0,33,34
 314.17 1346 314.17 1346 340.756 1313 c 0,45,46
 368.341 1280 368.341 1280 415.341 1280 c 128,-1,44
 462.341 1280 462.341 1280 501.756 1313 c 128,-1,43
 541.17 1346 541.17 1346 550.307 1393 c 0,41,42
 559.248 1439 559.248 1439 531.856 1473 c 0,39,40
 505.466 1507 505.466 1507 459.466 1507 c 0,37,38
 412.466 1507 412.466 1507 371.856 1473 c 0,35,36
 332.248 1439 332.248 1439 323.307 1393 c 0,33,34
EndSplineSet
EndChar
StartChar: uni0269
Encoding: 617 617 617
Width: 803
Flags: W
TeX: 0 0 0 0
Fore
213.914 351 m 1,0,1
 332.515 956 l 1,13,-1
 156.515 956 l 1,12,-1
 177.313 1063 l 1,11,-1
 537.313 1063 l 1,10,-1
 398.914 351 l 1,9,-1
 373.45 220 373.45 220 403.788 160 c 0,7,8
 435.931 99 435.931 99 526.931 99 c 1,5,6
 507.687 0 l 17,4,-1
 336.687 0 336.687 0 256.959 94 c 0,2,3
 181.259 183 181.259 183 213.914 351 c 1,0,1
EndSplineSet
EndChar
StartChar: uni026A
Encoding: 618 618 618
Width: 655
Flags: W
TeX: 0 0 0 0
AnchorPoint: "above" 464 1092 basechar 0
Fore
351.291 106 m 1,0,-1
 525.291 106 l 1,1,-1
 504.687 0 l 1,2,-1
 -29.3135 0 l 1,3,-1
 -8.70898 106 l 1,4,-1
 167.291 106 l 1,5,-1
 332.515 956 l 1,6,-1
 156.515 956 l 1,7,-1
 177.313 1063 l 1,8,-1
 711.313 1063 l 1,9,-1
 691.292 960 l 1,10,-1
 517.292 960 l 1,11,-1
 351.291 106 l 1,0,-1
EndSplineSet
EndChar
StartChar: uni026B
Encoding: 619 619 619
Width: 779
Flags: W
Fore
360.376 106 m 1,0,-1
 534.376 106 l 1,1,-1
 513.772 0 l 1,2,-1
 -21.2275 0 l 1,3,-1
 -0.624023 106 l 1,4,-1
 176.376 106 l 1,5,-1
 300.479 744.45 l 1,6,7
 297.269 746.492 297.269 746.492 294.169 748 c 0,8,9
 278.725 756 278.725 756 259.724 756 c 0,10,11
 217.725 756 217.725 756 185.948 716 c 0,12,13
 154.369 677.002 154.369 677.002 134.595 601 c 1,14,-1
 38.5947 601 l 1,15,16
 66.8369 736 66.8369 736 132.22 810 c 0,17,18
 197.411 883 197.411 883 288.41 883 c 0,19,20
 308.771 883 308.771 883 326.629 878.981 c 1,21,-1
 437.624 1450 l 1,22,-1
 260.624 1450 l 1,23,-1
 281.228 1556 l 1,24,-1
 642.228 1556 l 1,25,-1
 484.369 743.886 l 1,26,27
 490.597 738.689 490.597 738.689 495.836 736 c 0,28,29
 511.28 728 511.28 728 532.281 728 c 0,30,31
 575.28 728 575.28 728 607.057 768 c 0,32,33
 638.833 808.001 638.833 808.001 657.41 883 c 1,34,-1
 753.41 883 l 1,35,36
 725.168 748 725.168 748 659.784 674 c 0,37,38
 594.594 601 594.594 601 503.595 601 c 0,39,40
 478.818 601 478.818 601 457.751 606.951 c 1,41,-1
 360.376 106 l 1,0,-1
EndSplineSet
EndChar
StartChar: uni026C
Encoding: 620 620 620
Width: 930
Flags: W
TeX: 0 0 0 0
Fore
508.376 106 m 1,0,-1
 682.376 106 l 1,1,-1
 661.772 0 l 1,2,-1
 126.772 0 l 1,3,-1
 147.376 106 l 1,4,-1
 323.376 106 l 1,5,-1
 393.742 468 l 1,6,7
 14.9209 469 14.9209 469 51.8408 664 c 0,8,9
 95.3535 893 95.3535 893 331.548 894 c 0,10,11
 418.548 894 418.548 894 466.663 838 c 1,12,-1
 585.624 1450 l 1,13,-1
 408.624 1450 l 1,14,-1
 429.228 1556 l 1,15,-1
 790.228 1556 l 1,16,-1
 597.402 564 l 1,17,-1
 841.402 564 l 1,18,-1
 822.159 465 l 1,19,-1
 578.159 465 l 1,20,-1
 508.376 106 l 1,0,-1
402.402 564 m 1,21,22
 424.749 787 424.749 787 352.555 786 c 0,23,24
 293.36 785 293.36 785 271.201 671 c 0,25,26
 250.791 566 250.791 566 402.402 564 c 1,21,22
EndSplineSet
EndChar
StartChar: uni026D
Encoding: 621 621 621
Width: 743
Flags: W
Fore
410.845 1450 m 1,0,-1
 233.845 1450 l 1,1,-1
 254.449 1556 l 1,2,-1
 615.449 1556 l 1,3,-1
 292.778 -104 l 2,4,5
 267.509 -234 267.509 -234 297.846 -294 c 0,6,7
 329.794 -356 329.794 -356 420.794 -356 c 0,8,9
 502.794 -356 502.794 -356 554.541 -311 c 0,10,11
 605.288 -266 605.288 -266 630.949 -170 c 1,12,-1
 725.949 -170 l 1,13,-1
 683.38 -389 l 1,14,15
 614.965 -422 614.965 -422 545.855 -438 c 0,16,17
 477.551 -455 477.551 -455 405.551 -455 c 0,18,19
 234.551 -455 234.551 -455 154.628 -362 c 0,20,21
 75.8994 -268 75.8994 -268 107.778 -104 c 0,22,23
 259.065 673.305 259.065 673.305 410.845 1450 c 1,0,-1
EndSplineSet
EndChar
StartChar: uni026E
Encoding: 622 622 622
Width: 1442
Flags: W
TeX: 0 0 0 0
Fore
789.508 423 m 2,0,-1
 694.508 423 l 1,1,-1
 714.335 525 l 1,2,-1
 1128.11 956 l 1,3,-1
 601.112 956 l 1,4,-1
 565.347 772 l 1,5,-1
 463.347 772 l 1,6,-1
 333.89 106 l 1,7,-1
 507.89 106 l 1,8,-1
 487.285 0 l 1,9,-1
 -47.7148 0 l 1,10,-1
 -27.1104 106 l 1,11,-1
 149.89 106 l 1,12,-1
 411.137 1450 l 1,13,-1
 234.137 1450 l 1,14,-1
 254.741 1556 l 1,15,-1
 615.741 1556 l 1,16,-1
 519.911 1063 l 1,17,-1
 1385.91 1063 l 1,18,-1
 1369.19 977 l 1,19,-1
 906.31 494 l 1,20,-1
 983.948 487 l 2,21,22
 1162.31 458 1162.31 458 1240.79 337 c 0,23,24
 1318.47 217 1318.47 217 1281.14 25 c 0,25,26
 1235.66 -209 1235.66 -209 1070.36 -334 c 0,27,28
 906.259 -458 906.259 -458 642.259 -458 c 0,29,30
 525.757 -458 525.757 -458 419.702 -430 c 0,31,32
 312.72 -401.756 312.72 -401.756 214.224 -345 c 1,33,-1
 277.203 -21 l 1,34,-1
 389.203 -21 l 1,35,36
 367.908 -182 367.908 -182 438.774 -265 c 0,37,38
 509.641 -348 509.641 -348 667.641 -348 c 0,39,40
 820.641 -348 820.641 -348 929.079 -248 c 0,41,42
 1036.32 -149 1036.32 -149 1069.76 23 c 0,43,44
 1108.05 220 1108.05 220 1036.88 322 c 0,45,46
 965.508 423 965.508 423 789.508 423 c 2,0,-1
EndSplineSet
EndChar
StartChar: uni026F
Encoding: 623 623 623
Width: 1942
Flags: W
Fore
838.742 236 m 1,0,1
 763 119 763 119 669.531 60 c 0,2,3
 574.868 0 574.868 0 464.868 0 c 0,4,5
 297.868 0 297.868 0 236.084 104 c 0,6,7
 174.105 207 174.105 207 214.73 416 c 2,8,-1
 325.527 986 l 1,9,-1
 159.527 986 l 1,10,-1
 180.132 1092 l 1,11,-1
 530.132 1092 l 1,12,-1
 402.812 437 l 2,13,14
 371.129 274 371.129 274 405.717 205 c 128,-1,15
 440.304 136 440.304 136 551.304 136 c 0,16,17
 674.304 136 674.304 136 756.382 229 c 0,18,19
 839.459 322 839.459 322 874.059 500 c 2,20,-1
 968.527 986 l 1,21,-1
 808.527 986 l 1,22,-1
 829.132 1092 l 1,23,-1
 1173.13 1092 l 1,24,-1
 1044.45 430 l 2,25,26
 1013.55 271 1013.55 271 1048.52 204 c 0,27,28
 1083.3 136 1083.3 136 1194.3 136 c 0,29,30
 1317.3 136 1317.3 136 1400.38 229 c 0,31,32
 1482.46 322 1482.46 322 1517.06 500 c 2,33,-1
 1611.53 986 l 1,34,-1
 1451.53 986 l 1,35,-1
 1472.13 1092 l 1,36,-1
 1816.13 1092 l 1,37,-1
 1629.92 134 l 1,38,-1
 1805.92 134 l 1,39,-1
 1785.51 29 l 1,40,-1
 1425.51 29 l 1,41,-1
 1462.24 218 l 1,42,43
 1390.64 112 1390.64 112 1300.75 56 c 128,-1,44
 1210.87 0 1210.87 0 1110.87 0 c 0,45,46
 986.868 0 986.868 0 915.92 62 c 0,47,48
 844.777 123 844.777 123 838.742 236 c 1,0,1
EndSplineSet
EndChar
StartChar: uni0270
Encoding: 624 624 624
Width: 1942
Flags: W
Fore
1583.26 -319 m 1,0,-1
 1759.26 -319 l 1,1,-1
 1738.47 -426 l 1,2,-1
 1204.47 -426 l 1,3,-1
 1225.26 -319 l 1,4,-1
 1399.26 -319 l 1,5,-1
 1503.65 218 l 1,6,7
 1432.04 112 1432.04 112 1342.16 56 c 128,-1,8
 1252.27 0 1252.27 0 1152.27 0 c 0,9,10
 1028.27 0 1028.27 0 957.323 62 c 0,11,12
 886.18 123 886.18 123 880.146 236 c 1,13,14
 804.402 119 804.402 119 710.935 60 c 0,15,16
 616.271 0 616.271 0 506.271 0 c 0,17,18
 339.271 0 339.271 0 277.487 104 c 0,19,20
 215.508 207 215.508 207 256.134 416 c 2,21,-1
 366.931 986 l 1,22,-1
 200.931 986 l 1,23,-1
 221.534 1092 l 1,24,-1
 571.534 1092 l 1,25,-1
 444.216 437 l 2,26,27
 412.531 274 412.531 274 447.119 205 c 128,-1,28
 481.707 136 481.707 136 592.707 136 c 0,29,30
 715.707 136 715.707 136 797.784 229 c 0,31,32
 880.861 322 880.861 322 915.462 500 c 2,33,-1
 1009.93 986 l 1,34,-1
 849.931 986 l 1,35,-1
 870.534 1092 l 1,36,-1
 1214.53 1092 l 1,37,-1
 1085.85 430 l 2,38,39
 1054.95 271 1054.95 271 1089.92 204 c 0,40,41
 1124.71 136 1124.71 136 1235.71 136 c 0,42,43
 1358.71 136 1358.71 136 1441.78 229 c 0,44,45
 1523.86 322 1523.86 322 1558.46 500 c 2,46,-1
 1652.93 986 l 1,47,-1
 1492.93 986 l 1,48,-1
 1513.53 1092 l 1,49,-1
 1857.53 1092 l 1,50,-1
 1583.26 -319 l 1,0,-1
EndSplineSet
EndChar
StartChar: uni0271
Encoding: 625 625 625
Width: 1942
Flags: W
Fore
1638.87 -104 m 0,0,1
 1607 -268 1607 -268 1491.72 -362 c 0,2,3
 1375.65 -455 1375.65 -455 1204.65 -455 c 0,4,5
 1132.65 -455 1132.65 -455 1070.95 -438 c 0,6,7
 1008.07 -422.002 1008.07 -422.002 952.476 -389 c 1,8,-1
 995.045 -170 l 1,9,-1
 1090.04 -170 l 1,10,11
 1078.38 -265.999 1078.38 -265.999 1111.64 -311 c 0,12,13
 1145.89 -356 1145.89 -356 1227.89 -356 c 0,14,15
 1318.89 -356 1318.89 -356 1374.94 -294 c 0,16,17
 1428.6 -234 1428.6 -234 1453.87 -104 c 2,18,-1
 1601.41 655 l 2,19,20
 1633.09 818 1633.09 818 1598.5 887 c 0,21,22
 1563.92 956 1563.92 956 1452.92 956 c 0,23,24
 1329.92 956 1329.92 956 1247.84 863 c 0,25,26
 1164.76 770.001 1164.76 770.001 1130.16 592 c 2,27,-1
 1035.69 106 l 1,28,-1
 1195.69 106 l 1,29,-1
 1175.09 0 l 1,30,-1
 671.09 0 l 1,31,-1
 691.694 106 l 1,32,-1
 851.694 106 l 1,33,-1
 959.77 662 l 2,34,35
 990.676 821.001 990.676 821.001 955.699 888 c 0,36,37
 920.918 956 920.918 956 809.917 956 c 0,38,39
 686.918 956 686.918 956 603.84 863 c 0,40,41
 521.763 769.999 521.763 769.999 487.163 592 c 2,42,-1
 392.694 106 l 1,43,-1
 552.694 106 l 1,44,-1
 532.09 0 l 1,45,-1
 22.0898 0 l 1,46,-1
 42.6943 106 l 1,47,-1
 208.694 106 l 1,48,-1
 374.307 958 l 1,49,-1
 198.307 958 l 1,50,-1
 218.716 1063 l 1,51,-1
 578.716 1063 l 1,52,-1
 541.979 874 l 1,53,54
 613.581 979.998 613.581 979.998 703.468 1036 c 0,55,56
 793.352 1092 793.352 1092 893.354 1092 c 0,57,58
 1017.35 1092 1017.35 1092 1088.3 1030 c 0,59,60
 1159.44 969.001 1159.44 969.001 1165.48 856 c 1,61,62
 1241.22 972.999 1241.22 972.999 1334.69 1032 c 0,63,64
 1429.35 1092 1429.35 1092 1539.35 1092 c 0,65,66
 1706.35 1092 1706.35 1092 1768.14 988 c 0,67,68
 1830.12 885 1830.12 885 1789.49 676 c 0,69,70
 1714.14 283.482 1714.14 283.482 1638.87 -104 c 0,0,1
EndSplineSet
EndChar
StartChar: uni0272
Encoding: 626 626 626
Width: 1318
Flags: W
Fore
351.874 -104 m 0,0,1
 319.995 -268.002 319.995 -268.002 203.725 -362 c 0,2,3
 88.6475 -455 88.6475 -455 -82.3535 -455 c 0,4,5
 -154.357 -455 -154.357 -455 -217.049 -438 c 0,6,7
 -278.934 -422.003 -278.934 -422.003 -334.524 -389 c 1,8,-1
 -291.955 -170 l 1,9,-1
 -196.955 -170 l 1,10,11
 -208.616 -265.998 -208.616 -265.998 -174.362 -311 c 0,12,13
 -141.109 -356 -141.109 -356 -59.1094 -356 c 0,14,15
 31.8926 -356 31.8926 -356 86.9424 -294 c 0,16,17
 141.605 -233.999 141.605 -233.999 166.874 -104 c 2,18,-1
 372.917 956 l 1,19,-1
 196.917 956 l 1,20,-1
 217.716 1063 l 1,21,-1
 577.716 1063 l 1,22,-1
 540.979 874 l 1,23,24
 612.972 982 612.972 982 705.662 1037 c 0,25,26
 797.354 1092 797.354 1092 905.354 1092 c 0,27,28
 1081.35 1092 1081.35 1092 1144.72 991 c 0,29,30
 1208.09 890 1208.09 890 1166.49 676 c 2,31,-1
 1055.69 106 l 1,32,-1
 1219.69 106 l 1,33,-1
 1199.09 0 l 1,34,-1
 691.09 0 l 1,35,-1
 711.694 106 l 1,36,-1
 870.694 106 l 1,37,-1
 970.217 618 l 2,38,39
 1008.12 813.001 1008.12 813.001 974.311 886 c 0,40,41
 940.307 958 940.307 958 819.307 958 c 0,42,43
 691.307 958 691.307 958 606.034 864 c 0,44,45
 520.957 770.999 520.957 770.999 486.163 592 c 0,46,47
 419.083 241.757 419.083 241.757 351.874 -104 c 0,0,1
EndSplineSet
EndChar
StartChar: uni0273
Encoding: 627 627 627
Width: 1421
Flags: W
Fore
971.217 618 m 2,0,1
 1009.12 813.001 1009.12 813.001 975.311 886 c 0,2,3
 941.307 958 941.307 958 820.307 958 c 0,4,5
 692.307 958 692.307 958 607.034 864 c 0,6,7
 521.957 770.999 521.957 770.999 487.163 592 c 2,8,-1
 392.694 106 l 1,9,-1
 552.694 106 l 1,10,-1
 532.09 0 l 1,11,-1
 22.0898 0 l 1,12,-1
 42.6943 106 l 1,13,-1
 208.694 106 l 1,14,-1
 373.917 956 l 1,15,-1
 197.917 956 l 1,16,-1
 218.716 1063 l 1,17,-1
 578.716 1063 l 1,18,-1
 541.979 874 l 1,19,20
 613.973 982.001 613.973 982.001 705.662 1037 c 0,21,22
 798.354 1092 798.354 1092 906.354 1092 c 0,23,24
 1080.36 1092 1080.36 1092 1145.72 991 c 0,25,26
 1209.48 892.001 1209.48 892.001 1167.49 676 c 2,27,-1
 1015.87 -104 l 2,28,29
 990.604 -234 990.604 -234 1020.94 -294 c 0,30,31
 1052.89 -356 1052.89 -356 1143.89 -356 c 0,32,33
 1225.89 -356 1225.89 -356 1277.64 -311 c 0,34,35
 1328.38 -265.999 1328.38 -265.999 1354.04 -170 c 1,36,-1
 1449.04 -170 l 1,37,-1
 1406.48 -389 l 1,38,39
 1338.05 -422.002 1338.05 -422.002 1268.95 -438 c 0,40,41
 1200.65 -455 1200.65 -455 1128.65 -455 c 0,42,43
 957.646 -455 957.646 -455 877.725 -362 c 0,44,45
 798.996 -268 798.996 -268 830.874 -104 c 2,46,-1
 971.217 618 l 2,0,1
EndSplineSet
EndChar
StartChar: uni0274
Encoding: 628 628 628
Width: 1323
Flags: W
TeX: 0 0 0 0
Fore
-19.1191 0 m 1,0,-1
 1.48535 106 l 1,1,-1
 140.485 106 l 1,2,-1
 311.957 983 l 1,3,-1
 172.957 983 l 1,4,-1
 193.756 1090 l 1,5,-1
 576.756 1090 l 1,6,-1
 896.111 315 l 1,7,-1
 1025.96 983 l 1,8,-1
 825.957 983 l 1,9,-1
 846.756 1090 l 1,10,-1
 1370.76 1090 l 1,11,-1
 1349.96 983 l 1,12,-1
 1207.96 983 l 1,13,-1
 1010.24 -29 l 1,14,-1
 830.244 -29 l 1,15,-1
 466.439 826 l 1,16,-1
 325.485 106 l 1,17,-1
 526.485 106 l 1,18,-1
 505.881 0 l 1,19,-1
 -19.1191 0 l 1,0,-1
EndSplineSet
EndChar
StartChar: uni0275
Encoding: 629 629 629
Width: 1233
Flags: W
Fore
526.294 70 m 0,0,1
 674.295 70 674.295 70 773.036 187 c 0,2,3
 855.631 285.869 855.631 285.869 900.078 464 c 1,4,-1
 305.704 464 l 1,5,6
 281.032 285.87 281.032 285.87 326.036 187 c 0,7,8
 379.293 70 379.293 70 526.294 70 c 0,0,1
325.026 570 m 1,9,-1
 921.94 570 l 1,10,11
 954.952 769.872 954.952 769.872 906.964 876 c 0,12,13
 853.707 993 853.707 993 705.706 993 c 0,14,15
 557.705 993 557.705 993 458.964 876 c 0,16,17
 369.718 769.872 369.718 769.872 325.026 570 c 1,9,-1
507.05 -29 m 0,18,19
 275.05 -29 275.05 -29 163.79 124 c 0,20,21
 52.7246 278 52.7246 278 102.098 532 c 128,-1,22
 151.47 786 151.47 786 321.21 939 c 0,23,24
 491.95 1092 491.95 1092 724.95 1092 c 128,-1,25
 957.95 1092 957.95 1092 1069.21 939 c 0,26,27
 1179.47 786 1179.47 786 1130.1 532 c 128,-1,28
 1080.72 278 1080.72 278 910.79 124 c 0,29,30
 740.05 -29 740.05 -29 507.05 -29 c 0,18,19
EndSplineSet
EndChar
StartChar: uni0276
Encoding: 630 630 630
Width: 1618
Flags: W
TeX: 0 0 0 0
Fore
794.959 948 m 18,0,1
 614.126 954 614.126 954 482.383 837 c 0,2,3
 356.612 725 356.612 725 317.736 525 c 0,4,5
 278.472 323 278.472 323 360.701 211 c 0,6,7
 441.125 100 441.125 100 629.736 98 c 2,8,-1
 657.542 97 l 25,9,-1
 703.291 106 l 25,10,-1
 868.515 956 l 25,11,-1
 820.765 947 l 25,12,-1
 794.959 948 l 18,0,1
1455.69 0 m 1,13,-1
 580.687 0 l 2,14,15
 306.687 0 306.687 0 180.095 141 c 128,-1,16
 53.502 282 53.502 282 102.486 534 c 0,17,18
 150.887 783 150.887 783 331.1 923 c 0,19,20
 512.313 1063 512.313 1063 787.313 1063 c 2,21,-1
 1650.31 1063 l 1,22,-1
 1604.25 826 l 1,23,-1
 1507.25 826 l 1,24,-1
 1533.51 956 l 1,25,-1
 1053.51 956 l 1,26,-1
 989.758 628 l 1,27,-1
 1331.76 628 l 1,28,-1
 1354.86 752 l 1,29,-1
 1449.86 752 l 1,30,-1
 1381.24 399 l 1,31,-1
 1286.24 399 l 1,32,-1
 1311.15 522 l 1,33,-1
 969.153 522 l 1,34,-1
 888.291 106 l 1,35,-1
 1379.29 106 l 1,36,-1
 1404.56 236 l 1,37,-1
 1501.56 236 l 1,38,-1
 1455.69 0 l 1,13,-1
EndSplineSet
EndChar
StartChar: uni0277
Encoding: 631 631 631
Width: 1326
Flags: W
TeX: 0 0 0 0
Fore
775.194 529 m 17,0,-1
 767.419 489 l 2,1,2
 744.094 369 744.094 369 757.489 263 c 0,3,4
 781.196 66 781.196 66 842.196 66 c 0,5,6
 931.196 66 931.196 66 1001.95 430 c 0,7,8
 1034.58 603 1034.58 603 1012.43 772 c 1,9,10
 958.722 969 958.722 969 752.499 973 c 0,11,12
 553.276 977 553.276 977 417.429 772 c 1,13,14
 329.578 603 329.578 603 294.951 430 c 0,15,16
 224.196 66 224.196 66 313.196 66 c 0,17,18
 374.196 66 374.196 66 474.489 263 c 0,19,20
 529.094 369 529.094 369 552.419 489 c 2,21,-1
 560.194 529 l 1,22,-1
 775.194 529 l 17,0,-1
616.238 272 m 1,23,24
 564.637 130 564.637 130 478.086 50 c 0,25,26
 391.73 -29 391.73 -29 288.73 -29 c 0,27,28
 147.73 -29 147.73 -29 92.501 83 c 0,29,30
 37.0771 194 37.0771 194 77.1191 400 c 0,31,32
 92.4756 479 92.4756 479 127.22 560 c 0,33,34
 171.824 666 171.824 666 214.682 727 c 0,35,36
 466.27 1085 466.27 1085 774.27 1085 c 0,37,38
 1085.27 1085 1085.27 1085 1197.68 727 c 0,39,40
 1216.82 666 1216.82 666 1220.22 560 c 0,41,42
 1223.48 479 1223.48 479 1208.12 400 c 0,43,44
 1168.08 194 1168.08 194 1069.5 83 c 0,45,46
 970.73 -29 970.73 -29 829.73 -29 c 0,47,48
 726.73 -29 726.73 -29 671.086 50 c 0,49,50
 615.637 130 615.637 130 616.238 272 c 1,23,24
EndSplineSet
EndChar
StartChar: uni0278
Encoding: 632 632 632
Width: 1233
Flags: W
TeX: 0 0 0 0
Fore
537.974 -320 m 1,0,-1
 711.974 -320 l 1,1,-1
 691.369 -426 l 1,2,-1
 157.369 -426 l 1,3,-1
 177.974 -320 l 1,4,-1
 353.974 -320 l 1,5,-1
 411.751 -22.7588 l 1,6,7
 246.067 1.90039 246.067 1.90039 157.278 124 c 0,8,9
 46.2129 277.999 46.2129 277.999 95.5859 532 c 0,10,11
 144.958 786.001 144.958 786.001 314.698 939 c 0,12,13
 451.1 1061.23 451.1 1061.23 627.235 1085.81 c 1,14,-1
 697.832 1449 l 1,15,-1
 521.832 1449 l 1,16,-1
 542.631 1556 l 1,17,-1
 1076.63 1556 l 1,18,-1
 1056.61 1453 l 1,19,-1
 882.609 1453 l 1,20,-1
 811.12 1085.22 l 1,21,22
 974.854 1059.8 974.854 1059.8 1062.7 939 c 0,23,24
 1172.96 786.001 1172.96 786.001 1123.59 532 c 0,25,26
 1074.21 277.998 1074.21 277.998 904.278 124 c 0,27,28
 769.473 3.2002 769.473 3.2002 595.855 -22.2227 c 1,29,-1
 537.974 -320 l 1,0,-1
432.302 82.9648 m 1,30,-1
 606.708 980.209 l 1,31,32
 518.545 954.314 518.545 954.314 452.452 876 c 0,33,34
 354.904 759.999 354.904 759.999 310.586 532 c 0,35,36
 266.267 304.001 266.267 304.001 319.524 187 c 0,37,38
 355.053 108.947 355.053 108.947 432.302 82.9648 c 1,30,-1
790.459 978.926 m 1,39,-1
 616.518 84.0742 l 1,40,41
 702.029 110.579 702.029 110.579 766.524 187 c 0,42,43
 864.267 304 864.267 304 908.586 532 c 0,44,45
 952.904 759.999 952.904 759.999 900.452 876 c 0,46,47
 865.667 952.421 865.667 952.421 790.459 978.926 c 1,39,-1
EndSplineSet
EndChar
StartChar: uni0279
Encoding: 633 633 633
Width: 1026
Flags: W
Fore
-26.8838 -2 m 1,0,-1
 24.8223 264 l 1,1,-1
 130.822 264 l 1,2,3
 120.466 185 120.466 185 151.885 146 c 128,-1,4
 183.304 107 183.304 107 258.304 107 c 0,5,6
 394.304 107 394.304 107 484.576 201 c 0,7,8
 575.848 295 575.848 295 610.059 471 c 2,9,-1
 704.527 957 l 1,10,-1
 491.527 957 l 1,11,-1
 512.132 1063 l 1,12,-1
 1075.13 1063 l 1,13,-1
 1054.53 957 l 1,14,-1
 888.527 957 l 1,15,-1
 722.915 105 l 1,16,-1
 898.915 105 l 1,17,-1
 878.506 0 l 1,18,-1
 518.506 0 l 1,19,-1
 555.243 189 l 1,20,21
 479.667 78 479.667 78 384.171 24 c 0,22,23
 288.868 -29 288.868 -29 166.868 -29 c 0,24,25
 121.868 -29 121.868 -29 73.2295 -22 c 0,26,27
 25.5898 -15 25.5898 -15 -26.8838 -2 c 1,0,-1
EndSplineSet
EndChar
StartChar: uni027A
Encoding: 634 634 634
Width: 1026
Flags: W
Fore
-74.7012 -2 m 1,0,-1
 -22.9961 264 l 1,1,-1
 83.0039 264 l 1,2,3
 72.6484 185 72.6484 185 104.067 146 c 128,-1,4
 135.486 107 135.486 107 210.486 107 c 0,5,6
 343.486 107 343.486 107 436.758 201 c 0,7,8
 527.447 292 527.447 292 562.241 471 c 2,9,-1
 752.345 1449 l 1,10,-1
 539.345 1449 l 1,11,-1
 559.949 1555 l 1,12,-1
 1122.95 1555 l 1,13,-1
 1102.34 1449 l 1,14,-1
 936.345 1449 l 1,15,-1
 675.098 105 l 1,16,-1
 851.098 105 l 1,17,-1
 830.688 0 l 1,18,-1
 470.688 0 l 1,19,-1
 507.426 189 l 1,20,21
 431.85 78 431.85 78 336.353 24 c 0,22,23
 241.051 -29 241.051 -29 119.051 -29 c 0,24,25
 74.0508 -29 74.0508 -29 25.4111 -22 c 0,26,27
 -22.2275 -15 -22.2275 -15 -74.7012 -2 c 1,0,-1
EndSplineSet
EndChar
StartChar: uni027B
Encoding: 635 635 635
Width: 1129
Flags: W
Fore
559.908 0 m 1,0,-1
 596.646 189 l 1,1,2
 521.07 78 521.07 78 425.573 24 c 0,3,4
 330.271 -29 330.271 -29 208.271 -29 c 0,5,6
 163.271 -29 163.271 -29 114.632 -22 c 0,7,8
 66.9932 -15 66.9932 -15 14.5195 -2 c 1,9,-1
 66.2246 264 l 1,10,-1
 172.225 264 l 1,11,12
 161.869 185 161.869 185 193.288 146 c 128,-1,13
 224.707 107 224.707 107 299.707 107 c 0,14,15
 435.707 107 435.707 107 525.979 201 c 0,16,17
 617.251 295 617.251 295 651.462 471 c 2,18,-1
 745.931 957 l 1,19,-1
 532.931 957 l 1,20,-1
 553.534 1063 l 1,21,-1
 1116.53 1063 l 1,22,-1
 1095.93 957 l 1,23,-1
 932.931 957 l 1,24,-1
 771.789 128 l 1,25,-1
 726.692 -104 l 2,26,27
 701.424 -234 701.424 -234 732.761 -294 c 0,28,29
 763.709 -356 763.709 -356 855.709 -356 c 0,30,31
 937.709 -356 937.709 -356 988.456 -311 c 128,-1,32
 1039.2 -266 1039.2 -266 1065.86 -170 c 1,33,-1
 1159.86 -170 l 1,34,-1
 1117.29 -389 l 1,35,36
 1048.88 -422 1048.88 -422 980.77 -438 c 0,37,38
 912.465 -455 912.465 -455 840.466 -455 c 0,39,40
 668.465 -455 668.465 -455 589.543 -362 c 0,41,42
 514.037 -272 514.037 -272 542.692 -104 c 2,43,-1
 559.908 0 l 1,0,-1
EndSplineSet
EndChar
StartChar: uni027C
Encoding: 636 636 636
Width: 979
Flags: W
Fore
1121.09 1065 m 1,0,-1
 1069.39 799 l 1,1,-1
 963.387 799 l 1,2,3
 973.743 878 973.743 878 942.323 917 c 128,-1,4
 910.904 956 910.904 956 835.904 956 c 0,5,6
 699.904 956 699.904 956 608.633 862 c 0,7,8
 518.361 768 518.361 768 484.15 592 c 2,9,-1
 307.264 -318 l 1,10,-1
 520.264 -318 l 1,11,-1
 499.66 -424 l 1,12,-1
 -63.3398 -424 l 1,13,-1
 -42.7363 -318 l 1,14,-1
 123.264 -318 l 1,15,-1
 371.293 958 l 1,16,-1
 195.293 958 l 1,17,-1
 215.703 1063 l 1,18,-1
 575.703 1063 l 1,19,-1
 538.966 874 l 1,20,21
 614.542 985 614.542 985 709.844 1038 c 0,22,23
 805.34 1092 805.34 1092 927.34 1092 c 0,24,25
 972.34 1092 972.34 1092 1019.98 1085 c 0,26,27
 1068.62 1078 1068.62 1078 1121.09 1065 c 1,0,-1
EndSplineSet
EndChar
StartChar: uni027D
Encoding: 637 637 637
Width: 979
Flags: W
Fore
1124.1 1065 m 1,0,-1
 1072.4 799 l 1,1,-1
 966.399 799 l 1,2,3
 976.756 878 976.756 878 945.337 917 c 128,-1,4
 913.917 956 913.917 956 838.917 956 c 0,5,6
 702.917 956 702.917 956 611.646 862 c 0,7,8
 521.374 768 521.374 768 487.163 592 c 0,9,10
 420.519 244 420.519 244 349.874 -104 c 2,11,12
 324.604 -234 324.604 -234 354.942 -294 c 0,13,14
 386.891 -356 386.891 -356 477.891 -356 c 0,15,16
 559.891 -356 559.891 -356 611.638 -311 c 0,17,18
 662.385 -266 662.385 -266 688.045 -170 c 1,19,-1
 783.045 -170 l 1,20,-1
 740.476 -389 l 1,21,22
 672.062 -422 672.062 -422 602.951 -438 c 0,23,24
 534.646 -455 534.646 -455 462.646 -455 c 0,25,26
 291.646 -455 291.646 -455 211.725 -362 c 0,27,28
 132.996 -268 132.996 -268 164.874 -104 c 2,29,-1
 185.09 0 l 1,30,31
 277.837 472 277.837 472 371.307 958 c 1,32,-1
 198.307 958 l 1,33,-1
 218.716 1063 l 1,34,-1
 578.716 1063 l 1,35,-1
 541.979 874 l 1,36,37
 617.555 985 617.555 985 712.856 1038 c 0,38,39
 808.354 1092 808.354 1092 930.354 1092 c 0,40,41
 975.354 1092 975.354 1092 1022.99 1085 c 0,42,43
 1071.63 1078 1071.63 1078 1124.1 1065 c 1,0,-1
EndSplineSet
EndChar
StartChar: uni027E
Encoding: 638 638 638
Width: 927
Flags: W
Fore
349.153 106 m 1,0,-1
 562.153 106 l 1,1,-1
 541.549 0 l 1,2,-1
 -21.4512 0 l 1,3,-1
 -0.84668 106 l 1,4,-1
 164.153 106 l 1,5,-1
 265.619 628 l 1,6,-1
 286.224 734 l 2,7,8
 318.103 898 318.103 898 433.374 992 c 0,9,10
 549.451 1085 549.451 1085 720.451 1085 c 0,11,12
 792.451 1085 792.451 1085 854.146 1068 c 0,13,14
 917.037 1052 917.037 1052 972.622 1019 c 1,15,-1
 930.053 800 l 1,16,-1
 835.053 800 l 1,17,18
 846.714 896 846.714 896 813.461 941 c 0,19,20
 779.208 986 779.208 986 697.208 986 c 0,21,22
 606.208 986 606.208 986 550.156 924 c 0,23,24
 496.493 864 496.493 864 471.224 734 c 2,25,-1
 450.619 628 l 1,26,-1
 349.153 106 l 1,0,-1
EndSplineSet
EndChar
StartChar: uni027F
Encoding: 639 639 639
Width: 927
Flags: W
Fore
445.153 106 m 1,0,-1
 546.619 628 l 1,1,-1
 567.224 734 l 2,2,3
 592.493 864 592.493 864 562.156 924 c 0,4,5
 530.208 986 530.208 986 439.208 986 c 0,6,7
 357.208 986 357.208 986 305.461 941 c 0,8,9
 254.714 896 254.714 896 229.053 800 c 1,10,-1
 134.053 800 l 1,11,-1
 176.622 1019 l 1,12,13
 245.037 1052 245.037 1052 314.146 1068 c 0,14,15
 382.451 1085 382.451 1085 454.451 1085 c 0,16,17
 625.451 1085 625.451 1085 705.374 992 c 0,18,19
 784.103 898 784.103 898 752.224 734 c 2,20,-1
 731.619 628 l 1,21,-1
 630.153 106 l 1,22,-1
 795.153 106 l 1,23,-1
 774.549 0 l 1,24,-1
 211.549 0 l 1,25,-1
 232.153 106 l 1,26,-1
 445.153 106 l 1,0,-1
EndSplineSet
EndChar
